<?xml version="1.0" encoding="UTF-8" standalone="no"?>
<!DOCTYPE svg PUBLIC "-//W3C//DTD SVG 1.1//EN" "http://www.w3.org/Graphics/SVG/1.1/DTD/svg11.dtd">
<!-- Created with Vectornator (http://vectornator.io/) -->
<svg height="100%" stroke-miterlimit="10" style="fill-rule:nonzero;clip-rule:evenodd;stroke-linecap:round;stroke-linejoin:round;" version="1.1" viewBox="0 0 800 800" width="100%" xml:space="preserve" xmlns="http://www.w3.org/2000/svg" xmlns:vectornator="http://vectornator.io" xmlns:xlink="http://www.w3.org/1999/xlink">
<defs/>
<g id="Layer-1" vectornator:layerName="Layer 1">
<path d="M228.471 347.065C215.876 371.444 221.055 394.871 221.055 394.871C221.055 394.871 220.745 426.171 247.224 447.835C248.82 449.14 251.014 451.068 253.108 452.989C255.152 454.863 257.382 456.384 258.961 457.611C263.031 460.774 268.512 464.157 272.581 466.782C292.157 479.412 307.967 484.713 307.967 484.713C307.967 484.713 338.327 496.954 368.14 498.963C387.575 500.273 406.485 501.644 425.538 500.779C435.711 500.317 450.821 499.425 458.841 497.479C481.88 491.889 506.684 485.62 529.561 471.146C552.438 456.671 571.397 437.498 579.148 422.956C582.458 416.745 585.443 410.594 586.66 399.479C588.187 385.525 586.242 365.76 571.393 343.017C564.033 331.746 556.33 325.255 550.224 319.361C546.57 315.833 544.708 314.668 540.082 311.476C538.444 310.345 533.883 307.432 531.596 305.989C528.041 303.747 525.104 302.779 525.104 302.779" fill="none" opacity="1" stroke="#000000" stroke-linecap="butt" stroke-linejoin="round" stroke-width="1.57342"/>
<path d="M305.4 289.21C305.4 289.21 279.458 294.764 248.622 321.311C241.456 327.48 233.039 338.27 229.237 345.45C216.678 369.166 221.052 391.864 221.052 391.864C221.052 391.864 220.744 422.313 247.148 443.388C248.739 444.658 250.927 446.533 253.015 448.402C255.053 450.225 257.277 451.705 258.852 452.899C262.91 455.976 268.376 459.266 272.433 461.82C291.953 474.107 307.718 479.264 307.718 479.264C307.718 479.264 337.993 491.172 367.721 493.127C387.101 494.402 405.957 495.736 424.956 494.894C435.1 494.444 450.168 493.576 458.164 491.684C474.766 487.754 492.287 483.479 509.337 476.097C515.881 473.263 522.357 469.971 528.684 466.066C536.696 461.12 544.226 455.61 550.959 449.93C563.397 439.438 573.116 428.364 578.13 419.186C581.432 413.143 584.408 407.159 585.621 396.346C587.144 382.772 585.204 363.543 570.397 341.419C563.058 330.453 555.378 324.138 549.289 318.404C545.645 314.973 543.789 313.839 539.175 310.734C537.542 309.634 532.994 306.8 530.714 305.396C527.169 303.215 524.24 302.274 524.24 302.274" fill="none" opacity="1" stroke="#000000" stroke-linecap="butt" stroke-linejoin="round" stroke-width="1.57342"/>
<path d="M337.401 331.137L310.701 356.585C310.701 356.585 303.007 364.373 312.727 368.009C340.837 378.522 398.781 403.483 398.781 403.483C398.781 403.483 405.533 407.382 410.568 402.215C418.653 393.919 456.219 353.329 456.219 353.329C456.219 353.329 458.802 349.181 453.615 346.204C450.814 344.597 435.726 339.345 435.726 339.345C435.726 339.345 426.992 361.62 403.74 363.394C389.453 364.484 361.343 364.218 357.152 338.079C356.048 331.192 355.37 333.941 355.358 334.181C354.976 341.842 355.129 363.153 355.569 366.798C356.166 371.747 379.818 388.018 405.492 382.291C430.818 376.64 433.846 369.436 435.019 368.166C435.691 367.438 435.725 339.6 435.725 339.6" fill="none" opacity="1" stroke="#000000" stroke-linecap="butt" stroke-linejoin="round" stroke-width="1.57342"/>
<path d="M307.918 361.514C307.918 361.514 307.473 373.517 308.229 376.398C308.985 379.279 399.767 414.44 399.767 414.44C399.767 414.44 408.666 418.673 413.936 412.779C416.374 410.054 452.559 370.622 455.493 367.611C458.426 364.6 456.787 350.115 456.787 350.115" fill="none" opacity="1" stroke="#000000" stroke-linecap="butt" stroke-linejoin="round" stroke-width="1.57342"/>
<path d="M274.149 581.024C274.149 581.024 244.668 547.881 262.623 520.948C273.258 504.997 293.75 509.994 308.693 516.721C318.981 521.352 327.667 528.244 327.667 528.244C327.667 528.244 372.698 565.837 365.672 604.09C364.472 610.622 360.815 614.75 355.859 617.133C346.938 621.423 333.808 620.061 323.221 616.897C305.249 611.524 292.234 599.811 292.234 599.811L283.12 591.13L274.149 581.024Z" fill="none" opacity="1" stroke="#000000" stroke-linecap="butt" stroke-linejoin="round" stroke-width="1.57342"/>
<path d="M287.936 569.499C287.936 569.499 267.642 547.156 280.002 528.999C287.323 518.245 301.429 521.614 311.716 526.149C318.798 529.271 324.777 533.917 324.777 533.917C324.777 533.917 355.776 559.26 350.939 585.049C350.113 589.453 347.596 592.235 344.184 593.842C338.043 596.734 329.004 595.816 321.717 593.682C309.345 590.061 300.385 582.164 300.385 582.164L294.112 576.312L287.936 569.499Z" fill="none" opacity="1" stroke="#000000" stroke-linecap="butt" stroke-linejoin="round" stroke-width="1.57342"/>
<path d="M256.908 546.559C256.908 546.559 253.304 539.345 253.134 534.51C252.963 529.675 253.861 526.551 253.861 526.551L256.199 525.244L255.573 522.023C255.573 522.023 255.137 519.495 256.079 517.59C257.021 515.684 260.615 507.999 261.888 507.937C262.507 507.907 260.658 511.142 260.438 513.062C260.205 515.09 261.166 516.92 261.166 516.92L264.25 513.492C264.25 513.492 262.738 508.159 264.407 505.152C265.378 503.401 270.089 496.313 276.987 489.828C283.507 483.698 292.261 478.106 292.261 478.106L295.018 479.384L282.482 490.704C282.482 490.704 273.023 499.9 272.166 500.912C270.244 503.182 271.408 508.735 271.408 508.735L276.336 507.563C276.336 507.563 273.82 503.318 276.077 498.87C278.334 494.421 284.753 489.152 284.753 489.152L295.593 479.561L302.626 482.797C302.626 482.797 286.281 494.339 284.961 497.988C283.806 501.18 283.473 506.846 285.282 506.465C286.658 506.175 290.451 506.903 290.451 506.903C290.451 506.903 289.11 501.908 291.285 498.989C291.285 498.989 303.908 483.024 305.727 483.887C307.546 484.75 314.656 487.313 315.928 487.569C317.347 487.854 303.815 496.811 303.23 501.152C302.645 505.494 302.528 509.863 302.528 509.863L308.557 512.29C308.557 512.29 309.892 503.774 311.113 501.303C312.214 499.077 320.749 489.525 321.882 489.581C323.618 489.668 345.586 495.737 345.586 495.737C345.586 495.737 325.796 502.225 324.66 510.174C323.525 518.122 322.389 520.88 322.389 520.88L327.418 524.449C327.418 524.449 329.526 514.716 334.717 510.336C339.908 505.956 352.377 497.429 352.377 497.429L361.292 498.384L369.673 499.064C369.673 499.064 376.553 498.859 373.406 502.955C370.259 507.051 358.542 513.95 355.452 514.731C353.356 515.26 343.319 520.373 340.557 534.182C340.241 535.764 340.117 535.954 340.117 535.954L344.838 540.251C344.838 540.251 346.046 532.26 350.691 527.018C353.893 523.404 357.622 520.346 359.324 519.972C366.76 518.341 375.65 511.08 377.867 510.174C379.695 509.426 380.498 511.486 382.516 514.174C384.692 517.074 386.788 520.393 386.788 520.393C386.788 520.393 380.389 532.983 372.581 533.775C361.08 534.94 352.885 550.079 352.885 550.079L357.558 555.833C357.558 555.833 364.121 539.789 377.03 539.392C386.115 539.112 390.8 525.782 390.8 525.782C390.8 525.782 395.805 534.373 395.969 535.982C396.134 537.592 388.23 549.573 382.571 550.036C373.433 550.784 361.758 568.292 363.543 569.265C365.327 570.238 367.091 573.676 367.091 573.676C367.091 573.676 377.508 557.914 385.268 556.605C391.805 555.503 395.018 547.642 397.256 544.322C399.378 541.173 401.975 555.721 401.975 555.721C401.975 555.721 396.185 569.673 388.011 571.703C378.779 573.996 370.311 588.471 370.311 588.471L371.357 597.776C371.357 597.776 378.774 583.445 389.772 578.986C400.59 574.6 404.07 566.892 404.07 566.892C404.07 566.892 407.602 571.243 406.163 579.986C405.736 582.577 405.051 587.336 398.445 595.485C393.638 601.416 386.725 606.546 380.253 610.899C370.563 617.417 354.155 620.969 339.372 619.769" fill="none" opacity="1" stroke="#000000" stroke-linecap="butt" stroke-linejoin="round" stroke-width="1.57342"/>
<path d="M409.7 501.001L409.628 586.688L413.386 592.502L418.764 593.412L420.027 500.842C420.027 500.842 424.485 500.814 428.109 500.68C429.214 500.639 428.689 502.852 428.685 506.512C428.662 526.196 427.112 587.47 427.112 587.47L418.779 593.329L413.32 592.5L409.47 586.63C409.47 586.63 407.928 591.6 405.239 595.478C402.549 599.357 396.782 603.17 396.782 603.17C396.782 603.17 454.857 599.531 484.386 589.325C501.358 583.459 512.998 575.512 526.109 567.451C540.345 558.698 550.369 546.691 560.046 533.832C572.754 516.942 575.788 496.327 574.493 480.553C572.782 459.708 564.823 443.479 564.534 442.755" fill="none" opacity="1" stroke="#000000" stroke-linecap="butt" stroke-linejoin="round" stroke-width="1.57342"/>
<path d="M557.904 536.964L557.098 558.032C557.098 558.032 549.825 573.752 525.828 567.691" fill="none" opacity="1" stroke="#000000" stroke-linecap="butt" stroke-linejoin="round" stroke-width="1.57342"/>
<path d="M250.429 520.287L256.049 514.256L252.055 452.099L244.062 445.008L249.733 520.444L242.858 518.311L236.931 439.13C236.931 439.13 214.184 481.607 245.703 537.75C246.625 539.392 253.528 538.418 253.528 538.418" fill="none" opacity="1" stroke="#000000" stroke-linecap="butt" stroke-linejoin="round" stroke-width="1.57342"/>
<path d="M433.195 302.863C433.195 302.863 437.854 289.763 424.435 282.91C411.017 276.058 380.426 274.094 380.426 274.094C380.426 274.094 372.106 278.8 379.595 287.485C382.301 290.624 424.533 304.346 424.533 304.346C424.533 304.346 450.703 310.057 435.894 285.143C428.283 272.337 379.628 268.795 379.628 268.795L317.116 296.859L316.674 318.488L417.147 351.098L451.96 315.403C451.96 315.403 455.669 319.397 458.696 317.235C461.723 315.073 479.095 293.497 479.095 293.497L479.738 321.703L518.193 284.453L526.612 285.18L538.83 276.015L587.851 281.062C587.851 281.062 597.674 280.488 600.59 254.206C603.506 227.924 594.916 228.491 594.916 228.491L551.786 218.282L551.332 204.961L543.411 203.264L542.505 187.613L531.261 184.802L530.396 162.312L524.341 162.528L504.878 181.126L502.067 162.528C502.067 162.528 499.688 151.932 490.173 160.582C480.658 169.232 453.769 193.228 453.769 193.228C453.769 193.228 443.084 201.873 441.962 216.65C441.224 226.361 445.449 292.893 445.449 292.893L441.451 293.12L437.769 213.441C437.769 213.441 435.649 200.776 450.814 189.192C467.28 176.613 485.542 158.976 485.542 158.976C485.542 158.976 493.28 151.704 499.565 158.251" fill="none" opacity="1" stroke="#000000" stroke-linecap="butt" stroke-linejoin="round" stroke-width="1.57342"/>
<path d="M348.086 301.134L376.636 291.031C376.636 291.031 379.458 292.091 384.211 294.136C387.388 295.504 389.884 296.492 391.261 298.528C393.724 302.173 393.428 309.282 393.428 309.282C393.428 309.282 392.491 326.139 392.491 326.139C392.491 326.139 349.683 313.907 347.418 310.057C345.153 306.206 348.086 301.134 348.086 301.134Z" fill="none" opacity="1" stroke="#000000" stroke-linecap="butt" stroke-linejoin="round" stroke-width="1.57342"/>
<path d="M439.295 232.353L410.707 229.1L356.025 255.243L317.066 292.616L378.901 264.983L435.527 274.949C435.527 274.949 441.463 277.594 441.149 293.925" fill="none" opacity="1" stroke="#000000" stroke-linecap="butt" stroke-linejoin="round" stroke-width="1.57342"/>
<path d="M482.289 294.005L485.023 291.339L482.54 243.014L451.234 233.205L448.469 236.157L479.803 245.354L482.225 294.044L456.83 288.188L457.921 318.188L451.94 315.776L448.294 236.263" fill="none" opacity="1" stroke="#000000" stroke-linecap="butt" stroke-linejoin="round" stroke-width="1.57342"/>
<path d="M529.993 162.842L474.699 215.892L476.142 240.741L472.502 239.567L470.755 213.198L504.93 180.773" fill="none" opacity="1" stroke="#000000" stroke-linecap="butt" stroke-linejoin="round" stroke-width="1.57342"/>
<path d="M523.244 201.654L551.353 204.988L524.256 232.738L526.371 285.051L494.982 282.109L492.508 230.86L523.244 201.654Z" fill="none" opacity="1" stroke="#000000" stroke-linecap="butt" stroke-linejoin="round" stroke-width="1.57342"/>
<path d="M493.022 230.127L524.137 233.144" fill="none" opacity="1" stroke="#000000" stroke-linecap="butt" stroke-linejoin="round" stroke-width="1.57342"/>
<path d="M579.412 224.886C579.412 224.886 554.298 240.398 566.393 279.461" fill="none" opacity="1" stroke="#000000" stroke-linecap="butt" stroke-linejoin="round" stroke-width="1.57342"/>
<path d="M594.797 228.411C594.797 228.411 584.845 229.958 580.893 249.13C576.941 268.303 582.489 280.113 582.489 280.113" fill="none" opacity="1" stroke="#000000" stroke-linecap="butt" stroke-linejoin="round" stroke-width="1.57342"/>
<path d="M574.61 228.3C574.567 221.231 567.754 223.941 565.364 226.38C561.648 230.172 556.825 236.575 554.609 244.746C550.967 258.174 558.118 277.642 558.118 277.642L526.484 274.621" fill="none" opacity="1" stroke="#000000" stroke-linecap="butt" stroke-linejoin="round" stroke-width="1.57342"/>
<path d="M417.802 350.113L418.024 330.112L451.035 297.636L432.68 307.402C432.68 307.402 424.69 310.052 419.863 307.739C415.035 305.427 409.009 307.201 409.499 313.533C409.988 319.865 409.162 329.226 409.162 329.226C409.162 329.226 414.059 334.299 418.03 330.196" fill="none" opacity="1" stroke="#000000" stroke-linecap="butt" stroke-linejoin="round" stroke-width="1.57342"/>
</g>
</svg>
