<?xml version="1.0" encoding="UTF-8" standalone="no"?>
<!DOCTYPE svg PUBLIC "-//W3C//DTD SVG 1.1//EN" "http://www.w3.org/Graphics/SVG/1.1/DTD/svg11.dtd">
<!-- Created with Vectornator (http://vectornator.io/) -->
<svg height="100%" stroke-miterlimit="10" style="fill-rule:nonzero;clip-rule:evenodd;stroke-linecap:round;stroke-linejoin:round;" version="1.1" viewBox="0 0 460 280" width="100%" xml:space="preserve" xmlns="http://www.w3.org/2000/svg" xmlns:vectornator="http://vectornator.io" xmlns:xlink="http://www.w3.org/1999/xlink">
<defs>
<clipPath id="TextBounds">
<rect height="20.5591" transform="matrix(1 0 0 1 130.462 239.366)" width="42.1331" x="0" y="0"/>
</clipPath>
<clipPath id="TextBounds_2">
<rect height="21.0412" transform="matrix(1 0 0 1 397.68 235.583)" width="42.1331" x="0" y="0"/>
</clipPath>
</defs>
<g id="Layer-1" vectornator:layerName="Layer 1">
<path d="M159.7 138.976C159.7 138.976 160.748 130.992 158.59 128.932C156.431 126.873 153.255 127.412 149.133 129.15C145.012 130.887 142.446 132.21 142.106 135.094C141.867 137.115 142.013 138.049 143.272 140.176C145.93 144.67 151.184 150.789 151.276 156.027" fill="none" opacity="1" stroke="#dac061" stroke-linecap="butt" stroke-linejoin="round" stroke-width="1.2"/>
<path d="M69.4413 182.825C67.9568 184.283 67.9485 190.33 71.6142 194.645C75.2799 198.961 82.7219 199.465 84.5156 197.683C86.3093 195.901 84.5697 189.265 80.6523 185.65C76.735 182.035 70.9258 181.368 69.4413 182.825Z" fill="none" opacity="1" stroke="#dac061" stroke-linecap="butt" stroke-linejoin="round" stroke-width="1.2"/>
<path d="M53.7039 114.634C53.7039 114.634 56.4703 112.282 61.0151 111.539C65.5599 110.795 71.3366 112.003 71.3366 112.003C71.3366 112.003 73.2515 115.653 73.3765 119.736C73.5015 123.819 72.9759 125.204 71.7446 126.646C70.5133 128.088 67.6403 128.337 63.933 128.449C60.2258 128.561 57.3364 127.931 56.58 127.545C55.8235 127.16 54.5275 125.688 53.3841 121.814C52.2406 117.94 53.7039 114.634 53.7039 114.634Z" fill="none" opacity="1" stroke="#dac061" stroke-linecap="butt" stroke-linejoin="round" stroke-width="1.2"/>
<path d="M64.232 178.128C64.232 178.128 54.2336 179.3 44.7741 183.849C35.3146 188.397 25.9993 196.255 25.9993 196.255" fill="none" opacity="1" stroke="#000000" stroke-linecap="butt" stroke-linejoin="round" stroke-width="1.2"/>
<path d="M113.365 95.2469C113.365 95.2469 85.2612 97.53 62.7445 118.62C40.2278 139.711 22.9216 180.112 22.9216 180.112" fill="none" opacity="1" stroke="#000000" stroke-linecap="butt" stroke-linejoin="round" stroke-width="1.2"/>
<path d="M141.117 51.6517C141.117 51.6517 117.648 58.0684 93.4053 75.2433C69.1628 92.4182 38.5866 104.066 38.5866 104.066" fill="none" opacity="1" stroke="#000000" stroke-linecap="butt" stroke-linejoin="round" stroke-width="1.2"/>
<path d="M110.434 100.591C110.434 100.591 118.167 126.452 113.77 152.147C109.374 177.841 92.2172 205.719 92.2172 205.719" fill="none" opacity="1" stroke="#000000" stroke-linecap="butt" stroke-linejoin="round" stroke-width="1.2"/>
<path d="M141.84 51.3952C141.84 51.3952 149.59 85.4074 142.988 120.787C136.387 156.166 114.594 194.556 114.594 194.556" fill="none" opacity="1" stroke="#000000" stroke-linecap="butt" stroke-linejoin="round" stroke-width="1.2"/>
<path d="M124.079 51.9569C124.079 51.9569 131.107 50.9794 133.271 46.5737C134.988 43.0786 130.762 40.1835 128.532 39.2817C119.661 35.6946 98.0221 44.4311 98.0221 44.4311C98.0221 44.4311 74.7853 58.8758 62.4673 71.6872C50.1494 84.4987 38.1651 102.212 30.454 120.454C22.7429 138.695 22.3166 172.477 22.3166 172.477C22.3166 172.477 22.5769 190.169 28.591 203.975C34.6051 217.782 32.0981 223.756 34.1517 239.445C36.2053 255.135 41.3684 217.916 61.9521 212.971C81.8409 208.194 90.1764 209.65 116.193 193.627C142.209 177.604 158.537 143.174 158.537 143.174C158.537 143.174 171.175 111.259 171.516 87.3712C171.857 63.483 166.78 41.924 166.78 41.924C166.78 41.924 163.954 23.5744 151.683 36.0748C148.861 38.9492 124.973 76.6602 99.4151 118.881C85.2037 142.357 69.7834 167.037 58.6685 188.738C43.6035 218.151 35.7906 242.057 35.7906 242.057" fill="none" opacity="1" stroke="#000000" stroke-linecap="butt" stroke-linejoin="round" stroke-width="1.2"/>
<path d="M139.875 172.301C139.875 172.301 142.598 182.922 148.464 190.511C154.329 198.1 161.484 203.675 163.047 206.547C164.61 209.42 165.535 212.357 166.091 217.767C166.647 223.177 167.551 233.408 172.134 232.26C176.717 231.113 180.483 229.513 186.004 222.198C190.411 216.359 195.407 214.238 199.515 213.319C204.548 212.194 206.417 211.461 209.557 209.344C225.323 198.714 228.998 190.365 231.723 183.1C234.447 175.835 236.681 163.736 236.344 152.947C236.007 142.159 236.924 136.278 234.202 129.1C231.481 121.921 225.799 120.574 222.814 115.124C219.829 109.674 218.472 95.0276 218.472 95.0276C218.472 95.0276 209.379 109.311 200.271 117.288C191.164 125.264 184.406 126.979 177.904 123.1C171.402 119.221 169.503 106.331 169.503 106.331" fill="none" opacity="1" stroke="#000000" stroke-linecap="butt" stroke-linejoin="round" stroke-width="1.2"/>
<path d="M193.093 122.079C193.093 122.079 190.905 145.598 185.294 172.967C179.683 200.335 170.65 231.554 170.65 231.554" fill="none" opacity="1" stroke="#000000" stroke-linecap="butt" stroke-linejoin="round" stroke-width="1.2"/>
<path d="M185.506 170.767C185.506 170.767 192.513 181.558 194.377 192.47C196.241 203.382 194 215.237 194 215.237" fill="none" opacity="1" stroke="#000000" stroke-linecap="butt" stroke-linejoin="round" stroke-width="1.2"/>
<path d="M190.662 142.215C190.662 142.215 207.206 155.038 210.335 172.303C213.464 189.569 203.197 212.462 203.197 212.462" fill="none" opacity="1" stroke="#000000" stroke-linecap="butt" stroke-linejoin="round" stroke-width="1.2"/>
<path d="M191.086 140.015C191.086 140.015 171.217 147.169 164.276 163.158C157.335 179.147 161.659 204.37 161.659 204.37" fill="none" opacity="1" stroke="#000000" stroke-linecap="butt" stroke-linejoin="round" stroke-width="1.2"/>
<path d="M184.88 175.209C184.88 175.209 175.64 178.925 170.38 186.78C165.121 194.634 163.311 206.538 163.311 206.538" fill="none" opacity="1" stroke="#000000" stroke-linecap="butt" stroke-linejoin="round" stroke-width="1.2"/>
<path d="M218.316 94.7472C218.316 94.7472 216.738 77.2792 223.434 70.2992C230.13 63.3192 245.833 66.6436 245.833 66.6436C245.833 66.6436 242.564 58.2557 250.786 54.7042C260.141 50.6632 281.649 58.8839 288.436 68.1425C295.222 77.401 297.191 85.0356 297.206 88.6169C297.222 92.1982 295.678 99.3879 292.124 109.478C288.569 119.569 293.573 129.419 291.51 134.423C290.656 136.494 287.032 141.264 283.081 143.806C277.486 147.404 275.019 146.762 271.842 149.058C268.664 151.353 266.925 160.346 266.925 160.346C266.925 160.346 265.693 149.908 257.627 141.809C249.561 133.71 233.738 127.892 233.738 127.892" fill="none" opacity="1" stroke="#000000" stroke-linecap="butt" stroke-linejoin="round" stroke-width="1.2"/>
<path d="M245.439 66.6934C245.439 66.6934 253.051 74.0276 258.328 97.0922C263.605 120.157 267.281 159.319 267.281 159.319" fill="none" opacity="1" stroke="#000000" stroke-linecap="butt" stroke-linejoin="round" stroke-width="1.2"/>
<path d="M252.23 77.9041C252.23 77.9041 264.72 79.1175 274.723 86.3309C284.726 93.5444 292.937 106.605 292.937 106.605" fill="none" opacity="1" stroke="#000000" stroke-linecap="butt" stroke-linejoin="round" stroke-width="1.2"/>
<path d="M259.033 100.423C259.033 100.423 270.605 106.454 277.705 116.159C284.805 125.864 287.42 140.187 287.42 140.187" fill="none" opacity="1" stroke="#000000" stroke-linecap="butt" stroke-linejoin="round" stroke-width="1.2"/>
<path d="M256.887 93.4498C256.887 93.4498 248.77 99.0698 244.808 108.22C240.845 117.371 241.187 130.947 241.187 130.947" fill="none" opacity="1" stroke="#000000" stroke-linecap="butt" stroke-linejoin="round" stroke-width="1.2"/>
<path d="M291.693 73.1344C291.693 73.1344 325.703 100.901 357.397 144.629C359.32 147.282 361.27 149.956 363.235 152.639C393.658 194.17 427.898 237.761 427.898 237.761" fill="none" opacity="1" stroke="#000000" stroke-linecap="butt" stroke-linejoin="round" stroke-width="1.2"/>
<path d="M290.854 136.587C290.854 136.587 299.819 156.432 315.596 175.119C331.374 193.806 332.026 197.067 348.677 207.72C358.305 213.879 364.843 216.341 370.475 217.277C374.584 217.96 378.21 217.83 382.203 217.731C391.667 217.496 412.744 225.956 414.106 226.55C421.233 229.656 427.727 237.963 427.727 237.963C427.727 237.963 421.291 225.339 426.442 200.842C431.593 176.344 436.109 175.132 426.708 150.704C417.306 126.276 397.708 103.475 397.708 103.475C397.708 103.475 378.716 85.8819 353.382 78.9307C328.048 71.9796 292.479 73.7278 292.479 73.7278" fill="none" opacity="1" stroke="#000000" stroke-linecap="butt" stroke-linejoin="round" stroke-width="1.2"/>
<path d="M345.987 121.446C343.165 120.096 349.389 112.125 354.186 111.319C358.983 110.512 364.692 113.683 365.4 117.169C366.108 120.655 361.792 124.253 357.017 125.263C352.842 126.146 347.304 122.076 345.987 121.446Z" fill="none" opacity="1" stroke="#e7a300" stroke-linecap="butt" stroke-linejoin="round" stroke-width="1.2"/>
<path d="M328.153 108.626C328.153 108.626 356.702 110.254 381.58 123.369C406.458 136.483 429.436 158.483 429.436 158.483" fill="none" opacity="1" stroke="#000000" stroke-linecap="butt" stroke-linejoin="round" stroke-width="1.2"/>
<path d="M359.16 146.976C359.16 146.976 381.708 148.879 399.154 158.752C416.601 168.625 429.825 186.627 429.825 186.627" fill="none" opacity="1" stroke="#000000" stroke-linecap="butt" stroke-linejoin="round" stroke-width="1.2"/>
<path d="M326.835 137.325C326.835 137.325 324.466 138.57 324.534 140.648C324.602 142.725 325.778 143.607 325.778 143.607C325.778 143.607 327.602 144.582 329.812 144.65C332.023 144.719 333.815 144.51 333.815 144.51C333.815 144.51 332.908 146.933 332.958 148.781C333.008 150.629 334.49 151.636 334.49 151.636C334.49 151.636 336.39 152.751 338.669 152.904C340.948 153.057 343.045 152.999 344.061 152.101C345.077 151.203 346.08 148.66 345.366 145.851C344.652 143.041 338.163 142.04 338.163 142.04C338.163 142.04 337.792 139.295 336.299 137.987C334.807 136.679 333.775 136.517 331.528 136.52C329.28 136.522 326.835 137.325 326.835 137.325Z" fill="none" opacity="1" stroke="#e7a300" stroke-linecap="butt" stroke-linejoin="round" stroke-width="1.2"/>
<path d="M341.837 124.556C341.837 124.556 334.179 142.901 338.551 164.362C342.923 185.822 360.473 214.033 360.473 214.033" fill="none" opacity="1" stroke="#000000" stroke-linecap="butt" stroke-linejoin="round" stroke-width="1.2"/>
<path d="M312.412 116.31C312.412 116.31 319.319 114.787 322.747 116.445C326.175 118.103 326.876 120.78 325.459 122.402C324.042 124.024 320.683 124.643 317.079 122.933C313.474 121.223 312.412 116.31 312.412 116.31Z" fill="none" opacity="1" stroke="#e7a300" stroke-linecap="butt" stroke-linejoin="round" stroke-width="1.2"/>
<path d="M363.838 122.243C368.78 121.068 376.592 121.045 377.569 126.135C378.546 131.224 374.945 132.631 369.752 133.906C364.56 135.181 358.679 134.029 357.374 131.292C356.07 128.555 358.896 123.418 363.838 122.243Z" fill="none" opacity="1" stroke="#e7a300" stroke-linecap="butt" stroke-linejoin="round" stroke-width="1.2"/>
<path d="M249.66 32.8251C249.66 32.8251 288.373 31.1574 319.295 43.7182C350.217 56.279 363.666 73.547 363.666 73.547" fill="none" opacity="1" stroke="#000000" stroke-linecap="butt" stroke-linejoin="round" stroke-width="1.2"/>
<path d="M278.235 59.9852C278.235 59.9852 273.422 53.7145 271.078 47.1024C268.733 40.4902 268.632 32.9605 268.632 32.9605C268.632 32.9605 276.368 25.9104 285.823 22.7022C295.279 19.4939 312.46 19.0036 319.256 21.982C327.11 25.4245 335.486 28.4257 345.953 42.7577C356.42 57.0897 363.923 73.5393 363.923 73.5393C363.923 73.5393 361.304 73.1976 357.468 73.9127C353.632 74.6277 350.082 77.7768 350.082 77.7768" fill="none" opacity="1" stroke="#000000" stroke-linecap="butt" stroke-linejoin="round" stroke-width="1.2"/>
<path d="M286.969 35.1386C286.969 35.1386 298.373 41.8926 305.398 51.2931C312.423 60.6936 314.682 73.4098 314.682 73.4098" fill="none" opacity="1" stroke="#000000" stroke-linecap="butt" stroke-linejoin="round" stroke-width="1.2"/>
<path d="M303.355 38.4154C303.355 38.4154 314.798 35.5272 323.912 35.207C333.026 34.8868 341.546 36.9517 341.546 36.9517" fill="none" opacity="1" stroke="#000000" stroke-linecap="butt" stroke-linejoin="round" stroke-width="1.2"/>
<path d="M236.898 45.5645C236.898 45.5645 215.632 57.0116 201.732 75.3895C187.832 93.7674 179.987 123.406 179.987 123.406" fill="none" opacity="1" stroke="#000000" stroke-linecap="butt" stroke-linejoin="round" stroke-width="1.2"/>
<path d="M171.266 80.1592C171.266 80.1592 179.956 68.1218 190.588 63.5868C201.22 59.0518 214.285 61.4725 214.285 61.4725C214.285 61.4725 217.614 63.0851 219.76 65.5413C221.906 67.9974 222.427 71.9661 222.427 71.9661" fill="none" opacity="1" stroke="#000000" stroke-linecap="butt" stroke-linejoin="round" stroke-width="1.2"/>
<path d="M195.517 84.6865C195.517 84.6865 186.046 88.6728 179.919 95.682C173.791 102.691 171.399 113.443 171.399 113.443" fill="none" opacity="1" stroke="#000000" stroke-linecap="butt" stroke-linejoin="round" stroke-width="1.2"/>
<path d="M202.602 74.4986C202.602 74.4986 208.255 79.2976 210.362 87.18C212.47 95.0624 211.163 105.412 211.163 105.412" fill="none" opacity="1" stroke="#000000" stroke-linecap="butt" stroke-linejoin="round" stroke-width="1.2"/>
<path d="M20 22.3172L20.6313 259.684L172.46 260L173.091 22.9493L20 22.3172Z" fill="none" opacity="1" stroke="#ec0014" stroke-linecap="butt" stroke-linejoin="round" stroke-width="1.2"/>
<path d="M289.867 60.8122L289.867 256.242L440 255.786L440 60.1289L289.867 60.8122Z" fill="none" opacity="1" stroke="#ec0014" stroke-linecap="butt" stroke-linejoin="round" stroke-width="1.2"/>
<g fill="#000000" opacity="1" stroke="none">
<path clip-path="url(#TextBounds)" d="M136.822 254.696L135.205 254.696L135.205 242.32L139.035 242.32C139.978 242.32 140.686 242.455 141.157 242.724C141.629 242.994 142.003 243.387 142.28 243.903C142.557 244.42 142.696 244.978 142.696 245.577C142.696 246.056 142.602 246.518 142.415 246.964C142.228 247.409 141.966 247.812 141.629 248.171C141.292 248.53 140.772 248.849 140.068 249.126C140.33 249.275 140.528 249.418 140.663 249.552C140.798 249.687 140.961 249.902 141.152 250.198C141.342 250.494 141.509 250.773 141.651 251.035L143.617 254.696L141.775 254.696L140.068 251.439C139.649 250.653 139.11 249.964 138.451 249.373L136.822 249.373L136.822 254.696ZM136.822 248.137L138.394 248.137C139.053 248.137 139.555 248.036 139.899 247.834C140.244 247.632 140.517 247.334 140.719 246.941C140.921 246.548 141.022 246.131 141.022 245.689C141.022 245.3 140.942 244.952 140.781 244.645C140.62 244.338 140.386 244.081 140.079 243.875C139.772 243.67 139.248 243.567 138.507 243.567L136.822 243.567L136.822 248.137Z"/>
<path clip-path="url(#TextBounds)" d="M150.793 245.79L152.275 245.79L152.275 254.696L150.793 254.696L150.793 253.146C150.486 253.618 150.185 253.973 149.889 254.213C149.593 254.453 149.288 254.634 148.974 254.758C148.659 254.881 148.315 254.943 147.94 254.943C147.117 254.943 146.419 254.711 145.846 254.247C145.273 253.783 144.987 252.847 144.987 251.439L144.987 245.79L146.469 245.79L146.469 250.81C146.469 252.113 146.641 252.901 146.986 253.174C147.33 253.448 147.757 253.584 148.266 253.584C148.708 253.584 149.125 253.455 149.518 253.197C149.911 252.938 150.222 252.575 150.45 252.107C150.679 251.639 150.793 250.994 150.793 250.17L150.793 245.79Z"/>
<path clip-path="url(#TextBounds)" d="M154.072 252.349L155.555 252.349L155.555 252.371C155.555 252.761 155.703 253.081 155.998 253.331C156.294 253.582 156.79 253.708 157.486 253.708C158.093 253.708 158.587 253.558 158.969 253.258C159.351 252.959 159.541 252.607 159.541 252.203C159.541 251.656 159.167 251.271 158.418 251.046L157.666 250.81L157.161 250.653L156.139 250.339C154.963 249.904 154.375 249.189 154.375 248.194C154.375 247.49 154.66 246.872 155.229 246.341C155.798 245.809 156.64 245.543 157.756 245.543C158.864 245.543 159.652 245.77 160.12 246.223C160.588 246.676 160.822 247.179 160.822 247.733L160.822 247.767L159.328 247.767L159.328 247.733C159.328 247.434 159.178 247.2 158.879 247.031C158.579 246.863 158.179 246.778 157.677 246.778C157.086 246.778 156.631 246.902 156.313 247.149C155.995 247.396 155.835 247.699 155.835 248.059C155.835 248.336 155.938 248.56 156.144 248.733C156.35 248.905 156.696 249.062 157.183 249.204L157.891 249.406L158.418 249.552C159.137 249.762 159.586 249.908 159.766 249.99C159.946 250.073 160.125 250.181 160.305 250.316C160.552 250.511 160.736 250.743 160.855 251.012C160.975 251.282 161.035 251.596 161.035 251.956C161.035 252.802 160.734 253.511 160.131 254.084C159.528 254.657 158.647 254.943 157.486 254.943C156.753 254.943 156.144 254.834 155.661 254.617C155.178 254.4 154.793 254.099 154.505 253.713C154.216 253.328 154.072 252.88 154.072 252.371L154.072 252.349Z"/>
<path clip-path="url(#TextBounds)" d="M168.391 253.438L168.391 254.685C167.672 254.857 167.122 254.943 166.74 254.943C166.186 254.943 165.686 254.831 165.241 254.606C164.795 254.382 164.457 254.058 164.225 253.635C163.992 253.212 163.876 252.536 163.876 251.608L163.876 247.026L162.338 247.026L162.338 245.79L163.876 245.79L163.876 243.679L165.37 243.679L165.37 245.79L167.964 245.79L167.964 247.026L165.37 247.026L165.37 251.181C165.37 251.967 165.43 252.514 165.55 252.82C165.67 253.127 165.86 253.352 166.123 253.494C166.385 253.637 166.699 253.708 167.066 253.708C167.358 253.708 167.8 253.618 168.391 253.438Z"/>
</g>
<g fill="#000000" opacity="1" stroke="none">
<path clip-path="url(#TextBounds_2)" d="M404.04 250.912L402.423 250.912L402.423 238.536L406.253 238.536C407.196 238.536 407.904 238.671 408.375 238.941C408.847 239.21 409.221 239.603 409.498 240.12C409.775 240.636 409.914 241.194 409.914 241.793C409.914 242.272 409.82 242.735 409.633 243.18C409.446 243.626 409.184 244.028 408.847 244.387C408.51 244.747 407.99 245.065 407.286 245.342C407.548 245.492 407.746 245.634 407.881 245.769C408.016 245.904 408.179 246.119 408.37 246.415C408.56 246.71 408.727 246.989 408.869 247.251L410.835 250.912L408.993 250.912L407.286 247.655C406.867 246.869 406.328 246.181 405.669 245.589L404.04 245.589L404.04 250.912ZM404.04 244.354L405.612 244.354C406.271 244.354 406.773 244.253 407.117 244.051C407.462 243.848 407.735 243.551 407.937 243.158C408.139 242.765 408.24 242.347 408.24 241.905C408.24 241.516 408.16 241.168 407.999 240.861C407.838 240.554 407.604 240.298 407.297 240.092C406.99 239.886 406.466 239.783 405.725 239.783L404.04 239.783L404.04 244.354Z"/>
<path clip-path="url(#TextBounds_2)" d="M418.011 242.007L419.493 242.007L419.493 250.912L418.011 250.912L418.011 249.363C417.704 249.834 417.403 250.19 417.107 250.429C416.811 250.669 416.506 250.851 416.192 250.974C415.877 251.098 415.533 251.159 415.158 251.159C414.335 251.159 413.637 250.927 413.064 250.463C412.491 249.999 412.205 249.063 412.205 247.655L412.205 242.007L413.687 242.007L413.687 247.027C413.687 248.329 413.859 249.117 414.204 249.391C414.548 249.664 414.975 249.801 415.484 249.801C415.926 249.801 416.343 249.671 416.736 249.413C417.129 249.155 417.44 248.792 417.668 248.324C417.897 247.856 418.011 247.21 418.011 246.386L418.011 242.007Z"/>
<path clip-path="url(#TextBounds_2)" d="M421.29 248.565L422.773 248.565L422.773 248.588C422.773 248.977 422.921 249.297 423.216 249.548C423.512 249.799 424.008 249.924 424.704 249.924C425.311 249.924 425.805 249.774 426.187 249.475C426.569 249.175 426.759 248.823 426.759 248.419C426.759 247.873 426.385 247.487 425.636 247.262L424.884 247.027L424.379 246.869L423.357 246.555C422.181 246.121 421.593 245.406 421.593 244.41C421.593 243.706 421.878 243.088 422.447 242.557C423.016 242.025 423.858 241.759 424.974 241.759C426.082 241.759 426.87 241.986 427.338 242.439C427.806 242.892 428.04 243.395 428.04 243.949L428.04 243.983L426.546 243.983L426.546 243.949C426.546 243.65 426.396 243.416 426.097 243.248C425.797 243.079 425.397 242.995 424.895 242.995C424.304 242.995 423.849 243.118 423.531 243.365C423.213 243.613 423.053 243.916 423.053 244.275C423.053 244.552 423.156 244.777 423.362 244.949C423.568 245.121 423.914 245.278 424.401 245.421L425.109 245.623L425.636 245.769C426.355 245.978 426.804 246.124 426.984 246.207C427.164 246.289 427.343 246.398 427.523 246.532C427.77 246.727 427.954 246.959 428.073 247.229C428.193 247.498 428.253 247.813 428.253 248.172C428.253 249.018 427.952 249.728 427.349 250.3C426.746 250.873 425.865 251.159 424.704 251.159C423.971 251.159 423.362 251.051 422.879 250.834C422.396 250.617 422.011 250.315 421.723 249.93C421.434 249.544 421.29 249.097 421.29 248.588L421.29 248.565Z"/>
<path clip-path="url(#TextBounds_2)" d="M435.609 249.655L435.609 250.901C434.89 251.073 434.34 251.159 433.958 251.159C433.404 251.159 432.904 251.047 432.459 250.822C432.013 250.598 431.675 250.274 431.443 249.851C431.21 249.428 431.094 248.752 431.094 247.824L431.094 243.242L429.556 243.242L429.556 242.007L431.094 242.007L431.094 239.895L432.588 239.895L432.588 242.007L435.182 242.007L435.182 243.242L432.588 243.242L432.588 247.397C432.588 248.183 432.648 248.73 432.768 249.037C432.888 249.344 433.078 249.568 433.341 249.711C433.603 249.853 433.917 249.924 434.284 249.924C434.576 249.924 435.018 249.834 435.609 249.655Z"/>
</g>
</g>
</svg>
