<?xml version="1.0" encoding="UTF-8" standalone="no"?>
<!DOCTYPE svg PUBLIC "-//W3C//DTD SVG 1.1//EN" "http://www.w3.org/Graphics/SVG/1.1/DTD/svg11.dtd">
<!-- Created with Vectornator (http://vectornator.io/) -->
<svg height="100%" stroke-miterlimit="10" style="fill-rule:nonzero;clip-rule:evenodd;stroke-linecap:round;stroke-linejoin:round;" version="1.1" viewBox="0 0 800 800" width="100%" xml:space="preserve" xmlns="http://www.w3.org/2000/svg" xmlns:vectornator="http://vectornator.io" xmlns:xlink="http://www.w3.org/1999/xlink">
<defs/>
<g id="Layer-1" vectornator:layerName="Layer 1">
<path d="M358.772 462.722C358.772 462.722 351.236 447.533 342.374 437.656C333.512 427.78 319.377 421.439 319.377 421.439C319.377 421.439 302.542 435.156 285.26 432.433C264.951 429.232 251.048 409.994 251.048 409.994C251.048 409.994 227.833 411.177 212.425 394.232C196.013 376.183 196.477 353.602 196.477 353.602C196.477 353.602 167.354 342.119 160.853 311.076C155.934 287.584 173.897 267.469 173.897 267.469C173.897 267.469 146.514 229.269 184.054 199.301C218.055 172.158 248.214 206.173 248.214 206.173C248.214 206.173 273.106 189.419 302.552 205C322.044 215.313 327.52 245.111 327.52 245.111C327.52 245.111 352.15 252.044 363.155 268.499C375.825 287.443 371.3 311.476 371.3 311.476C371.3 311.476 386.817 329.978 385.676 347.329C384.535 364.68 370.292 377.249 370.292 377.249C370.292 377.249 364.823 381.078 366.952 390.627C369.08 400.177 376.968 422.361 376.968 422.361L392.76 462.807" fill="none" opacity="1" stroke="#000000" stroke-linecap="butt" stroke-linejoin="round" stroke-width="1.57"/>
<path d="M320.643 225.453C320.643 225.453 315.995 186.493 330.491 167.151C349.836 141.339 370.617 142.46 370.617 142.46C370.617 142.46 377.723 96.3533 423.053 100.232C466.099 103.915 466.515 150.696 466.515 150.696C466.515 150.696 486.338 158.051 496.161 170.481C505.983 182.911 505.969 200.452 505.969 200.452" fill="none" opacity="1" stroke="#000000" stroke-linecap="butt" stroke-linejoin="round" stroke-width="1.57"/>
<path d="M375.753 371.409L382.389 436.483" fill="none" opacity="1" stroke="#000000" stroke-linecap="butt" stroke-linejoin="round" stroke-width="1.57"/>
<path d="M424.627 372.468C424.627 372.468 417.042 384.793 414.832 401.436C412.623 418.078 414.92 443.645 414.92 443.645" fill="none" opacity="1" stroke="#000000" stroke-linecap="butt" stroke-linejoin="round" stroke-width="1.57"/>
<path d="M406.156 462.951C406.156 462.951 417.545 439.516 425.364 417.414C435.249 389.474 433.588 381.731 433.588 381.731C433.588 381.731 414.791 368.609 414.949 344.991C415.106 321.34 429.035 312.296 429.035 312.296C429.035 312.296 421.728 287.268 440.316 263.91C454.202 246.462 472.648 245.858 472.648 245.858C472.648 245.858 475.425 214.286 503.914 202.339C530.419 191.225 551.311 206.085 551.311 206.085C551.311 206.085 582.74 169.181 621.861 203.441C649.622 227.752 626.39 266.731 626.39 266.731C626.39 266.731 643.606 287.988 639.312 309.788C631.91 347.377 603.6 353.454 603.6 353.454C603.6 353.454 606.38 375.851 587.035 394.491C568.688 412.169 549.852 409.48 549.852 409.48C549.852 409.48 540.299 427.131 519.874 431.521C496.323 436.583 485.526 422.49 481.774 420.873C478.97 419.664 472.466 421.535 458.222 436.265C449.276 445.517 443.383 462.846 443.383 462.846" fill="none" opacity="1" stroke="#000000" stroke-linecap="butt" stroke-linejoin="round" stroke-width="1.57"/>
<path d="M317.849 488.887C317.849 488.887 307.925 488.133 307.556 476.167C307.205 464.762 317.872 463.038 317.872 463.038L481.419 463.002C481.419 463.002 493.04 464.15 492.929 474.747C492.801 486.986 482.929 488.748 482.929 488.748" fill="none" opacity="1" stroke="#000000" stroke-linecap="butt" stroke-linejoin="round" stroke-width="1.57"/>
<path d="M203.584 488.837L579.894 488.95" fill="none" opacity="1" stroke="#000000" stroke-linecap="butt" stroke-linejoin="round" stroke-width="1.57"/>
<path d="M319.575 488.959L334.757 567.712C334.757 567.712 336.43 571.838 340.355 575.061C343.716 577.821 348.547 578.495 348.547 578.495L447.453 578.512C447.453 578.512 453.675 578.753 458.178 573.656C461.674 569.699 462.156 566.547 462.156 566.547L478.629 488.903" fill="none" opacity="1" stroke="#000000" stroke-linecap="butt" stroke-linejoin="round" stroke-width="1.57"/>
<path d="M358.498 511.158L363.704 557.309" fill="none" opacity="1" stroke="#000000" stroke-linecap="butt" stroke-linejoin="round" stroke-width="1.57"/>
<path d="M398.511 509.963L398.72 554.405" fill="none" opacity="1" stroke="#000000" stroke-linecap="butt" stroke-linejoin="round" stroke-width="1.57"/>
<path d="M440.083 510.893L434.447 557.353" fill="none" opacity="1" stroke="#000000" stroke-linecap="butt" stroke-linejoin="round" stroke-width="1.57"/>
<path d="M346.888 577.803C346.888 577.803 333.314 583.714 331.724 596.335C330.071 609.462 336.792 625.572 336.792 625.572C336.792 625.572 340.318 639.872 340.163 648.519C340.147 649.416 340.091 650.253 339.988 651.006C338.046 665.157 324.424 669.906 324.424 669.906C324.424 669.906 311.355 675.306 307.315 682.233C303.275 689.161 307.859 698.576 307.859 698.576" fill="none" opacity="1" stroke="#000000" stroke-linecap="butt" stroke-linejoin="round" stroke-width="1.57"/>
<path d="M379.18 578.751C379.18 578.751 368.525 590.546 369.874 607.69C371.189 624.407 378.551 633.607 379.584 643.761C380.798 655.693 381.472 660.631 378.371 673.523C375.269 686.415 366.907 696.702 366.907 696.702" fill="none" opacity="1" stroke="#000000" stroke-linecap="butt" stroke-linejoin="round" stroke-width="1.57"/>
<path d="M421.662 578.339C421.662 578.339 428.986 594.119 426.547 609.937C424.632 622.356 418.286 639.305 418.286 639.305C418.286 639.305 414.582 656.928 417.616 669.957C420.651 682.986 430.293 696.153 430.293 696.153" fill="none" opacity="1" stroke="#000000" stroke-linecap="butt" stroke-linejoin="round" stroke-width="1.57"/>
<path d="M452.787 577.633C452.787 577.633 464.511 586.323 465.719 598.818C466.927 611.313 458.92 626.218 458.92 626.218C458.92 626.218 452.802 644.083 456.579 655.087C460.355 666.091 472.953 671.217 472.953 671.217C472.953 671.217 484.541 678.619 488.494 685.554C492.446 692.49 487.957 699.311 487.957 699.311" fill="none" opacity="1" stroke="#000000" stroke-linecap="butt" stroke-linejoin="round" stroke-width="1.57"/>
<path d="M331.59 598.284L339.723 603.876" fill="none" opacity="1" stroke="#000000" stroke-linecap="butt" stroke-linejoin="round" stroke-width="1.57"/>
<path d="M337.049 625.614L323.899 632.663" fill="none" opacity="1" stroke="#000000" stroke-linecap="butt" stroke-linejoin="round" stroke-width="1.57"/>
<path d="M339.66 652.817L348.518 664.595" fill="none" opacity="1" stroke="#000000" stroke-linecap="butt" stroke-linejoin="round" stroke-width="1.57"/>
<path d="M331.196 666.11L332.9 681.879" fill="none" opacity="1" stroke="#000000" stroke-linecap="butt" stroke-linejoin="round" stroke-width="1.57"/>
<path d="M323.634 669.926L314.6 663.822" fill="none" opacity="1" stroke="#000000" stroke-linecap="butt" stroke-linejoin="round" stroke-width="1.57"/>
<path d="M371.292 593.306L383.84 608.329" fill="none" opacity="1" stroke="#000000" stroke-linecap="butt" stroke-linejoin="round" stroke-width="1.57"/>
<path d="M370.22 609.813L361.612 617.898" fill="none" opacity="1" stroke="#000000" stroke-linecap="butt" stroke-linejoin="round" stroke-width="1.57"/>
<path d="M378.846 640.283L391.623 649.76" fill="none" opacity="1" stroke="#000000" stroke-linecap="butt" stroke-linejoin="round" stroke-width="1.57"/>
<path d="M380.072 661.337L366.601 667.495" fill="none" opacity="1" stroke="#000000" stroke-linecap="butt" stroke-linejoin="round" stroke-width="1.57"/>
<path d="M375.162 682.794L380.998 703.239" fill="none" opacity="1" stroke="#000000" stroke-linecap="butt" stroke-linejoin="round" stroke-width="1.57"/>
<path d="M425.664 592.33L413.848 606.181" fill="none" opacity="1" stroke="#000000" stroke-linecap="butt" stroke-linejoin="round" stroke-width="1.57"/>
<path d="M426.914 607.856L436.766 617.446" fill="none" opacity="1" stroke="#000000" stroke-linecap="butt" stroke-linejoin="round" stroke-width="1.57"/>
<path d="M418.432 638.982L405.618 646.403" fill="none" opacity="1" stroke="#000000" stroke-linecap="butt" stroke-linejoin="round" stroke-width="1.57"/>
<path d="M416.563 661.13L429.532 666.146" fill="none" opacity="1" stroke="#000000" stroke-linecap="butt" stroke-linejoin="round" stroke-width="1.57"/>
<path d="M422.188 682.985L413.594 701.98" fill="none" opacity="1" stroke="#000000" stroke-linecap="butt" stroke-linejoin="round" stroke-width="1.57"/>
<path d="M465.727 598.744L451.121 604.909" fill="none" opacity="1" stroke="#000000" stroke-linecap="butt" stroke-linejoin="round" stroke-width="1.57"/>
<path d="M458.868 626.389L471.716 632.466" fill="none" opacity="1" stroke="#000000" stroke-linecap="butt" stroke-linejoin="round" stroke-width="1.57"/>
<path d="M456.073 653.964L448.521 666.129" fill="none" opacity="1" stroke="#000000" stroke-linecap="butt" stroke-linejoin="round" stroke-width="1.57"/>
<path d="M463.492 665.339L463.016 684.016" fill="none" opacity="1" stroke="#000000" stroke-linecap="butt" stroke-linejoin="round" stroke-width="1.57"/>
<path d="M471.807 670.379L479.687 664.986" fill="none" opacity="1" stroke="#000000" stroke-linecap="butt" stroke-linejoin="round" stroke-width="1.57"/>
<path d="M505.924 598.192L521.529 598.136" fill="none" opacity="1" stroke="#000000" stroke-linecap="butt" stroke-linejoin="round" stroke-width="1.57"/>
<path d="M483.791 616.984L499.344 617.079" fill="none" opacity="1" stroke="#000000" stroke-linecap="butt" stroke-linejoin="round" stroke-width="1.57"/>
<path d="M508.895 632.864L518.433 632.927" fill="none" opacity="1" stroke="#000000" stroke-linecap="butt" stroke-linejoin="round" stroke-width="1.57"/>
<path d="M483.65 650.27L499.508 650.376" fill="none" opacity="1" stroke="#000000" stroke-linecap="butt" stroke-linejoin="round" stroke-width="1.57"/>
<path d="M293.722 600.5L310.916 600.493" fill="none" opacity="1" stroke="#000000" stroke-linecap="butt" stroke-linejoin="round" stroke-width="1.57"/>
<path d="M264.881 618.895L279.29 618.732" fill="none" opacity="1" stroke="#000000" stroke-linecap="butt" stroke-linejoin="round" stroke-width="1.57"/>
<path d="M300.614 625.807L308.962 625.82" fill="none" opacity="1" stroke="#000000" stroke-linecap="butt" stroke-linejoin="round" stroke-width="1.57"/>
<path d="M284.449 652.692L298.794 652.586" fill="none" opacity="1" stroke="#000000" stroke-linecap="butt" stroke-linejoin="round" stroke-width="1.57"/>
<path d="M233.922 265.081C233.922 265.081 264.628 294.988 288.156 325.933C311.684 356.878 328.032 388.861 328.032 388.861" fill="none" opacity="1" stroke="#000000" stroke-linecap="butt" stroke-linejoin="round" stroke-width="1.57"/>
<path d="M413.712 166.682C413.712 166.682 408.895 201.667 405.758 239.18C402.62 276.692 401.163 316.732 401.163 316.732" fill="none" opacity="1" stroke="#000000" stroke-linecap="butt" stroke-linejoin="round" stroke-width="1.57"/>
<path d="M572.538 256.282C572.538 256.282 544.936 280.615 522.73 310.493C500.524 340.37 480.221 376.746 480.221 376.746" fill="none" opacity="1" stroke="#000000" stroke-linecap="butt" stroke-linejoin="round" stroke-width="1.57"/>
<path d="M209.448 297.523L246.169 300.747" fill="none" opacity="1" stroke="#000000" stroke-linecap="butt" stroke-linejoin="round" stroke-width="1.57"/>
<path d="M273.974 245.463L276.294 280.212" fill="none" opacity="1" stroke="#000000" stroke-linecap="butt" stroke-linejoin="round" stroke-width="1.57"/>
<path d="M232.387 351.639L284.377 353.049" fill="none" opacity="1" stroke="#000000" stroke-linecap="butt" stroke-linejoin="round" stroke-width="1.57"/>
<path d="M323.773 291.22L315.796 338.373" fill="none" opacity="1" stroke="#000000" stroke-linecap="butt" stroke-linejoin="round" stroke-width="1.57"/>
<path d="M365.093 188.106L386.815 212.25" fill="none" opacity="1" stroke="#000000" stroke-linecap="butt" stroke-linejoin="round" stroke-width="1.57"/>
<path d="M461.317 187.809L435.332 211.802" fill="none" opacity="1" stroke="#000000" stroke-linecap="butt" stroke-linejoin="round" stroke-width="1.57"/>
<path d="M484.062 281.697L491.392 327.83" fill="none" opacity="1" stroke="#000000" stroke-linecap="butt" stroke-linejoin="round" stroke-width="1.57"/>
<path d="M533.898 236.389L531.668 269.812" fill="none" opacity="1" stroke="#000000" stroke-linecap="butt" stroke-linejoin="round" stroke-width="1.57"/>
<path d="M598.667 287.41L561.197 291.455" fill="none" opacity="1" stroke="#000000" stroke-linecap="butt" stroke-linejoin="round" stroke-width="1.57"/>
<path d="M574.292 341.953L523.365 343.895" fill="none" opacity="1" stroke="#000000" stroke-linecap="butt" stroke-linejoin="round" stroke-width="1.57"/>
</g>
</svg>
