<?xml version="1.0" encoding="UTF-8" standalone="no"?>
<!DOCTYPE svg PUBLIC "-//W3C//DTD SVG 1.1//EN" "http://www.w3.org/Graphics/SVG/1.1/DTD/svg11.dtd">
<!-- Created with Vectornator (http://vectornator.io/) -->
<svg height="100%" stroke-miterlimit="10" style="fill-rule:nonzero;clip-rule:evenodd;stroke-linecap:round;stroke-linejoin:round;" version="1.1" viewBox="0 0 660 400" width="100%" xml:space="preserve" xmlns="http://www.w3.org/2000/svg" xmlns:vectornator="http://vectornator.io" xmlns:xlink="http://www.w3.org/1999/xlink">
<defs/>
<g id="Layer-1" vectornator:layerName="Layer 1">
<path d="M190.144 187.516L278.98 136.853C278.98 136.853 281.339 135.742 282.977 135.942C284.614 136.142 286.364 137.163 286.364 137.163L370.251 187.242C370.251 187.242 374.082 190.271 375.864 194.014C377.647 197.756 377.379 202.212 377.379 202.212L377.29 219.321L287.331 269.279" fill="none" opacity="1" stroke="#000000" stroke-linecap="butt" stroke-linejoin="round" stroke-width="1.57342"/>
<path d="M203.326 343.739C203.326 343.739 203.712 348.385 208.224 352.125C212.736 355.865 222.055 358.653 222.055 358.653" fill="none" opacity="1" stroke="#000000" stroke-linecap="butt" stroke-linejoin="round" stroke-width="1.57342"/>
<path d="M213.159 335.55C213.159 335.55 211.571 344.573 213.971 351.457C218.39 364.129 234.045 356.59 234.045 356.59" fill="none" opacity="1" stroke="#000000" stroke-linecap="butt" stroke-linejoin="round" stroke-width="1.57342"/>
<path d="M154.088 308.259L159.727 305.029" fill="none" opacity="1" stroke="#000000" stroke-linecap="butt" stroke-linejoin="round" stroke-width="1.57342"/>
<path d="M315.177 74.4138C315.177 74.4138 321.732 82.8258 322.87 93.0843C323.725 100.788 322.325 107.023 322.325 107.023" fill="none" opacity="1" stroke="#000000" stroke-linecap="butt" stroke-linejoin="round" stroke-width="1.57342"/>
<path d="M252.707 124.785L269.952 135.516" fill="none" opacity="1" stroke="#000000" stroke-linecap="butt" stroke-linejoin="round" stroke-width="1.57342"/>
<path d="M308.255 90.2317L320.425 99.4748" fill="none" opacity="1" stroke="#000000" stroke-linecap="butt" stroke-linejoin="round" stroke-width="1.57342"/>
<path d="M229.757 158.946C229.757 158.946 223.299 116.265 263.418 75.362C285.672 52.6733 308.632 56.6528 308.632 56.6528" fill="none" opacity="1" stroke="#000000" stroke-linecap="butt" stroke-linejoin="round" stroke-width="1.57342"/>
<path d="M224.899 161.398C224.899 161.398 215.739 122.306 246.511 83.1146C272.723 49.7311 302.846 53.24 302.846 53.24" fill="none" opacity="1" stroke="#000000" stroke-linecap="butt" stroke-linejoin="round" stroke-width="1.57342"/>
<path d="M221.437 163.717C221.437 163.717 204.546 126.36 237.822 82.2899C265.978 44.9997 296.111 49.0488 296.111 49.0488" fill="none" opacity="1" stroke="#000000" stroke-linecap="butt" stroke-linejoin="round" stroke-width="1.57342"/>
<path d="M557.737 175.151C557.737 175.151 558.676 188.859 557.951 191.437C556.744 195.721 554.7 199.163 550.641 204.58C546.583 209.996 541.717 213.101 541.717 213.101" fill="none" opacity="1" stroke="#000000" stroke-linecap="butt" stroke-linejoin="round" stroke-width="1.57342"/>
<path d="M477.652 263.984L465.252 288.784C465.252 288.784 461.043 289.267 457.971 288.329C454.9 287.39 452.226 285.03 452.226 285.03" fill="none" opacity="1" stroke="#000000" stroke-linecap="butt" stroke-linejoin="round" stroke-width="1.57342"/>
<path d="M452.948 240.083L468.444 248.945" fill="none" opacity="1" stroke="#000000" stroke-linecap="butt" stroke-linejoin="round" stroke-width="1.57342"/>
<path d="M473.407 235.051C473.407 235.051 470.893 237.332 469.665 240.752C468.437 244.172 469.004 248.965 469.004 248.965L448.928 253.614" fill="none" opacity="1" stroke="#000000" stroke-linecap="butt" stroke-linejoin="round" stroke-width="1.57342"/>
<path d="M478.928 212.799L492.291 219.803" fill="none" opacity="1" stroke="#000000" stroke-linecap="butt" stroke-linejoin="round" stroke-width="1.57342"/>
<path d="M482.405 224.66C482.405 224.66 485.01 222.121 487.642 221.01C490.274 219.899 492.932 220.216 492.932 220.216L496.476 194.824" fill="none" opacity="1" stroke="#000000" stroke-linecap="butt" stroke-linejoin="round" stroke-width="1.57342"/>
<path d="M499.748 249.438L508.927 255.425C508.927 255.425 505.156 261.576 500.354 267.093C495.552 272.611 489.718 277.495 489.718 277.495" fill="none" opacity="1" stroke="#000000" stroke-linecap="butt" stroke-linejoin="round" stroke-width="1.57342"/>
<path d="M507.507 215.6L519.216 223.069" fill="none" opacity="1" stroke="#000000" stroke-linecap="butt" stroke-linejoin="round" stroke-width="1.57342"/>
<path d="M516.557 201.039C516.557 201.039 518.283 206.523 518.974 211.875C519.666 217.228 519.218 223.006 519.218 223.006L503.852 233.724" fill="none" opacity="1" stroke="#000000" stroke-linecap="butt" stroke-linejoin="round" stroke-width="1.57342"/>
<path d="M492.85 238.73L489.332 229.267" fill="none" opacity="1" stroke="#000000" stroke-linecap="butt" stroke-linejoin="round" stroke-width="1.57342"/>
<path d="M100 234.875L100.07 247.552C100.07 247.552 100.221 250.388 102.173 252.533C103.171 253.631 106.931 257.377 106.931 257.377C106.931 257.377 125.259 277.317 157.072 295.044C188.885 312.772 234.185 328.288 234.185 328.288C234.185 328.288 240.75 330.147 247.24 329.806C253.729 329.464 260.142 326.922 260.142 326.922L400.212 248.817C400.212 248.817 401.529 212.773 425.637 184.646C450.309 155.862 479.228 157.833 479.228 157.833L523.979 183.122C523.979 183.122 558.034 200.067 530.119 256.888C499.903 318.392 460.238 308.806 460.238 308.806L409.914 278.157C409.914 278.157 405.694 273.247 402.369 265.326C399.64 258.826 400.221 248.904 400.221 248.904" fill="none" opacity="1" stroke="#000000" stroke-linecap="butt" stroke-linejoin="round" stroke-width="1.57342"/>
<path d="M401.622 238.189L259.812 317.852C259.812 317.852 252.982 320.899 246.709 321.371C240.436 321.843 233.604 319.37 233.604 319.37C233.604 319.37 191.325 304.837 159.699 286.72C128.074 268.602 107.103 246.9 107.103 246.9C107.103 246.9 100.183 240.34 100.012 235.685C99.8407 231.03 106.004 227.785 106.004 227.785C106.004 227.785 337.779 99.8117 344.149 93.9639C345.902 92.3539 336.869 89.442 336.869 89.442" fill="none" opacity="1" stroke="#000000" stroke-linecap="butt" stroke-linejoin="round" stroke-width="1.57342"/>
<path d="M445.33 299.803C445.33 299.803 422.565 259.493 456.647 214.583C490.851 169.513 519.036 180.102 519.036 180.102" fill="none" opacity="1" stroke="#000000" stroke-linecap="butt" stroke-linejoin="round" stroke-width="1.57342"/>
<path d="M478.345 255.821C478.345 255.821 473.022 247.928 479.999 237.211C484.134 230.86 488.487 229.104 491.778 228.92C494.991 228.739 497.888 230.221 498.67 233.825C499.444 237.395 498.61 243.197 495.742 248.162C491.719 255.126 487.375 258.069 483.62 258.038C480.526 258.012 478.345 255.821 478.345 255.821Z" fill="none" opacity="1" stroke="#000000" stroke-linecap="butt" stroke-linejoin="round" stroke-width="1.57342"/>
<path d="M484.645 248.448C484.645 248.448 482.426 245.146 485.334 240.662C487.057 238.005 488.871 237.27 490.243 237.193C491.582 237.117 492.789 237.737 493.115 239.245C493.3 240.104 493.264 241.271 492.973 242.503C492.758 243.414 492.403 244.361 491.895 245.244C490.218 248.157 488.408 249.389 486.843 249.376C485.554 249.365 484.645 248.448 484.645 248.448Z" fill="none" opacity="1" stroke="#000000" stroke-linecap="butt" stroke-linejoin="round" stroke-width="1.57342"/>
<path d="M487.637 249.327L476.783 250.989" fill="none" opacity="1" stroke="#000000" stroke-linecap="butt" stroke-linejoin="round" stroke-width="1.57342"/>
<path d="M522.233 225.048L503.26 237.761C503.26 237.761 503.73 233.755 502.918 230.649C502.106 227.543 500.493 225.073 500.493 225.073L518.433 197.857C518.433 197.857 530.394 228.496 512.12 257.034C502.498 272.061 492.52 280.866 483.877 286.012C469.994 294.276 459.553 293.1 459.553 293.1C459.553 293.1 453.034 289.448 449.321 278.66C444.891 265.79 445.526 245.301 463.977 221.53C494.837 181.77 517.1 194.086 517.1 194.086C517.1 194.086 545.183 208.398 518.356 259.246C492.696 307.882 459.771 293.193 459.771 293.193" fill="none" opacity="1" stroke="#000000" stroke-linecap="butt" stroke-linejoin="round" stroke-width="1.57342"/>
<path d="M489.452 282.352L489.112 260.343C489.112 260.343 492.394 258.357 495.072 255.149C497.751 251.942 499.586 247.802 499.586 247.802L513.423 254.593" fill="none" opacity="1" stroke="#000000" stroke-linecap="butt" stroke-linejoin="round" stroke-width="1.57342"/>
<path d="M477.254 207.514L482.853 227.723C482.853 227.723 485.729 225.052 488.826 223.929C491.923 222.806 495.243 223.233 495.243 223.233L500.307 193.717" fill="none" opacity="1" stroke="#000000" stroke-linecap="butt" stroke-linejoin="round" stroke-width="1.57342"/>
<path d="M459.649 228.384L475.798 236.022C475.798 236.022 473.656 239.246 472.422 242.992C471.188 246.737 471.735 251.414 471.735 251.414L448.098 257.646" fill="none" opacity="1" stroke="#000000" stroke-linecap="butt" stroke-linejoin="round" stroke-width="1.57342"/>
<path d="M450.743 279.088L472.704 259.711C472.704 259.711 474.377 261.799 476.566 263.019C478.755 264.239 481.633 263.453 481.633 263.453L467.142 292.625" fill="none" opacity="1" stroke="#000000" stroke-linecap="butt" stroke-linejoin="round" stroke-width="1.57342"/>
<path d="M464.683 288.67L450.171 279.12" fill="none" opacity="1" stroke="#000000" stroke-linecap="butt" stroke-linejoin="round" stroke-width="1.57342"/>
<path d="M488.047 162.969C488.047 162.969 454.238 157.971 424.124 206.425C398.433 247.762 416.639 282.313 416.639 282.313" fill="none" opacity="1" stroke="#000000" stroke-linecap="butt" stroke-linejoin="round" stroke-width="1.57342"/>
<path d="M494.895 167.109C494.895 167.109 471.482 163.649 446.269 190.41C441.184 195.807 436.026 202.434 430.972 210.566C405.281 251.903 423.487 286.453 423.487 286.453" fill="none" opacity="1" stroke="#000000" stroke-linecap="butt" stroke-linejoin="round" stroke-width="1.57342"/>
<path d="M502.061 170.772C502.061 170.772 468.252 165.775 438.138 214.229C412.448 255.565 430.653 290.116 430.653 290.116" fill="none" opacity="1" stroke="#000000" stroke-linecap="butt" stroke-linejoin="round" stroke-width="1.57342"/>
<path d="M509.068 174.913C509.068 174.913 474.843 169.916 444.359 218.369C418.353 259.706 436.782 294.257 436.782 294.257" fill="none" opacity="1" stroke="#000000" stroke-linecap="butt" stroke-linejoin="round" stroke-width="1.57342"/>
<path d="M322.65 64.1336C322.65 64.1336 351.395 57.3483 373.516 59.9479C399.207 62.967 449.053 85.8375 471.96 98.9848C494.867 112.132 551.623 142.327 557.261 171.86C558.285 177.226 556.154 187.421 551.725 193.789C546.737 200.961 539.953 205.937 539.953 205.937" fill="none" opacity="1" stroke="#000000" stroke-linecap="butt" stroke-linejoin="round" stroke-width="1.57342"/>
<path d="M236.853 155.115C236.853 155.115 237.947 98.1409 278.51 73.3957C339.739 36.0438 337.227 98.4635 337.227 98.4635" fill="none" opacity="1" stroke="#000000" stroke-linecap="butt" stroke-linejoin="round" stroke-width="1.57342"/>
<path d="M217.147 165.462C217.147 165.462 182.419 136.653 213.801 86.3159C244.817 36.566 280.74 40.0527 280.74 40.0527L318.795 62.5614" fill="none" opacity="1" stroke="#000000" stroke-linecap="butt" stroke-linejoin="round" stroke-width="1.57342"/>
<path d="M217.764 165.21C217.764 165.21 195.541 130.88 227.108 85.4256C260.671 37.0974 289.499 45.3917 289.499 45.3917" fill="none" opacity="1" stroke="#000000" stroke-linecap="butt" stroke-linejoin="round" stroke-width="1.57342"/>
<path d="M246.77 149.582C246.77 149.582 251.06 92.6576 295.35 74.4786C334.918 58.2383 334.429 100.002 334.429 100.002" fill="none" opacity="1" stroke="#000000" stroke-linecap="butt" stroke-linejoin="round" stroke-width="1.57342"/>
<path d="M300.203 104.564C300.203 104.564 301.867 106.448 302.619 108.729C303.371 111.009 303.168 113.844 303.168 113.844L320.29 99.6719C320.29 99.6719 321.007 91.9694 318.488 85.7208C316.523 80.8462 313.764 78.8141 313.764 78.8141L300.203 104.564Z" fill="none" opacity="1" stroke="#000000" stroke-linecap="butt" stroke-linejoin="round" stroke-width="1.57342"/>
<path d="M272.525 90.4259L280.747 108.9C280.747 108.9 283.71 106.497 286.227 105.19C288.744 103.883 291.346 103.835 291.346 103.835L291.994 75.8509" fill="none" opacity="1" stroke="#000000" stroke-linecap="butt" stroke-linejoin="round" stroke-width="1.57342"/>
<path d="M272.706 90.5659L290.892 103.196" fill="none" opacity="1" stroke="#000000" stroke-linecap="butt" stroke-linejoin="round" stroke-width="1.57342"/>
<path d="M255.131 118.071L271.626 122.561C271.626 122.561 270.402 126.504 270.133 129.262C269.864 132.02 270.2 135.701 270.2 135.701L248.161 143.528" fill="none" opacity="1" stroke="#000000" stroke-linecap="butt" stroke-linejoin="round" stroke-width="1.57342"/>
<path d="M295.761 74.5002L315.067 73.9937C315.067 73.9937 323.813 77.7601 327.279 86.8699C330.111 94.3149 328.235 102.667 328.235 102.667" fill="none" opacity="1" stroke="#000000" stroke-linecap="butt" stroke-linejoin="round" stroke-width="1.57342"/>
<path d="M154.175 308.177L154.126 312.657L203.596 340.629L203.566 335.636L154.175 308.177Z" fill="none" opacity="1" stroke="#000000" stroke-linecap="butt" stroke-linejoin="round" stroke-width="1.57342"/>
<path d="M203.571 335.365L221.597 323.571" fill="none" opacity="1" stroke="#000000" stroke-linecap="butt" stroke-linejoin="round" stroke-width="1.57342"/>
<path d="M203.908 340.498L226.145 325.185" fill="none" opacity="1" stroke="#000000" stroke-linecap="butt" stroke-linejoin="round" stroke-width="1.57342"/>
<path d="M198.727 314.598L198.634 330.687C198.634 330.687 201.013 331.827 203.05 331.844C205.087 331.861 206.782 330.756 206.782 330.756L206.962 318.24" fill="none" opacity="1" stroke="#000000" stroke-linecap="butt" stroke-linejoin="round" stroke-width="1.57342"/>
<path d="M195.581 336.117L195.416 341.406C195.416 341.406 199.285 343.028 202.463 343.208C205.641 343.388 208.896 341.795 208.896 341.795L209.006 337" fill="none" opacity="1" stroke="#000000" stroke-linecap="butt" stroke-linejoin="round" stroke-width="1.57342"/>
<path d="M159.809 296.862L159.809 308.64C159.809 308.64 161.702 310.113 163.404 310.476C165.106 310.839 166.616 310.093 166.616 310.093L166.652 300.119" fill="none" opacity="1" stroke="#000000" stroke-linecap="butt" stroke-linejoin="round" stroke-width="1.57342"/>
<path d="M156.614 314.509C156.614 314.509 155.906 317.937 158.303 319.378C160.7 320.819 166.203 320.272 166.203 320.272" fill="none" opacity="1" stroke="#000000" stroke-linecap="butt" stroke-linejoin="round" stroke-width="1.57342"/>
<path d="M212.388 335.1L230.188 343.666C230.188 343.666 235.134 347.795 238.304 346.15C241.474 344.506 243.333 342.373 244.324 338.808C245.315 335.244 244.222 330.214 244.222 330.214" fill="none" opacity="1" stroke="#000000" stroke-linecap="butt" stroke-linejoin="round" stroke-width="1.57342"/>
<path d="M237.121 341.892C235.76 340.728 235.717 338.186 236.96 336.239C238.203 334.293 240.188 333.913 241.016 334.184C241.961 334.494 243.546 335.96 242.65 338.815C241.235 343.323 237.788 342.462 237.121 341.892Z" fill="none" opacity="1" stroke="#000000" stroke-linecap="butt" stroke-linejoin="round" stroke-width="1.57342"/>
<path d="M220.147 338.775C220.147 338.775 216.528 362.185 233.835 356.697C248.073 352.182 252.033 329.421 252.033 329.421" fill="none" opacity="1" stroke="#000000" stroke-linecap="butt" stroke-linejoin="round" stroke-width="1.57342"/>
<path d="M187.94 209.882L188.479 190.363C188.479 190.363 188.513 187.389 192.524 186.789C194.782 186.451 197.412 188.478 197.412 188.478L279.869 237.092C279.869 237.092 284.066 239.38 285.949 243.803C287.275 246.92 287.265 250.935 287.265 250.935L287.046 269.316L187.94 209.882Z" fill="none" opacity="1" stroke="#000000" stroke-linecap="butt" stroke-linejoin="round" stroke-width="1.57342"/>
<path d="M287.025 251.499L377.413 201.432" fill="none" opacity="1" stroke="#000000" stroke-linecap="butt" stroke-linejoin="round" stroke-width="1.57342"/>
</g>
</svg>
