<?xml version="1.0" encoding="UTF-8" standalone="no"?>
<!DOCTYPE svg PUBLIC "-//W3C//DTD SVG 1.1//EN" "http://www.w3.org/Graphics/SVG/1.1/DTD/svg11.dtd">
<!-- Created with Vectornator (http://vectornator.io/) -->
<svg height="100%" stroke-miterlimit="10" style="fill-rule:nonzero;clip-rule:evenodd;stroke-linecap:round;stroke-linejoin:round;" version="1.1" viewBox="0 0 2880 1800" width="100%" xml:space="preserve" xmlns="http://www.w3.org/2000/svg" xmlns:vectornator="http://vectornator.io" xmlns:xlink="http://www.w3.org/1999/xlink">
<defs/>
<g id="Layer-1" vectornator:layerName="Layer 1">
<path d="M1346.3 472.264C1346.3 472.264 1450.5 586.992 1426.64 712.509C1414.56 776.049 1349.9 742.941 1341.76 739.784C1333.63 736.63 1306.46 728.257 1288.38 732.114C1270.29 735.972 1263.19 743.378 1259.43 747.07C1252.98 753.42 1245.79 772.9 1239.85 777.021C1239.62 777.179 1237.65 773.001 1235.02 769.804C1227.74 760.95 1234.2 762.066 1234.2 762.066C1234.2 762.066 1237.34 762.619 1237.83 763.423C1238.32 764.215 1237.58 764.904 1237.67 766.63C1237.72 767.659 1240.94 770.282 1241.53 771.851C1242.73 775.015 1241.52 776.452 1242.6 779.773C1242.98 780.952 1246.1 782.949 1248.13 785.87C1249.94 788.468 1249.46 789.332 1250.92 792.208C1252.38 795.084 1251.9 795.015 1253.96 797.375C1256.01 799.734 1259.01 799.619 1259.14 801.646C1259.31 804.252 1256.67 805.036 1256.67 805.036C1256.67 805.036 1254.19 804.58 1252.51 805.225C1250.83 805.87 1250.41 807.631 1248.32 807.388C1246.22 807.144 1243.9 805.041 1244.12 804.251C1244.31 803.603 1246.75 802.324 1249.72 802.122C1252.68 801.92 1255.45 802.778 1255.96 803.815C1256.85 805.611 1255.04 806.325 1256.09 808.356C1256.34 808.833 1256.9 809.442 1257.52 810.026C1258.61 811.062 1259.84 811.813 1259.84 811.813C1259.84 811.813 1258.38 812.241 1256.99 811.932C1255.92 811.695 1255.87 810.462 1254.3 810.44C1252.72 810.418 1252.16 810.671 1250.68 811.843C1249.2 813.014 1249.65 813.765 1248.37 815.126C1247.81 815.719 1245.91 815.577 1245.91 815.577C1245.91 815.577 1247.75 816.381 1249.41 816.051C1251.07 815.721 1250.83 814.874 1252.41 814.461C1253.99 814.048 1255.56 814.366 1255.56 814.366C1255.56 814.366 1256.69 814.385 1258.07 816.038C1259.03 817.191 1260.22 816.492 1260.43 817.883C1260.66 819.392 1260.63 820.814 1260.31 823.304C1259.99 825.793 1259.15 827.839 1259.15 827.839C1259.15 827.839 1256.07 828.355 1254.8 826.899C1253.53 825.443 1252.25 821.465 1254.07 822.016C1255.9 822.567 1260.56 826.698 1262.2 829.728C1263.83 832.757 1261.09 833.838 1258.84 833.102C1254.79 831.774 1251.48 830.279 1245.12 830.072C1238.76 829.865 1233.42 832.275 1233.42 832.275C1233.42 832.275 1223.68 836.706 1218.41 834.258C1216.23 833.246 1211.37 829.973 1209.04 824.628C1207.76 821.686 1204.04 818.55 1204.04 818.55C1204.04 818.55 1204.33 822.974 1201.74 823.393C1199.15 823.812 1197.82 820.425 1194.87 820.157C1192.94 819.984 1191.01 819.839 1188.7 818.238C1186.39 816.637 1185.63 813.753 1185.63 813.753C1185.63 813.753 1183.62 809.819 1184.02 808.048C1184.34 806.652 1187.54 803.393 1190.03 803.597C1192.61 803.807 1194.64 807.605 1194.64 807.605C1194.64 807.605 1196.5 811.175 1196.2 812.696C1195.77 814.914 1198.97 813.469 1200.06 814.345C1205.93 819.076 1198.57 815.803 1196.62 816.473C1194.67 817.142 1192.26 817.024 1192.26 817.024C1192.26 817.024 1189.87 815.783 1188.6 813.945C1187.33 812.108 1186.74 810.366 1186.78 808.78C1186.82 807.194 1187.39 806.673 1190.3 806.251C1193.2 805.828 1194.18 805.279 1200.92 805.794C1207.66 806.309 1217.27 808.31 1217.27 808.31C1217.27 808.31 1223.63 809.694 1223.51 813.474C1223.43 815.996 1219.1 819.15 1214.48 816.316C1209.85 813.482 1205.45 808.523 1205.87 802.612C1206.06 799.945 1208.48 793.13 1208.48 793.13C1208.48 793.13 1204.84 793.922 1206.29 792.568C1211.06 788.104 1210.81 783.228 1210.81 783.228C1210.81 783.228 1206.35 782.242 1207.04 780.9C1207.73 779.557 1210.35 781.179 1213.81 778.302C1216.91 775.726 1218.08 774.258 1221.09 773.726C1223.25 773.346 1225.89 773.934 1228.2 773.94C1231.01 773.946 1231.07 772.862 1233.3 773.421C1235.54 773.98 1235.86 774.378 1236.44 776.414C1236.97 778.285 1236.82 780.361 1236.82 780.361C1236.82 780.361 1235.98 781.247 1233.31 777.166C1230.64 773.085 1229.33 763.696 1229.33 763.696C1229.33 763.696 1225.54 764.387 1222.7 763.904C1219.05 763.285 1217.52 761.251 1215.01 760.463C1210.86 759.161 1209.38 759.61 1205.61 761.198C1201.85 762.786 1200.07 766.577 1200.07 766.577C1200.07 766.577 1199.18 769.028 1197.13 770.417C1195.08 771.807 1192.9 771.737 1191.23 771.437C1189.56 771.136 1190.44 769.215 1190.44 769.215C1190.44 769.215 1188.97 770.096 1187.89 771.146C1186.81 772.197 1185.92 773.089 1185.56 773.987C1185.19 774.922 1184.89 772.562 1184.89 772.562C1184.89 772.562 1183.67 773.61 1183.23 776.72C1182.79 779.831 1184.11 785.061 1182.51 787.129C1180.3 789.999 1178.55 792.324 1177.22 794.246C1172.96 800.418 1171.87 804.566 1171.87 804.566C1171.87 804.566 1169.61 809.696 1172.47 813.891C1176.06 819.166 1176.87 819.175 1177.72 822.936C1178.46 826.178 1177.87 829.547 1180.43 832.813C1183.96 837.32 1183.24 839.692 1188.7 843.416C1191.78 845.513 1194.01 844.314 1196.18 845.899C1197.17 846.623 1199.27 851.245 1199.27 851.245C1199.27 851.245 1201.06 841.398 1196.71 830.587C1194.24 824.449 1191.47 823.075 1191.47 823.075C1191.47 823.075 1193.82 830.486 1194.75 835.611C1195.9 841.892 1201.26 859.567 1192.54 870.235C1183.73 881.016 1170.34 874.682 1164.13 882.472C1161.98 885.158 1182.41 877.717 1193.85 883.777C1204.47 889.404 1202.2 888.177 1206.57 889.984C1213.6 892.882 1219.09 885.823 1226.94 888.586C1234.8 891.349 1240.18 900.987 1240.18 900.987C1240.18 900.987 1234.01 887.625 1234.45 876.312C1234.7 869.692 1235.78 866.041 1237.92 861.308C1240.92 854.662 1245.72 853.564 1242.5 848.394C1240.18 844.677 1248.1 843.14 1248.1 843.14C1248.1 843.14 1251.81 842.263 1254.54 840.633C1257.28 839.002 1260.41 837.58 1260.04 836.518C1259.34 834.459 1251.76 834.327 1246.76 836.731C1241.75 839.135 1238.48 832.071 1239.02 846.234C1239.57 860.397 1247.82 878.537 1248.94 893.383C1250.07 908.228 1243.53 905.617 1243.53 905.617C1243.53 905.617 1245.51 900.492 1240.92 891.519C1237.41 884.636 1255.56 877.137 1255.56 877.137C1255.56 877.137 1297.87 861.712 1356.47 854.769C1436.39 845.3 1522.87 846.191 1529.64 853.049C1532.26 855.702 1485.5 852.998 1456.55 856.8C1410.68 862.823 1377.55 875.589 1413.8 879.096C1472.91 884.816 1609.8 860.474 1735.66 884.211C1816.35 899.43 1864.03 947.549 1864.03 947.549C1864.03 947.549 1903.73 986.425 1917.59 1015.39C1947.65 1078.2 1901.08 1067.3 1885.94 1062.87C1860.51 1055.42 1831.88 1035.31 1807.25 1056.54C1782.62 1077.77 1771.76 1107.29 1789.46 1129.46C1802.36 1145.61 1854.09 1145.5 1854.09 1145.5C1854.09 1145.5 1905.34 1145.91 1917.9 1186.02C1930.46 1226.14 1897.13 1216.2 1865.39 1235.57C1833.66 1254.95 1813.24 1265.64 1790.97 1263.53C1768.7 1261.42 1768.22 1240.15 1776.31 1227.13C1784.4 1214.12 1801.36 1197.78 1823.32 1211.46C1845.27 1225.15 1843.65 1298.33 1839.94 1316.69C1828.17 1374.99 1798.12 1420.68 1769.64 1443.24C1741.16 1465.79 1726.21 1429.24 1726.03 1406.89C1725.85 1384.54 1738.93 1324.58 1768.91 1353.84C1798.9 1383.09 1834.87 1465.4 1845.96 1523.91C1857.04 1582.42 1813.25 1587.88 1813.25 1587.88C1813.25 1587.88 1781.2 1592.87 1776.66 1588.57C1772.13 1584.27 1787.78 1562.66 1795.11 1570.66C1802.43 1578.67 1817.12 1592.94 1803.14 1618.17C1789.17 1643.4 1753.81 1668.57 1732.64 1674.29C1690.73 1685.64 1674.36 1607.34 1674.36 1607.34L1660.54 1565.03C1660.54 1565.03 1656.72 1546.15 1659.46 1545.31C1662.19 1544.46 1669.5 1558.98 1669.5 1558.98C1669.5 1558.98 1672.07 1566.66 1672.11 1570.99C1672.16 1575.31 1667.48 1579.75 1667.48 1579.75C1667.48 1579.75 1654.81 1589.03 1644.01 1595.26C1633.22 1601.5 1622.42 1606.41 1618.85 1607.01C1612.52 1608.08 1609.79 1605.26 1609.79 1605.26C1609.79 1605.26 1601.45 1595.48 1597.23 1587.18C1593.01 1578.88 1591.27 1571.16 1593.42 1570.16C1595.57 1569.15 1600.42 1575.43 1605.83 1583.15C1611.23 1590.88 1615.18 1600.17 1613.7 1601.46C1612.22 1602.74 1608.33 1600.29 1599.9 1588.3C1591.47 1576.31 1581.04 1553.82 1581.04 1553.82C1581.04 1553.82 1571.29 1532.31 1572.59 1503.49C1573.84 1475.72 1580.16 1467.88 1582.67 1466.98C1585.19 1466.06 1593.77 1465.17 1614.88 1479.75C1635.34 1493.88 1646.06 1508.39 1646.06 1508.39C1646.06 1508.39 1662.59 1526.85 1659.66 1531.71C1652.67 1543.28 1629.7 1553.37 1629.7 1553.37C1629.7 1553.37 1595.14 1568.97 1593.03 1566.29C1590.93 1563.6 1610.42 1549.72 1627.55 1541.74C1660.47 1526.39 1664.26 1541.03 1664.26 1541.03C1664.26 1541.03 1675.81 1565.05 1681.17 1579.31C1686.54 1593.56 1685.71 1598.05 1685.71 1598.05C1685.71 1598.05 1679.44 1589.49 1676.76 1581.38C1674.09 1573.26 1673.57 1564.47 1675.69 1564.83C1677.61 1565.16 1684.63 1566.36 1691.44 1569.13C1700.57 1572.83 1709.07 1579.52 1709.07 1579.52C1709.07 1579.52 1733.36 1596.02 1734.47 1624.59C1734.66 1629.37 1724.39 1624.2 1712.62 1621.2C1700.03 1618 1685.64 1616.86 1685.64 1616.86C1685.64 1616.86 1665.1 1613.82 1649.08 1635.09C1633.73 1655.46 1630.78 1675.52 1625.15 1685.27C1619.25 1695.48 1607.42 1667.9 1603.82 1648.41C1599.5 1625.02 1609.88 1614.08 1609.88 1614.08C1609.88 1614.08 1613.94 1608.38 1615.37 1609.33C1623.76 1614.83 1625.1 1616.2 1637.32 1625.57C1649.55 1634.95 1657.85 1639.11 1662.76 1645.27C1666.88 1650.46 1659.88 1646.95 1657.79 1644.2C1656.68 1642.75 1652.07 1637.36 1654.33 1635.07C1658.17 1631.18 1669.51 1632.83 1674.55 1627.12C1679.84 1621.14 1680.9 1617.1 1683.65 1618.85C1686.35 1620.58 1686.3 1629.8 1686.3 1629.8C1686.3 1629.8 1687.57 1641.33 1672.18 1647.66C1663.95 1651.04 1666.72 1644.05 1666.72 1644.05" fill="none" opacity="0.996124" stroke="#000000" stroke-linecap="butt" stroke-linejoin="round" stroke-width="1.57342"/>
</g>
</svg>
