<?xml version="1.0" encoding="UTF-8" standalone="no"?>
<!DOCTYPE svg PUBLIC "-//W3C//DTD SVG 1.1//EN" "http://www.w3.org/Graphics/SVG/1.1/DTD/svg11.dtd">
<!-- Created with Vectornator (http://vectornator.io/) -->
<svg height="100%" stroke-miterlimit="10" style="fill-rule:nonzero;clip-rule:evenodd;stroke-linecap:round;stroke-linejoin:round;" version="1.1" viewBox="0 0 600 380" width="100%" xml:space="preserve" xmlns="http://www.w3.org/2000/svg" xmlns:vectornator="http://vectornator.io" xmlns:xlink="http://www.w3.org/1999/xlink">
<defs/>
<g id="Layer-1" vectornator:layerName="Layer 1">
<path d="M179.663 167.547C179.663 167.547 179.448 163.651 179.76 159.988C180.008 157.075 181.801 152.774 184.245 151.524C186.359 150.442 186.36 150.232 189.126 150.182C248.708 149.11 421.747 150.295 421.747 150.295C421.747 150.295 423.841 150.949 425.807 152.397C427.25 153.46 428.623 154.949 429.05 156.923C430.878 165.364 429.53 167.798 429.53 167.798L179.663 167.547Z" fill="none" opacity="1" stroke="#000000" stroke-linecap="butt" stroke-linejoin="round" stroke-width="1.57"/>
<path d="M183.583 167.753C183.583 167.753 182.094 179.67 184.626 183.245C185.313 184.215 185.507 184.292 186.068 184.489C186.568 184.665 187.338 185.011 189.359 184.992C192.914 184.958 193.45 184.092 194.978 182.543C196.901 180.593 195.722 165.613 195.871 167.997" fill="none" opacity="1" stroke="#000000" stroke-linecap="butt" stroke-linejoin="round" stroke-width="1.57"/>
<path d="M359.801 167.909C359.801 167.909 358.311 179.826 360.844 183.401C361.531 184.372 361.725 184.448 362.286 184.645C362.786 184.821 363.556 185.168 365.576 185.148C369.131 185.114 369.667 184.248 371.195 182.7C373.119 180.75 371.939 165.769 372.088 168.153" fill="none" opacity="1" stroke="#000000" stroke-linecap="butt" stroke-linejoin="round" stroke-width="1.57"/>
<path d="M412.679 167.795C412.679 167.795 411.19 179.712 413.722 183.288C414.409 184.258 414.603 184.334 415.164 184.531C415.664 184.707 416.434 185.054 418.455 185.034C422.009 185.001 422.546 184.134 424.073 182.586C425.997 180.636 424.818 165.655 424.967 168.039" fill="none" opacity="1" stroke="#000000" stroke-linecap="butt" stroke-linejoin="round" stroke-width="1.57"/>
<path d="M237.203 167.799C237.203 167.799 235.714 179.716 238.246 183.292C238.933 184.262 239.127 184.339 239.688 184.536C240.188 184.711 240.958 185.058 242.979 185.039C246.534 185.005 247.07 184.138 248.598 182.59C250.521 180.64 249.342 165.659 249.491 168.043" fill="none" opacity="1" stroke="#000000" stroke-linecap="butt" stroke-linejoin="round" stroke-width="1.57"/>
<path d="M196.857 193.891L198.574 196.364" fill="none" opacity="1" stroke="#000000" stroke-linecap="butt" stroke-linejoin="round" stroke-width="1.57"/>
<path d="M205.535 202.622L207.313 205.051" fill="none" opacity="1" stroke="#000000" stroke-linecap="butt" stroke-linejoin="round" stroke-width="1.57"/>
<path d="M182.412 193.437L180.551 195.804" fill="none" opacity="1" stroke="#000000" stroke-linecap="butt" stroke-linejoin="round" stroke-width="1.57"/>
<path d="M173.534 202.399L171.673 204.767" fill="none" opacity="1" stroke="#000000" stroke-linecap="butt" stroke-linejoin="round" stroke-width="1.57"/>
<path d="M189.804 201.148L189.731 204.158" fill="none" opacity="1" stroke="#000000" stroke-linecap="butt" stroke-linejoin="round" stroke-width="1.57"/>
<path d="M189.602 213.661L189.595 216.672" fill="none" opacity="1" stroke="#000000" stroke-linecap="butt" stroke-linejoin="round" stroke-width="1.57"/>
<path d="M249.871 193.553L251.588 196.026" fill="none" opacity="1" stroke="#000000" stroke-linecap="butt" stroke-linejoin="round" stroke-width="1.57"/>
<path d="M258.55 202.283L260.328 204.713" fill="none" opacity="1" stroke="#000000" stroke-linecap="butt" stroke-linejoin="round" stroke-width="1.57"/>
<path d="M235.426 193.098L233.566 195.466" fill="none" opacity="1" stroke="#000000" stroke-linecap="butt" stroke-linejoin="round" stroke-width="1.57"/>
<path d="M226.548 202.061L224.688 204.428" fill="none" opacity="1" stroke="#000000" stroke-linecap="butt" stroke-linejoin="round" stroke-width="1.57"/>
<path d="M242.818 200.81L242.746 203.82" fill="none" opacity="1" stroke="#000000" stroke-linecap="butt" stroke-linejoin="round" stroke-width="1.57"/>
<path d="M242.616 213.323L242.61 216.334" fill="none" opacity="1" stroke="#000000" stroke-linecap="butt" stroke-linejoin="round" stroke-width="1.57"/>
<path d="M373.163 193.493L374.879 195.966" fill="none" opacity="1" stroke="#000000" stroke-linecap="butt" stroke-linejoin="round" stroke-width="1.57"/>
<path d="M381.841 202.224L383.619 204.653" fill="none" opacity="1" stroke="#000000" stroke-linecap="butt" stroke-linejoin="round" stroke-width="1.57"/>
<path d="M358.717 193.039L356.857 195.406" fill="none" opacity="1" stroke="#000000" stroke-linecap="butt" stroke-linejoin="round" stroke-width="1.57"/>
<path d="M349.839 202.001L347.979 204.369" fill="none" opacity="1" stroke="#000000" stroke-linecap="butt" stroke-linejoin="round" stroke-width="1.57"/>
<path d="M366.109 200.75L366.037 203.76" fill="none" opacity="1" stroke="#000000" stroke-linecap="butt" stroke-linejoin="round" stroke-width="1.57"/>
<path d="M365.907 213.263L365.901 216.274" fill="none" opacity="1" stroke="#000000" stroke-linecap="butt" stroke-linejoin="round" stroke-width="1.57"/>
<path d="M426.224 194.094L427.94 196.567" fill="none" opacity="1" stroke="#000000" stroke-linecap="butt" stroke-linejoin="round" stroke-width="1.57"/>
<path d="M434.902 202.825L436.68 205.254" fill="none" opacity="1" stroke="#000000" stroke-linecap="butt" stroke-linejoin="round" stroke-width="1.57"/>
<path d="M411.778 193.64L409.918 196.007" fill="none" opacity="1" stroke="#000000" stroke-linecap="butt" stroke-linejoin="round" stroke-width="1.57"/>
<path d="M402.9 202.602L401.04 204.97" fill="none" opacity="1" stroke="#000000" stroke-linecap="butt" stroke-linejoin="round" stroke-width="1.57"/>
<path d="M419.17 201.351L419.098 204.361" fill="none" opacity="1" stroke="#000000" stroke-linecap="butt" stroke-linejoin="round" stroke-width="1.57"/>
<path d="M418.968 213.864L418.962 216.875" fill="none" opacity="1" stroke="#000000" stroke-linecap="butt" stroke-linejoin="round" stroke-width="1.57"/>
<path d="M271.648 167.398L292.71 188.305L292.73 197.257L293.072 347.166" fill="none" opacity="1" stroke="#000000" stroke-linecap="butt" stroke-linejoin="round" stroke-width="1.57"/>
<path d="M337.269 167.688L316.506 188.561L316.486 197.499L316.413 229.817L316.149 347.167" fill="none" opacity="1" stroke="#000000" stroke-linecap="butt" stroke-linejoin="round" stroke-width="1.57"/>
<path d="M176.539 347.257L434.369 347.217" fill="none" opacity="1" stroke="#000000" stroke-linecap="butt" stroke-linejoin="round" stroke-width="1.57"/>
<path d="M183.082 359.469L192.455 359.497L199.912 359.519" fill="none" opacity="1" stroke="#000000" stroke-linecap="butt" stroke-linejoin="round" stroke-width="1.57"/>
<path d="M409.102 359.95L418.475 359.978L425.932 360" fill="none" opacity="1" stroke="#000000" stroke-linecap="butt" stroke-linejoin="round" stroke-width="1.57"/>
<path d="M225.547 359.331L235.247 359.359L242.964 359.381" fill="none" opacity="1" stroke="#000000" stroke-linecap="butt" stroke-linejoin="round" stroke-width="1.57"/>
<path d="M365.664 359.704L375.363 359.732L383.08 359.754" fill="none" opacity="1" stroke="#000000" stroke-linecap="butt" stroke-linejoin="round" stroke-width="1.57"/>
<path d="M270.399 359.409L281.557 359.43L290.433 359.447" fill="none" opacity="1" stroke="#000000" stroke-linecap="butt" stroke-linejoin="round" stroke-width="1.57"/>
<path d="M318.621 359.519L329.778 359.541L338.655 359.557" fill="none" opacity="1" stroke="#000000" stroke-linecap="butt" stroke-linejoin="round" stroke-width="1.57"/>
<path d="M197.489 303.203L197.708 346.327" fill="none" opacity="1" stroke="#000000" stroke-linecap="butt" stroke-linejoin="round" stroke-width="1.57"/>
<path d="M217.348 250.733C217.348 250.733 202.313 263.307 203.616 277.276C205.005 292.161 217.226 299.384 217.226 299.384C217.226 299.384 230.192 289.736 231.162 275.61C232.131 261.483 217.348 250.733 217.348 250.733Z" fill="none" opacity="1" stroke="#000000" stroke-linecap="butt" stroke-linejoin="round" stroke-width="1.57"/>
<path d="M216.954 299.16L216.672 346.519" fill="none" opacity="1" stroke="#000000" stroke-linecap="butt" stroke-linejoin="round" stroke-width="1.57"/>
<path d="M264.706 274.759C264.706 274.759 255.282 273.757 245.901 282.038C235.753 290.997 236.085 304.865 236.085 304.865C236.085 304.865 246.198 306.695 257.505 299.819C268.812 292.942 264.706 274.759 264.706 274.759Z" fill="none" opacity="1" stroke="#000000" stroke-linecap="butt" stroke-linejoin="round" stroke-width="1.57"/>
<path d="M235.921 304.554L235.655 347.009" fill="none" opacity="1" stroke="#000000" stroke-linecap="butt" stroke-linejoin="round" stroke-width="1.57"/>
<path d="M169.189 274.026C169.189 274.026 167.606 288.686 174.14 296.395C180.674 304.104 197.389 303.889 197.389 303.889C197.389 303.889 196.614 291.659 190.08 283.95C183.546 276.241 169.189 274.026 169.189 274.026Z" fill="none" opacity="1" stroke="#000000" stroke-linecap="butt" stroke-linejoin="round" stroke-width="1.57"/>
<path d="M343.756 274.196C343.756 274.196 342.173 288.857 348.707 296.565C355.241 304.274 371.957 304.06 371.957 304.06C371.957 304.06 371.181 291.83 364.647 284.121C358.113 276.412 343.756 274.196 343.756 274.196Z" fill="none" opacity="1" stroke="#000000" stroke-linecap="butt" stroke-linejoin="round" stroke-width="1.57"/>
<path d="M372.056 303.374L372.275 346.498" fill="none" opacity="1" stroke="#000000" stroke-linecap="butt" stroke-linejoin="round" stroke-width="1.57"/>
<path d="M391.915 250.904C391.915 250.904 376.88 263.478 378.183 277.447C379.573 292.331 391.793 299.555 391.793 299.555C391.793 299.555 404.76 289.906 405.729 275.78C406.698 261.654 391.915 250.904 391.915 250.904Z" fill="none" opacity="1" stroke="#000000" stroke-linecap="butt" stroke-linejoin="round" stroke-width="1.57"/>
<path d="M391.522 299.331L391.239 346.69" fill="none" opacity="1" stroke="#000000" stroke-linecap="butt" stroke-linejoin="round" stroke-width="1.57"/>
<path d="M439.273 274.93C439.273 274.93 429.85 273.927 420.468 282.209C410.32 291.168 410.653 305.036 410.653 305.036C410.653 305.036 420.765 306.866 432.072 299.989C443.379 293.112 439.273 274.93 439.273 274.93Z" fill="none" opacity="1" stroke="#000000" stroke-linecap="butt" stroke-linejoin="round" stroke-width="1.57"/>
<path d="M410.489 304.725L410.222 347.18" fill="none" opacity="1" stroke="#000000" stroke-linecap="butt" stroke-linejoin="round" stroke-width="1.57"/>
</g>
</svg>
