<svg xmlns="http://www.w3.org/2000/svg" xmlns:xlink="http://www.w3.org/1999/xlink" width="500" zoomAndPan="magnify" viewBox="0 0 375 374.999991" height="500" preserveAspectRatio="xMidYMid meet" version="1.0"><defs><g/></defs><g fill="#32383d" fill-opacity="1"><g transform="translate(80.419922, 230.651829)"><g><path d="M 0.140625 -107.28125 C 0.179688 -113.613281 2.769531 -117.71875 7.90625 -119.59375 C 10.707031 -120.601562 12.863281 -119.800781 14.375 -117.1875 C 17.257812 -112.1875 19.484375 -105.953125 21.046875 -98.484375 C 21.546875 -96.046875 22.117188 -92.789062 22.765625 -88.71875 L 24.40625 -78.953125 L 24.484375 -78.1875 L 24.546875 -77.4375 C 24.679688 -76.84375 24.910156 -76.382812 25.234375 -76.0625 L 26.203125 -77.03125 L 27.03125 -78.125 C 28.40625 -80.09375 30.125 -82.40625 32.1875 -85.0625 L 37.40625 -91.953125 C 41.757812 -97.585938 45.039062 -102.332031 47.25 -106.1875 C 47.707031 -107.007812 48.484375 -107.742188 49.578125 -108.390625 L 50.953125 -109.203125 L 52.40625 -109.96875 C 53.1875 -110.375 54.035156 -110.078125 54.953125 -109.078125 C 55.773438 -108.160156 55.816406 -107.128906 55.078125 -105.984375 L 51.71875 -100.75 C 50.289062 -98.59375 49.191406 -96.804688 48.421875 -95.390625 C 47.640625 -94.054688 46.765625 -92.378906 45.796875 -90.359375 L 43.328125 -85.140625 C 41.304688 -81.015625 39.359375 -77.757812 37.484375 -75.375 L 34.65625 -71.9375 L 31.84375 -68.5 C 31.0625 -67.582031 31.109375 -66.894531 31.984375 -66.4375 C 41.378906 -61.664062 52.289062 -52.3125 64.71875 -38.375 L 67.953125 -34.9375 L 71.046875 -31.421875 C 73.335938 -28.628906 74.941406 -25.972656 75.859375 -23.453125 C 76.410156 -21.941406 76.84375 -20.0625 77.15625 -17.8125 L 77.578125 -14.859375 L 77.984375 -11.96875 C 78.078125 -11.507812 78.03125 -11.117188 77.84375 -10.796875 C 77.664062 -10.429688 77.347656 -10.203125 76.890625 -10.109375 C 70.328125 -8.921875 64.800781 -10.617188 60.3125 -15.203125 C 54.675781 -20.929688 48.488281 -28.609375 41.75 -38.234375 L 38.921875 -42.296875 L 36.109375 -46.359375 C 33.859375 -49.378906 31.722656 -51.898438 29.703125 -53.921875 L 29.4375 -54.265625 L 29.15625 -54.609375 C 28.882812 -54.878906 28.609375 -54.921875 28.328125 -54.734375 C 28.191406 -54.648438 28.101562 -54.421875 28.0625 -54.046875 C 28.007812 -53.734375 28.007812 -53.414062 28.0625 -53.09375 C 29.382812 -42.726562 29.910156 -28.972656 29.640625 -11.828125 L 29.4375 -9.078125 L 29.015625 -6.390625 C 28.703125 -4.148438 27.441406 -2.84375 25.234375 -2.46875 C 22.617188 -2.0625 21.222656 -0.457031 21.046875 2.34375 C 20.910156 4.445312 19.898438 4.972656 18.015625 3.921875 C 16.179688 2.910156 14.460938 2.453125 12.859375 2.546875 C 11.941406 2.585938 11.253906 2.265625 10.796875 1.578125 L 10.3125 0.484375 L 9.96875 -0.625 C 8.414062 -5.894531 7.476562 -12.675781 7.15625 -20.96875 C 6.925781 -26.519531 6.125 -34.289062 4.75 -44.28125 L 3.15625 -55.84375 C 2.65625 -60.195312 2.289062 -64.09375 2.0625 -67.53125 L 1.4375 -74.203125 L 0.75 -80.875 C 0.25 -86.238281 0.046875 -90.707031 0.140625 -94.28125 Z M 0.140625 -107.28125 "/></g></g></g><g fill="#32383d" fill-opacity="1"><g transform="translate(172.988737, 230.651829)"><g><path d="M 46.359375 -27.03125 C 46.722656 -27.257812 46.972656 -27.535156 47.109375 -27.859375 L 47.25 -28.265625 L 47.3125 -28.609375 C 48.28125 -31.953125 49.148438 -36.421875 49.921875 -42.015625 C 50.429688 -45.773438 51.375 -49.945312 52.75 -54.53125 C 54.070312 -59.257812 55.125 -63.226562 55.90625 -66.4375 C 56.226562 -67.945312 57.421875 -69.523438 59.484375 -71.171875 C 60.035156 -71.628906 60.632812 -71.609375 61.28125 -71.109375 C 61.78125 -70.648438 62.351562 -70.535156 63 -70.765625 C 63.957031 -71.085938 65.007812 -71.019531 66.15625 -70.5625 L 66.78125 -70.359375 L 67.46875 -70.28125 L 71.859375 -69.390625 C 76.816406 -68.242188 80.164062 -65.082031 81.90625 -59.90625 C 84.613281 -52.101562 86.5625 -44.789062 87.75 -37.96875 C 88.257812 -35.070312 89.0625 -32.523438 90.15625 -30.328125 L 91.1875 -27.984375 L 92.21875 -25.65625 L 92.359375 -25.515625 L 92.640625 -25.375 C 92.910156 -25.332031 93.09375 -25.492188 93.1875 -25.859375 L 94.21875 -31.359375 C 94.625 -33.460938 94.875 -35.320312 94.96875 -36.9375 L 95.3125 -41.1875 L 95.734375 -45.453125 L 96.28125 -50.609375 L 96.90625 -55.78125 L 97.71875 -61.203125 L 98.40625 -66.640625 L 98.546875 -68.015625 L 98.625 -69.328125 C 98.476562 -70.328125 98.453125 -71.585938 98.546875 -73.109375 L 98.6875 -76.8125 C 98.726562 -80.25 99.550781 -84.054688 101.15625 -88.234375 C 101.707031 -89.648438 102.878906 -90.660156 104.671875 -91.265625 C 105.953125 -91.671875 106.640625 -91.164062 106.734375 -89.75 L 106.9375 -84.171875 C 106.9375 -81.191406 107.050781 -78.601562 107.28125 -76.40625 C 107.644531 -73.101562 107.578125 -69.984375 107.078125 -67.046875 C 106.804688 -65.671875 106.644531 -63.722656 106.59375 -61.203125 C 106.457031 -57.671875 106 -53.523438 105.21875 -48.765625 L 104.46875 -44.21875 L 103.84375 -39.75 C 102.925781 -32.507812 101.253906 -24.117188 98.828125 -14.578125 C 98.410156 -12.742188 98.410156 -11.347656 98.828125 -10.390625 C 99.191406 -9.609375 99.03125 -8.875 98.34375 -8.1875 C 97.5625 -7.445312 97.21875 -6.390625 97.3125 -5.015625 L 97.375 -3.640625 C 97.289062 -2.492188 96.765625 -1.738281 95.796875 -1.375 L 94.828125 -0.96875 C 92.816406 0.59375 90.367188 0.960938 87.484375 0.140625 L 86.03125 -0.0625 L 84.59375 -0.140625 C 83.03125 -0.179688 81.148438 -0.6875 78.953125 -1.65625 C 78.398438 -1.882812 77.847656 -2.34375 77.296875 -3.03125 C 74.585938 -6.46875 72.59375 -10.019531 71.3125 -13.6875 L 68.765625 -20.421875 L 66.15625 -27.171875 C 65.007812 -30.054688 63.816406 -33.695312 62.578125 -38.09375 C 62.117188 -39.882812 61.457031 -41.535156 60.59375 -43.046875 L 60.109375 -44.15625 L 59.5625 -45.25 L 59.34375 -45.796875 L 59.140625 -46.359375 C 58.960938 -46.765625 58.734375 -47.082031 58.453125 -47.3125 C 58.128906 -47.132812 57.945312 -46.882812 57.90625 -46.5625 L 57.84375 -46.078125 L 57.84375 -45.671875 C 57.332031 -41.222656 56.390625 -36.039062 55.015625 -30.125 C 54.648438 -28.46875 54.285156 -26.40625 53.921875 -23.9375 L 52.890625 -17.75 L 52.203125 -13.34375 L 51.4375 -9.015625 C 51.070312 -7.222656 50.753906 -5.203125 50.484375 -2.953125 C 50.253906 -0.941406 49.910156 1.164062 49.453125 3.375 C 48.941406 5.757812 47.472656 6.765625 45.046875 6.390625 L 44.21875 6.265625 L 43.46875 6.125 C 42.363281 6.125 41.46875 5.800781 40.78125 5.15625 C 40.132812 4.5625 39.148438 4.148438 37.828125 3.921875 C 35.898438 3.554688 34.5 3.03125 33.625 2.34375 C 33.394531 2.113281 33.097656 1.953125 32.734375 1.859375 L 31.640625 1.65625 C 30.171875 1.46875 29.113281 0.617188 28.46875 -0.890625 C 25.394531 -7.859375 23.3125 -13.726562 22.21875 -18.5 C 21.300781 -22.488281 20.382812 -25.859375 19.46875 -28.609375 C 18.820312 -30.441406 18.132812 -32.710938 17.40625 -35.421875 L 15.609375 -42.21875 C 14.503906 -46.394531 13.585938 -49.582031 12.859375 -51.78125 C 11.898438 -54.675781 11.097656 -58.046875 10.453125 -61.890625 C 10.035156 -64.785156 9.414062 -68.039062 8.59375 -71.65625 L 6.328125 -81.28125 L 5.15625 -86.234375 L 4.1875 -91.1875 L 3.5 -94.359375 L 2.6875 -97.453125 L 2.265625 -98.546875 L 1.71875 -99.65625 L 1.234375 -100.609375 L 0.828125 -101.578125 C 0.273438 -103.503906 0.78125 -104.972656 2.34375 -105.984375 C 3.4375 -106.710938 4.742188 -107.671875 6.265625 -108.859375 C 7.773438 -110.054688 9.953125 -111.046875 12.796875 -111.828125 C 15.265625 -112.460938 17.691406 -112.117188 20.078125 -110.796875 C 22.421875 -109.460938 23.890625 -107.648438 24.484375 -105.359375 C 25.171875 -102.835938 26.410156 -100.5 28.203125 -98.34375 C 29.390625 -96.875 30.28125 -95.039062 30.875 -92.84375 L 32.53125 -87.34375 L 34.171875 -81.84375 L 34.796875 -79.78125 L 37.203125 -70.28125 L 39.46875 -60.796875 L 41.671875 -50.75 L 43.8125 -40.640625 L 45.1875 -33.96875 C 45.6875 -31.40625 46.078125 -29.09375 46.359375 -27.03125 Z M 46.359375 -27.03125 "/></g></g></g></svg>