<svg xmlns="http://www.w3.org/2000/svg" xmlns:xlink="http://www.w3.org/1999/xlink" width="500" zoomAndPan="magnify" viewBox="0 0 375 374.999991" height="500" preserveAspectRatio="xMidYMid meet" version="1.0"><defs><g/></defs><g fill="#32383d" fill-opacity="1"><g transform="translate(79.668676, 197.32353)"><g><path d="M 19.148438 -1.058594 L 16.855469 -1.058594 L 9.660156 -18.757812 C 9.660156 -18.757812 7.96875 -19.5 7.96875 -18.441406 L 7.898438 -0.882812 L 3.066406 -0.882812 L 3.066406 -28.210938 L 10.929688 -28.210938 L 17.171875 -11.988281 C 17.171875 -11.988281 18.195312 -10.367188 18.828125 -11.988281 L 25.070312 -28.210938 L 32.96875 -28.210938 L 32.96875 -0.882812 L 28.105469 -0.882812 L 28.070312 -18.441406 C 28.070312 -18.441406 26.765625 -19.746094 26.339844 -18.757812 Z M 19.746094 0.707031 C 20.0625 0.707031 20.417969 0.492188 20.558594 0.175781 L 26.304688 -13.964844 L 26.375 0.0351562 C 26.375 0.457031 26.730469 0.882812 27.257812 0.882812 L 33.851562 0.882812 C 34.203125 0.882812 34.734375 0.5625 34.734375 0 L 34.734375 -29.089844 C 34.734375 -29.445312 34.378906 -29.972656 33.851562 -29.972656 L 24.472656 -29.972656 C 24.121094 -29.972656 23.765625 -29.726562 23.625 -29.375 L 18.019531 -14.738281 L 12.375 -29.375 C 12.234375 -29.726562 11.917969 -29.972656 11.566406 -29.972656 L 2.1875 -29.972656 C 1.796875 -29.972656 1.304688 -29.621094 1.304688 -29.089844 L 1.304688 0 C 1.304688 0.386719 1.621094 0.882812 2.1875 0.882812 L 8.78125 0.882812 C 9.203125 0.882812 9.625 0.527344 9.660156 0.0351562 L 9.695312 -13.964844 L 15.445312 0.175781 C 15.585938 0.492188 15.902344 0.707031 16.292969 0.707031 Z M 19.746094 0.707031 "/></g></g></g><g fill="#32383d" fill-opacity="1"><g transform="translate(125.426776, 197.32353)"><g><path d="M 7.933594 -28.210938 L 7.933594 -0.882812 L 3.066406 -0.882812 L 3.066406 -28.210938 Z M 9.695312 -29.089844 C 9.695312 -29.445312 9.34375 -29.972656 8.816406 -29.972656 L 2.1875 -29.972656 C 1.796875 -29.972656 1.304688 -29.621094 1.304688 -29.089844 L 1.304688 0 C 1.304688 0.386719 1.621094 0.882812 2.1875 0.882812 L 8.816406 0.882812 C 9.167969 0.882812 9.695312 0.5625 9.695312 0 Z M 9.695312 -29.089844 "/></g></g></g><g fill="#32383d" fill-opacity="1"><g transform="translate(146.157547, 197.32353)"><g><path d="M 7.933594 -18.054688 L 7.933594 -0.882812 L 3.066406 -0.882812 L 3.066406 -28.210938 L 8.320312 -28.210938 L 19.605469 -10.542969 C 19.78125 -10.296875 20.0625 -10.15625 20.382812 -10.15625 L 20.453125 -10.15625 C 20.980469 -10.15625 21.332031 -10.648438 21.332031 -11.035156 L 21.332031 -28.210938 L 26.199219 -28.210938 L 26.199219 -0.882812 L 20.910156 -0.882812 L 9.625 -18.511719 C 9.449219 -18.757812 9.167969 -18.9375 8.886719 -18.9375 L 8.816406 -18.9375 C 8.25 -18.9375 7.933594 -18.40625 7.933594 -18.054688 Z M 9.695312 -15.128906 L 19.675781 0.492188 C 19.851562 0.742188 20.132812 0.882812 20.453125 0.882812 L 27.082031 0.882812 C 27.433594 0.882812 27.960938 0.5625 27.960938 0 L 27.960938 -29.089844 C 27.960938 -29.445312 27.609375 -29.972656 27.082031 -29.972656 L 20.453125 -29.972656 C 20.0625 -29.972656 19.570312 -29.621094 19.570312 -29.089844 L 19.570312 -13.929688 L 9.554688 -29.550781 C 9.378906 -29.796875 9.097656 -29.972656 8.816406 -29.972656 L 2.1875 -29.972656 C 1.796875 -29.972656 1.304688 -29.621094 1.304688 -29.089844 L 1.304688 0 C 1.304688 0.386719 1.621094 0.882812 2.1875 0.882812 L 8.816406 0.882812 C 9.167969 0.882812 9.695312 0.5625 9.695312 0 Z M 9.695312 -15.128906 "/></g></g></g><g fill="#32383d" fill-opacity="1"><g transform="translate(185.147693, 197.32353)"><g/></g></g><g fill="#32383d" fill-opacity="1"><g transform="translate(199.921253, 197.32353)"><g><path d="M 7.933594 -11.671875 L 7.933594 -0.882812 L 3.066406 -0.882812 L 3.066406 -28.210938 L 7.933594 -28.210938 L 7.933594 -17.488281 C 7.933594 -16.925781 8.425781 -16.609375 8.816406 -16.609375 L 18.195312 -16.609375 C 18.722656 -16.609375 19.078125 -17.101562 19.078125 -17.488281 L 19.078125 -28.210938 L 23.941406 -28.210938 L 23.941406 -0.882812 L 19.078125 -0.882812 L 19.078125 -11.671875 C 19.078125 -12.199219 18.546875 -12.554688 18.195312 -12.554688 L 8.816406 -12.554688 C 8.25 -12.554688 7.933594 -12.023438 7.933594 -11.671875 Z M 9.695312 -10.789062 L 17.3125 -10.789062 L 17.3125 0 C 17.3125 0.386719 17.632812 0.882812 18.195312 0.882812 L 24.824219 0.882812 C 25.175781 0.882812 25.707031 0.5625 25.707031 0 L 25.707031 -29.089844 C 25.707031 -29.445312 25.351562 -29.972656 24.824219 -29.972656 L 18.195312 -29.972656 C 17.808594 -29.972656 17.3125 -29.621094 17.3125 -29.089844 L 17.3125 -18.371094 L 9.695312 -18.371094 L 9.695312 -29.089844 C 9.695312 -29.445312 9.34375 -29.972656 8.816406 -29.972656 L 2.1875 -29.972656 C 1.796875 -29.972656 1.304688 -29.621094 1.304688 -29.089844 L 1.304688 0 C 1.304688 0.386719 1.621094 0.882812 2.1875 0.882812 L 8.816406 0.882812 C 9.167969 0.882812 9.695312 0.5625 9.695312 0 Z M 9.695312 -10.789062 "/></g></g></g><g fill="#32383d" fill-opacity="1"><g transform="translate(236.65542, 197.32353)"><g><path d="M 23.871094 -28.210938 L 23.871094 -10.332031 C 23.871094 -3.5625 20.417969 -0.351562 13.398438 -0.351562 C 6.347656 -0.351562 2.925781 -3.5625 2.925781 -10.332031 L 2.925781 -28.210938 L 7.792969 -28.210938 L 7.792969 -12.269531 C 7.792969 -7.15625 9.625 -5.113281 13.398438 -5.113281 C 17.136719 -5.113281 19.007812 -7.15625 19.007812 -12.269531 L 19.007812 -28.210938 Z M 25.636719 -29.089844 C 25.636719 -29.445312 25.28125 -29.972656 24.753906 -29.972656 L 18.125 -29.972656 C 17.738281 -29.972656 17.242188 -29.621094 17.242188 -29.089844 L 17.242188 -12.269531 C 17.242188 -7.617188 16.113281 -6.875 13.398438 -6.875 C 10.648438 -6.875 9.554688 -7.617188 9.554688 -12.269531 L 9.554688 -29.089844 C 9.554688 -29.445312 9.203125 -29.972656 8.675781 -29.972656 L 2.046875 -29.972656 C 1.65625 -29.972656 1.164062 -29.621094 1.164062 -29.089844 L 1.164062 -10.332031 C 1.164062 -2.679688 5.605469 1.410156 13.398438 1.410156 C 21.15625 1.410156 25.636719 -2.679688 25.636719 -10.332031 Z M 25.636719 -29.089844 "/></g></g></g><g fill="#32383d" fill-opacity="1"><g transform="translate(273.213324, 197.32353)"><g><path d="M 7.933594 -28.210938 L 7.933594 -0.882812 L 3.066406 -0.882812 L 3.066406 -28.210938 Z M 9.695312 -29.089844 C 9.695312 -29.445312 9.34375 -29.972656 8.816406 -29.972656 L 2.1875 -29.972656 C 1.796875 -29.972656 1.304688 -29.621094 1.304688 -29.089844 L 1.304688 0 C 1.304688 0.386719 1.621094 0.882812 2.1875 0.882812 L 8.816406 0.882812 C 9.167969 0.882812 9.695312 0.5625 9.695312 0 Z M 9.695312 -29.089844 "/></g></g></g></svg>