<svg xmlns="http://www.w3.org/2000/svg" xmlns:xlink="http://www.w3.org/1999/xlink" width="500" zoomAndPan="magnify" viewBox="0 0 375 374.999991" height="500" preserveAspectRatio="xMidYMid meet" version="1.0"><defs><g/></defs><g fill="#000000" fill-opacity="1"><g transform="translate(102.953326, 223.299477)"><g><path d="M 90.617188 -2.128906 L 45.023438 -55.820312 L 90.191406 -111.496094 C 91.1875 -112.492188 90.476562 -113.628906 88.914062 -113.628906 L 65.761719 -113.628906 C 65.476562 -113.628906 64.625 -113.34375 64.484375 -113.203125 L 21.730469 -60.648438 L 21.730469 -112.351562 C 21.730469 -112.917969 21.164062 -113.628906 20.3125 -113.628906 L 1.5625 -113.628906 C 0.710938 -113.628906 0 -112.917969 0 -112.351562 L 0 -6.960938 C 0 -6.960938 27.695312 -38.347656 30.539062 -41.332031 L 63.632812 -0.425781 C 63.773438 -0.285156 64.625 0 64.910156 0 L 89.339844 0 C 90.761719 0 91.46875 -0.996094 90.617188 -2.128906 Z M 90.617188 -2.128906 "/></g></g></g><g fill="#000000" fill-opacity="1"><g transform="translate(180.159134, 270.482589)"><g><path d="M 116.375 -91.445312 L 102.089844 -52.933594 L 79.960938 -111.191406 C 79.683594 -111.75 79.121094 -112.03125 78.5625 -112.03125 L 59.515625 -112.03125 C 58.957031 -112.03125 58.398438 -111.75 58.257812 -111.191406 L 35.992188 -52.933594 L 21.847656 -91.445312 L 0 -91.445312 L 34.730469 -0.839844 C 35.148438 0.28125 36.96875 0.28125 37.390625 -0.839844 L 69.039062 -83.882812 L 100.6875 -0.839844 C 101.109375 0.28125 102.929688 0.28125 103.347656 -0.839844 L 138.21875 -91.445312 Z M 116.375 -91.445312 "/></g></g></g><g fill="#000000" fill-opacity="1"><g transform="translate(114.613627, 253.911487)"><g><path d="M 6.03125 -5.171875 L 9.796875 0 L 6.65625 0 L 3.921875 -4.09375 L 3.25 -4.09375 L 3.25 0 L 0.765625 0 L 0.765625 -10.03125 L 3.25 -10.03125 L 3.25 -6.078125 L 3.921875 -6.078125 L 6.6875 -10.03125 L 9.65625 -10.03125 Z M 6.03125 -5.171875 "/></g></g></g><g fill="#000000" fill-opacity="1"><g transform="translate(132.931303, 253.911487)"><g><path d="M 2.5625 0 L -0.046875 0 L 3.65625 -10.03125 L 6.234375 -10.03125 L 9.859375 0 L 7.265625 0 L 6.734375 -1.6875 L 3.09375 -1.6875 Z M 4.890625 -7.5625 C 4.804688 -7.269531 4.710938 -6.953125 4.609375 -6.609375 C 4.515625 -6.273438 4.347656 -5.726562 4.109375 -4.96875 L 3.703125 -3.640625 L 6.109375 -3.640625 L 5.703125 -4.96875 C 5.554688 -5.375 5.414062 -5.800781 5.28125 -6.25 C 5.144531 -6.707031 5.015625 -7.144531 4.890625 -7.5625 Z M 4.890625 -7.5625 "/></g></g></g><g fill="#000000" fill-opacity="1"><g transform="translate(151.488927, 253.911487)"><g><path d="M 9.421875 -10.03125 L 9.421875 0 L 7.0625 0 L 3.09375 -5.796875 L 3.09375 0 L 0.765625 0 L 0.765625 -10.03125 L 3.125 -10.03125 L 7.109375 -4.015625 L 7.109375 -10.03125 Z M 9.421875 -10.03125 "/></g></g></g><g fill="#000000" fill-opacity="1"><g transform="translate(170.398468, 253.911487)"><g><path d="M 6.453125 -3.734375 L 4.71875 -3.734375 L 4.71875 -5.734375 L 8.765625 -5.734375 L 8.765625 -0.453125 C 8.460938 -0.304688 7.925781 -0.164062 7.15625 -0.03125 C 6.394531 0.09375 5.703125 0.15625 5.078125 0.15625 C 3.335938 0.15625 2.128906 -0.238281 1.453125 -1.03125 C 0.773438 -1.832031 0.4375 -3.164062 0.4375 -5.03125 C 0.4375 -6.820312 0.828125 -8.128906 1.609375 -8.953125 C 2.398438 -9.773438 3.660156 -10.1875 5.390625 -10.1875 C 6.023438 -10.1875 6.585938 -10.171875 7.078125 -10.140625 C 7.578125 -10.117188 7.957031 -10.082031 8.21875 -10.03125 L 8.21875 -7.859375 C 7.875 -7.890625 7.457031 -7.910156 6.96875 -7.921875 C 6.476562 -7.941406 5.953125 -7.953125 5.390625 -7.953125 C 4.785156 -7.953125 4.332031 -7.894531 4.03125 -7.78125 C 3.738281 -7.675781 3.519531 -7.492188 3.375 -7.234375 C 3.238281 -7.015625 3.140625 -6.726562 3.078125 -6.375 C 3.015625 -6.019531 2.984375 -5.570312 2.984375 -5.03125 C 2.984375 -4.5 3.007812 -4.054688 3.0625 -3.703125 C 3.125 -3.359375 3.210938 -3.078125 3.328125 -2.859375 C 3.472656 -2.578125 3.679688 -2.375 3.953125 -2.25 C 4.234375 -2.132812 4.660156 -2.078125 5.234375 -2.078125 C 5.421875 -2.078125 5.617188 -2.082031 5.828125 -2.09375 C 6.035156 -2.113281 6.242188 -2.140625 6.453125 -2.171875 Z M 6.453125 -3.734375 "/></g></g></g><g fill="#000000" fill-opacity="1"><g transform="translate(295.625347, 166.574521)"><g><path d="M 2.640625 0 L 0 -10.03125 L 2.6875 -10.03125 L 3.75 -5.078125 C 3.789062 -4.898438 3.832031 -4.664062 3.875 -4.375 C 3.925781 -4.09375 4.007812 -3.539062 4.125 -2.71875 C 4.15625 -2.925781 4.21875 -3.316406 4.3125 -3.890625 C 4.40625 -4.460938 4.472656 -4.851562 4.515625 -5.0625 L 5.53125 -10.03125 L 8.125 -10.03125 L 9.1875 -5.078125 C 9.226562 -4.898438 9.269531 -4.664062 9.3125 -4.375 C 9.363281 -4.09375 9.445312 -3.539062 9.5625 -2.71875 C 9.59375 -2.925781 9.65625 -3.316406 9.75 -3.890625 C 9.84375 -4.460938 9.910156 -4.851562 9.953125 -5.0625 L 10.96875 -10.03125 L 13.578125 -10.03125 L 10.953125 0 L 8.09375 0 L 7.453125 -3.046875 C 7.347656 -3.554688 7.238281 -4.09375 7.125 -4.65625 C 7.019531 -5.21875 6.910156 -5.84375 6.796875 -6.53125 C 6.628906 -5.582031 6.492188 -4.863281 6.390625 -4.375 C 6.296875 -3.894531 6.207031 -3.453125 6.125 -3.046875 L 5.484375 0 Z M 2.640625 0 "/></g></g></g><g fill="#000000" fill-opacity="1"><g transform="translate(310.022082, 166.574521)"><g><path d="M 7.6875 -2.3125 L 7.6875 0 L 0.765625 0 L 0.765625 -10.03125 L 7.53125 -10.03125 L 7.53125 -7.796875 L 3.25 -7.796875 L 3.25 -6.125 L 6.9375 -6.125 L 6.9375 -4.046875 L 3.25 -4.046875 L 3.25 -2.3125 Z M 7.6875 -2.3125 "/></g></g></g><g fill="#000000" fill-opacity="1"><g transform="translate(318.916144, 166.574521)"><g><path d="M 3.25 -10.03125 L 3.25 0 L 0.765625 0 L 0.765625 -10.03125 Z M 3.25 -10.03125 "/></g></g></g></svg>