<svg xmlns="http://www.w3.org/2000/svg" xmlns:xlink="http://www.w3.org/1999/xlink" width="500" zoomAndPan="magnify" viewBox="0 0 375 374.999991" height="500" preserveAspectRatio="xMidYMid meet" version="1.0"><defs><g/></defs><g fill="#32383d" fill-opacity="1"><g transform="translate(16.851566, 253.124983)"><g><path d="M 170.257812 -169.488281 C 170.257812 -177.191406 163.839844 -183.355469 155.621094 -183.355469 C 149.714844 -183.355469 144.320312 -181.300781 141.238281 -175.394531 L 93.476562 -76.011719 L 45.453125 -175.136719 C 42.628906 -180.53125 37.75 -183.355469 31.074219 -183.355469 C 22.597656 -183.355469 16.433594 -177.449219 16.433594 -169.488281 L 16.433594 -10.527344 C 16.433594 -3.59375 22.339844 2.566406 30.046875 2.566406 C 38.007812 2.566406 44.683594 -3.59375 44.683594 -10.527344 L 44.683594 -117.359375 L 79.863281 -44.425781 C 82.691406 -39.035156 87.570312 -36.464844 93.21875 -36.464844 C 98.867188 -36.464844 104.003906 -39.035156 106.570312 -44.425781 L 142.011719 -117.359375 L 142.011719 -10.527344 C 142.011719 -3.59375 148.6875 2.566406 156.390625 2.566406 C 163.839844 2.566406 170.257812 -3.59375 170.257812 -10.527344 Z M 170.257812 -169.488281 "/></g></g></g><g fill="#32383d" fill-opacity="1"><g transform="translate(204.058401, 253.124983)"><g><path d="M 136.359375 -11.042969 L 136.359375 -170 C 136.359375 -177.191406 129.683594 -183.355469 122.238281 -183.355469 C 114.789062 -183.355469 108.113281 -177.191406 108.113281 -170 L 108.113281 -103.746094 L 45.710938 -103.746094 L 45.710938 -170 C 45.710938 -177.191406 39.289062 -183.355469 31.585938 -183.355469 C 23.625 -183.355469 17.460938 -177.191406 17.460938 -170 L 17.460938 -11.042969 C 17.460938 -3.851562 23.625 2.566406 31.585938 2.566406 C 39.289062 2.566406 45.710938 -3.851562 45.710938 -11.042969 L 45.710938 -77.296875 L 108.113281 -77.296875 L 108.113281 -11.042969 C 108.113281 -3.851562 114.789062 2.566406 122.238281 2.566406 C 129.941406 2.566406 136.359375 -3.851562 136.359375 -11.042969 Z M 136.359375 -11.042969 "/></g></g></g></svg>