<svg xmlns="http://www.w3.org/2000/svg" xmlns:xlink="http://www.w3.org/1999/xlink" width="500" zoomAndPan="magnify" viewBox="0 0 375 374.999991" height="500" preserveAspectRatio="xMidYMid meet" version="1.0"><defs><g/></defs><g fill="#000000" fill-opacity="1"><g transform="translate(142.841788, 218.47686)"><g><path d="M 10.203125 -10.140625 C 10.316406 -10.140625 10.410156 -10.097656 10.484375 -10.015625 C 10.566406 -9.929688 10.609375 -9.828125 10.609375 -9.703125 L 10.609375 -0.4375 C 10.609375 -0.3125 10.566406 -0.207031 10.484375 -0.125 C 10.398438 -0.0390625 10.296875 0 10.171875 0 C 10.035156 0 9.921875 -0.0390625 9.828125 -0.125 C 9.742188 -0.207031 9.703125 -0.3125 9.703125 -0.4375 L 9.703125 -8.40625 L 6.296875 -3.25 C 6.203125 -3.125 6.09375 -3.066406 5.96875 -3.078125 L 5.9375 -3.078125 C 5.820312 -3.078125 5.71875 -3.132812 5.625 -3.25 L 2.21875 -8.4375 L 2.21875 -0.4375 C 2.21875 -0.3125 2.175781 -0.207031 2.09375 -0.125 C 2.007812 -0.0390625 1.90625 0 1.78125 0 C 1.65625 0 1.550781 -0.0390625 1.46875 -0.125 C 1.394531 -0.207031 1.359375 -0.3125 1.359375 -0.4375 L 1.359375 -9.703125 C 1.359375 -9.816406 1.398438 -9.914062 1.484375 -10 C 1.566406 -10.09375 1.671875 -10.140625 1.796875 -10.140625 C 1.859375 -10.140625 1.925781 -10.117188 2 -10.078125 C 2.082031 -10.046875 2.144531 -10.003906 2.1875 -9.953125 L 5.984375 -4.265625 L 9.8125 -9.953125 C 9.914062 -10.097656 10.046875 -10.160156 10.203125 -10.140625 Z M 10.203125 -10.140625 "/></g></g></g><g fill="#000000" fill-opacity="1"><g transform="translate(160.605813, 218.47686)"><g><path d="M 2.28125 -0.453125 C 2.269531 -0.328125 2.21875 -0.21875 2.125 -0.125 C 2.039062 -0.0390625 1.9375 0 1.8125 0 C 1.675781 0 1.566406 -0.0390625 1.484375 -0.125 C 1.398438 -0.207031 1.359375 -0.316406 1.359375 -0.453125 L 1.359375 -9.6875 C 1.359375 -9.820312 1.398438 -9.929688 1.484375 -10.015625 C 1.578125 -10.097656 1.691406 -10.140625 1.828125 -10.140625 C 1.953125 -10.140625 2.054688 -10.09375 2.140625 -10 C 2.234375 -9.914062 2.28125 -9.8125 2.28125 -9.6875 Z M 2.28125 -0.453125 "/></g></g></g><g fill="#000000" fill-opacity="1"><g transform="translate(170.019107, 218.47686)"><g><path d="M 8.78125 -10.140625 C 8.90625 -10.140625 9.003906 -10.097656 9.078125 -10.015625 C 9.148438 -9.941406 9.1875 -9.847656 9.1875 -9.734375 L 9.1875 -0.46875 C 9.1875 -0.320312 9.140625 -0.207031 9.046875 -0.125 C 8.960938 -0.0390625 8.859375 0 8.734375 0 C 8.660156 0 8.59375 -0.015625 8.53125 -0.046875 C 8.46875 -0.078125 8.421875 -0.109375 8.390625 -0.140625 L 2.171875 -8.515625 L 2.171875 -0.390625 C 2.171875 -0.285156 2.128906 -0.191406 2.046875 -0.109375 C 1.960938 -0.0351562 1.867188 0 1.765625 0 C 1.648438 0 1.550781 -0.0351562 1.46875 -0.109375 C 1.394531 -0.191406 1.359375 -0.285156 1.359375 -0.390625 L 1.359375 -9.703125 C 1.359375 -9.835938 1.398438 -9.941406 1.484375 -10.015625 C 1.566406 -10.097656 1.664062 -10.140625 1.78125 -10.140625 C 1.9375 -10.140625 2.050781 -10.085938 2.125 -9.984375 L 8.375 -1.5625 L 8.375 -9.734375 C 8.375 -9.847656 8.410156 -9.941406 8.484375 -10.015625 C 8.566406 -10.097656 8.664062 -10.140625 8.78125 -10.140625 Z M 8.78125 -10.140625 "/></g></g></g><g fill="#000000" fill-opacity="1"><g transform="translate(186.350331, 218.47686)"><g/></g></g><g fill="#000000" fill-opacity="1"><g transform="translate(196.0965, 218.47686)"><g><path d="M 8.625 -10.140625 C 8.757812 -10.140625 8.863281 -10.097656 8.9375 -10.015625 C 9.019531 -9.929688 9.0625 -9.820312 9.0625 -9.6875 L 9.0625 -0.453125 C 9.050781 -0.316406 9.003906 -0.207031 8.921875 -0.125 C 8.835938 -0.0390625 8.734375 0 8.609375 0 C 8.484375 0 8.375 -0.0390625 8.28125 -0.125 C 8.195312 -0.21875 8.15625 -0.328125 8.15625 -0.453125 L 8.15625 -4.765625 L 2.28125 -4.765625 L 2.28125 -0.453125 C 2.269531 -0.328125 2.21875 -0.21875 2.125 -0.125 C 2.039062 -0.0390625 1.9375 0 1.8125 0 C 1.675781 0 1.566406 -0.0390625 1.484375 -0.125 C 1.398438 -0.207031 1.359375 -0.316406 1.359375 -0.453125 L 1.359375 -9.6875 C 1.359375 -9.820312 1.398438 -9.929688 1.484375 -10.015625 C 1.578125 -10.097656 1.691406 -10.140625 1.828125 -10.140625 C 1.953125 -10.140625 2.054688 -10.09375 2.140625 -10 C 2.234375 -9.914062 2.28125 -9.8125 2.28125 -9.6875 L 2.28125 -5.609375 L 8.15625 -5.609375 L 8.15625 -9.6875 C 8.15625 -9.8125 8.203125 -9.914062 8.296875 -10 C 8.390625 -10.09375 8.5 -10.140625 8.625 -10.140625 Z M 8.625 -10.140625 "/></g></g></g><g fill="#000000" fill-opacity="1"><g transform="translate(212.311941, 218.47686)"><g><path d="M 8.53125 -10.140625 C 8.65625 -10.140625 8.757812 -10.097656 8.84375 -10.015625 C 8.925781 -9.929688 8.96875 -9.828125 8.96875 -9.703125 L 8.96875 -3.703125 C 8.96875 -3.003906 8.796875 -2.359375 8.453125 -1.765625 C 8.117188 -1.179688 7.660156 -0.71875 7.078125 -0.375 C 6.503906 -0.0390625 5.867188 0.125 5.171875 0.125 C 4.460938 0.125 3.816406 -0.0390625 3.234375 -0.375 C 2.660156 -0.71875 2.203125 -1.179688 1.859375 -1.765625 C 1.523438 -2.359375 1.359375 -3.003906 1.359375 -3.703125 L 1.359375 -9.703125 C 1.359375 -9.828125 1.398438 -9.929688 1.484375 -10.015625 C 1.566406 -10.097656 1.679688 -10.140625 1.828125 -10.140625 C 1.941406 -10.140625 2.039062 -10.097656 2.125 -10.015625 C 2.21875 -9.929688 2.265625 -9.828125 2.265625 -9.703125 L 2.265625 -3.703125 C 2.265625 -3.160156 2.394531 -2.660156 2.65625 -2.203125 C 2.914062 -1.753906 3.269531 -1.394531 3.71875 -1.125 C 4.164062 -0.863281 4.648438 -0.734375 5.171875 -0.734375 C 5.703125 -0.734375 6.191406 -0.863281 6.640625 -1.125 C 7.085938 -1.394531 7.441406 -1.753906 7.703125 -2.203125 C 7.972656 -2.660156 8.109375 -3.160156 8.109375 -3.703125 L 8.109375 -9.703125 C 8.109375 -9.828125 8.144531 -9.929688 8.21875 -10.015625 C 8.300781 -10.097656 8.40625 -10.140625 8.53125 -10.140625 Z M 8.53125 -10.140625 "/></g></g></g><g fill="#000000" fill-opacity="1"><g transform="translate(228.42608, 218.47686)"><g><path d="M 2.28125 -0.453125 C 2.269531 -0.328125 2.21875 -0.21875 2.125 -0.125 C 2.039062 -0.0390625 1.9375 0 1.8125 0 C 1.675781 0 1.566406 -0.0390625 1.484375 -0.125 C 1.398438 -0.207031 1.359375 -0.316406 1.359375 -0.453125 L 1.359375 -9.6875 C 1.359375 -9.820312 1.398438 -9.929688 1.484375 -10.015625 C 1.578125 -10.097656 1.691406 -10.140625 1.828125 -10.140625 C 1.953125 -10.140625 2.054688 -10.09375 2.140625 -10 C 2.234375 -9.914062 2.28125 -9.8125 2.28125 -9.6875 Z M 2.28125 -0.453125 "/></g></g></g><g fill="#000000" fill-opacity="1"><g transform="translate(139.196472, 178.17948)"><g><path d="M 3.125 -12.433594 C 4.050781 -16.886719 5.226562 -21.28125 6.929688 -25.484375 C 7.671875 -27.28125 8.414062 -29.074219 9.1875 -30.835938 C 9.371094 -31.269531 9.25 -31.425781 8.875 -31.546875 C 8.320312 -31.765625 8.105469 -31.394531 7.886719 -31.023438 C 7.113281 -29.601562 6.464844 -28.117188 5.816406 -26.628906 C 3.710938 -21.710938 2.382812 -16.578125 1.359375 -11.351562 C 0.648438 -7.792969 0.246094 -4.175781 -0.214844 -0.558594 C -0.246094 -0.214844 -0.246094 0.0625 0.09375 0.246094 C 0.710938 0.585938 1.082031 0.433594 1.207031 -0.246094 C 1.761719 -3.371094 2.628906 -6.402344 3.679688 -9.402344 C 4.917969 -12.898438 6.527344 -16.238281 8.289062 -19.515625 C 11.195312 -24.898438 14.535156 -30.03125 18.742188 -34.519531 C 21.21875 -37.179688 23.910156 -39.589844 27.1875 -41.292969 C 28.457031 -41.972656 29.753906 -42.496094 31.207031 -42.652344 C 32.722656 -42.777344 33.433594 -42.28125 33.835938 -40.828125 C 34.148438 -39.683594 34.085938 -38.507812 33.929688 -37.332031 C 33.464844 -33.898438 32.261719 -30.652344 30.898438 -27.464844 C 28.828125 -22.578125 26.351562 -17.878906 24.0625 -13.082031 C 22.363281 -9.496094 20.722656 -5.875 19.734375 -2.011719 C 19.484375 -1.082031 19.363281 -0.15625 19.238281 0.804688 C 19.175781 1.113281 19.332031 1.359375 19.640625 1.484375 C 19.949219 1.609375 20.199219 1.640625 20.570312 1.421875 C 21.03125 1.144531 21.28125 0.679688 21.621094 0.277344 C 23.042969 -1.390625 24.683594 -2.84375 26.507812 -4.113281 C 27.804688 -5.011719 29.136719 -5.90625 30.652344 -6.496094 C 31.457031 -6.773438 31.609375 -6.710938 31.765625 -5.847656 C 31.917969 -5.011719 31.949219 -4.175781 32.011719 -3.339844 C 32.199219 -0.804688 34.023438 0.710938 36.558594 0.402344 C 37.921875 0.246094 39.25 -0.125 40.550781 -0.617188 C 43.582031 -1.761719 46.394531 -3.339844 49.242188 -4.824219 C 49.519531 -4.980469 49.765625 -5.164062 50.042969 -5.320312 C 50.292969 -5.476562 50.199219 -5.597656 49.984375 -5.660156 C 49.796875 -5.753906 49.582031 -5.722656 49.394531 -5.660156 C 48.960938 -5.476562 48.5 -5.320312 48.097656 -5.101562 C 46.210938 -4.050781 44.324219 -3.03125 42.34375 -2.132812 C 40.425781 -1.238281 38.414062 -0.527344 36.28125 -0.277344 C 35.136719 -0.15625 34.546875 -0.527344 34.148438 -1.609375 C 34.085938 -1.855469 33.992188 -2.132812 33.960938 -2.414062 C 33.835938 -3.402344 33.777344 -4.390625 33.652344 -5.382812 C 33.496094 -6.617188 32.847656 -7.207031 31.640625 -7.421875 C 30.621094 -7.578125 29.722656 -7.300781 28.859375 -6.835938 C 26.476562 -5.566406 24.25 -4.144531 22.207031 -2.351562 C 22.085938 -2.226562 21.992188 -2.074219 21.710938 -2.042969 C 22.238281 -3.742188 22.796875 -5.351562 23.476562 -6.960938 C 25.300781 -11.476562 27.496094 -15.804688 29.660156 -20.167969 C 31.488281 -23.847656 33.25 -27.558594 34.519531 -31.488281 C 35.292969 -33.835938 35.816406 -36.25 35.816406 -38.722656 C 35.847656 -41.695312 33.960938 -43.519531 30.992188 -43.457031 C 30.464844 -43.457031 29.910156 -43.394531 29.414062 -43.269531 C 27.804688 -42.867188 26.320312 -42.15625 24.929688 -41.292969 C 21.621094 -39.28125 18.867188 -36.652344 16.394531 -33.746094 C 11.195312 -27.652344 7.238281 -20.785156 3.988281 -13.515625 C 3.617188 -12.648438 3.246094 -11.785156 2.84375 -10.824219 C 2.816406 -10.949219 2.816406 -11.011719 2.816406 -11.042969 C 2.90625 -11.507812 3 -11.96875 3.125 -12.433594 Z M 3.125 -12.433594 "/></g></g></g><g fill="#000000" fill-opacity="1"><g transform="translate(188.306752, 178.17948)"><g><path d="M 51.960938 -28.859375 C 53.261719 -30.992188 54.589844 -33.09375 55.921875 -35.230469 C 56.074219 -35.507812 56.167969 -35.753906 55.796875 -35.910156 C 55.550781 -36.003906 55.332031 -36.464844 54.960938 -35.910156 C 50.785156 -29.476562 46.703125 -22.980469 43.085938 -16.207031 C 40.859375 -12.03125 38.847656 -7.761719 36.992188 -3.464844 C 36.835938 -3.09375 36.652344 -2.9375 36.21875 -2.9375 C 34.175781 -2.90625 32.136719 -2.96875 30.0625 -3.214844 C 26.847656 -3.585938 23.722656 -4.453125 20.570312 -5.289062 C 20.074219 -5.414062 20.074219 -5.566406 20.257812 -6 C 22.515625 -11.535156 25.113281 -16.886719 27.960938 -22.144531 C 31.332031 -28.269531 34.859375 -34.269531 39.464844 -39.558594 C 39.621094 -39.746094 39.867188 -39.929688 39.746094 -40.179688 C 39.621094 -40.457031 39.3125 -40.457031 39.066406 -40.488281 C 38.816406 -40.519531 38.601562 -40.425781 38.351562 -40.332031 C 37.980469 -40.179688 37.609375 -39.992188 37.207031 -39.835938 C 33.375 -38.324219 29.414062 -37.207031 25.394531 -36.21875 C 21.773438 -35.320312 18.09375 -34.546875 14.535156 -33.40625 C 12.09375 -32.660156 9.773438 -31.640625 7.855469 -29.878906 C 5.535156 -27.773438 4.453125 -25.207031 5.320312 -22.085938 C 5.691406 -20.753906 6.433594 -19.609375 7.792969 -19.054688 C 8.011719 -18.992188 8.257812 -18.867188 8.566406 -19.023438 C 8.074219 -19.425781 7.609375 -19.796875 7.300781 -20.289062 C 5.660156 -23.011719 5.847656 -26.074219 7.855469 -28.546875 C 9.402344 -30.496094 11.507812 -31.609375 13.792969 -32.445312 C 16.453125 -33.464844 19.238281 -34.054688 21.992188 -34.765625 C 25.734375 -35.691406 29.507812 -36.527344 33.15625 -37.765625 C 34.578125 -38.261719 36.003906 -38.753906 37.457031 -39.25 C 36.15625 -37.703125 34.980469 -36.09375 33.867188 -34.425781 C 31.457031 -30.714844 29.136719 -26.972656 26.972656 -23.105469 C 23.910156 -17.628906 20.96875 -12.125 18.652344 -6.277344 C 18.496094 -5.90625 18.339844 -5.875 18 -5.96875 C 15.558594 -6.589844 13.050781 -7.019531 10.515625 -7.019531 C 8.414062 -7.019531 6.371094 -6.648438 4.453125 -5.691406 C 3.277344 -5.101562 2.257812 -4.300781 1.640625 -3.0625 C 1.515625 -2.84375 1.390625 -2.597656 1.515625 -2.320312 C 1.578125 -2.132812 1.699219 -2.042969 1.886719 -2.011719 C 2.101562 -2.011719 2.101562 -2.164062 2.164062 -2.289062 C 2.472656 -3 3 -3.558594 3.585938 -4.050781 C 5.074219 -5.351562 6.898438 -5.847656 8.785156 -6.15625 C 11.816406 -6.648438 14.785156 -6.1875 17.753906 -5.503906 C 18.1875 -5.382812 18.25 -5.257812 18.09375 -4.824219 C 17.351562 -2.875 16.640625 -0.929688 16.050781 1.082031 C 15.527344 2.84375 14.96875 4.609375 14.847656 6.464844 C 14.816406 7.175781 14.9375 7.824219 15.21875 8.445312 C 15.371094 8.847656 15.710938 9.0625 16.144531 9.0625 C 16.484375 9.09375 16.796875 9.03125 16.980469 8.722656 C 17.136719 8.503906 17.105469 8.320312 16.855469 8.289062 C 16.394531 8.226562 16.394531 7.949219 16.394531 7.609375 C 16.394531 6.773438 16.484375 5.9375 16.640625 5.132812 C 17.226562 2.132812 18.25 -0.773438 19.332031 -3.617188 C 19.484375 -4.019531 19.515625 -4.609375 19.886719 -4.792969 C 20.257812 -4.980469 20.785156 -4.671875 21.21875 -4.515625 C 26.042969 -3.09375 30.960938 -2.074219 36.035156 -2.226562 C 36.589844 -2.226562 36.3125 -1.949219 36.21875 -1.730469 C 35.074219 0.988281 34.117188 3.773438 33.433594 6.648438 C 32.816406 9.0625 32.351562 11.535156 32.445312 14.042969 C 32.476562 15.25 32.816406 16.332031 33.496094 17.289062 C 33.804688 17.722656 34.175781 18.03125 34.703125 18.125 C 34.828125 18.125 34.921875 18.125 34.980469 18.03125 C 35.074219 17.910156 34.949219 17.847656 34.890625 17.785156 C 34.300781 17.136719 34.023438 16.363281 33.898438 15.527344 C 33.714844 14.136719 33.804688 12.710938 34.054688 11.320312 C 34.828125 7.019531 36.09375 2.90625 37.734375 -1.113281 C 38.199219 -2.320312 38.230469 -2.289062 39.496094 -2.445312 C 41.847656 -2.691406 44.105469 -3.214844 46.269531 -4.238281 C 46.984375 -4.609375 47.664062 -5.011719 48.375 -5.414062 C 48.035156 -5.847656 47.632812 -5.90625 47.011719 -5.566406 C 44.664062 -4.300781 42.125 -3.558594 39.464844 -3.1875 C 38.539062 -3.0625 38.539062 -3.0625 38.910156 -3.929688 C 42.558594 -12.621094 47.105469 -20.816406 51.960938 -28.859375 Z M 51.960938 -28.859375 "/></g></g></g></svg>