<svg xmlns="http://www.w3.org/2000/svg" xmlns:xlink="http://www.w3.org/1999/xlink" width="500" zoomAndPan="magnify" viewBox="0 0 375 374.999991" height="500" preserveAspectRatio="xMidYMid meet" version="1.0"><defs><g/></defs><g fill="#fe0000" fill-opacity="0.302"><g transform="translate(83.679357, 198.770522)"><g><path d="M 88.382812 -45.519531 C 86.144531 -33.21875 81.703125 -27.152344 77.0625 -26.34375 C 75.085938 -26 73.578125 -27.058594 73.234375 -29.035156 C 73.078125 -29.925781 73.183594 -31.0625 73.375 -32.316406 L 81.714844 -78.5625 C 82.144531 -80.777344 82.242188 -83.132812 81.761719 -85.902344 C 80.144531 -95.191406 72.121094 -100.917969 62.042969 -99.164062 C 56.113281 -98.132812 49.414062 -94.523438 45.613281 -88.875 C 41.742188 -92.984375 38.328125 -95.039062 31.609375 -93.867188 C 25.285156 -92.765625 21.824219 -88.09375 21.515625 -87.527344 C 20.292969 -89.863281 17.183594 -91.355469 13.429688 -90.703125 C 10.5625 -90.203125 6.816406 -88.332031 6.105469 -84.234375 L -6.90625 -8.671875 C -7.128906 -7.617188 -6.972656 -6.726562 -6.820312 -5.835938 C -6.0625 -1.488281 -2.171875 0.378906 1.679688 -0.292969 C 5.039062 -0.878906 8.351562 -3.488281 9.175781 -8.113281 L 18.992188 -64.589844 C 20.210938 -71.625 23.265625 -75.71875 27.710938 -76.492188 C 32.851562 -77.386719 34.921875 -73.675781 33.496094 -65.488281 L 24.476562 -14.949219 C 24.222656 -13.480469 24.152344 -12.144531 24.339844 -11.058594 C 25.082031 -6.808594 28.953125 -5.039062 32.707031 -5.691406 C 36.164062 -6.296875 39.476562 -8.90625 40.285156 -13.628906 L 49.75 -68.621094 C 50.949219 -75.753906 54.109375 -80.988281 58.953125 -81.828125 C 62.804688 -82.5 65.960938 -79.589844 65.023438 -74.4375 L 57.847656 -33.789062 C 57.40625 -31.066406 57.394531 -28.214844 57.789062 -25.941406 C 59.492188 -16.15625 68.277344 -11.886719 77.863281 -13.554688 C 88.730469 -15.445312 97.867188 -24.367188 100.640625 -44.699219 C 100.699219 -45.523438 100.777344 -46.25 100.65625 -46.941406 C 100.054688 -50.402344 96.746094 -51.859375 93.78125 -51.34375 C 91.214844 -50.898438 89 -48.984375 88.382812 -45.519531 Z M 88.382812 -45.519531 "/></g></g></g><g fill="#fe0000" fill-opacity="0.302"><g transform="translate(173.69242, 183.102273)"><g><path d="M 14.902344 -71.71875 C 19.347656 -72.492188 22.367188 -76.785156 21.578125 -81.328125 C 20.800781 -85.777344 16.527344 -88.695312 12.082031 -87.921875 C 7.632812 -87.148438 4.597656 -82.957031 5.371094 -78.507812 C 6.164062 -73.964844 10.453125 -70.945312 14.902344 -71.71875 Z M 10.332031 -19.003906 L 15.800781 -51.921875 C 15.972656 -53.273438 16.226562 -54.746094 16.054688 -55.734375 C 15.296875 -60.078125 11.640625 -61.785156 8.28125 -61.199219 C 5.21875 -60.667969 2.335938 -57.925781 1.566406 -53.007812 C 0.0195312 -43.167969 -2.082031 -30.6875 -3.644531 -20.949219 C -3.894531 -18.867188 -4.222656 -16.0625 -3.929688 -14.382812 C -2.3125 -5.09375 6.324219 -1.101562 15.414062 -2.683594 C 25.097656 -4.367188 34.738281 -12.15625 38.09375 -33.8125 C 38.1875 -34.441406 38.183594 -35.050781 38.082031 -35.640625 C 37.546875 -38.707031 34.257812 -40.066406 31.292969 -39.550781 C 28.625 -39.085938 26.195312 -37.238281 25.542969 -33.96875 C 23.136719 -20.316406 18.605469 -15.351562 14.652344 -14.664062 C 12.378906 -14.269531 10.640625 -15.492188 10.3125 -17.371094 C 10.226562 -17.863281 10.238281 -18.375 10.332031 -19.003906 Z M 10.332031 -19.003906 "/></g></g></g><g fill="#fe0000" fill-opacity="0.302"><g transform="translate(200.963115, 178.355361)"><g><path d="M 50.183594 -38.054688 C 47.898438 -25.441406 43.308594 -19.652344 38.664062 -18.84375 C 36.882812 -18.535156 35.742188 -19.253906 35.449219 -20.933594 C 35.328125 -21.625 35.386719 -22.449219 35.511719 -23.488281 L 39.402344 -46.765625 C 39.75 -48.863281 39.835938 -50.710938 39.542969 -52.390625 C 38.167969 -60.292969 30.414062 -65.054688 22.511719 -63.675781 C 18.65625 -63.007812 15.75 -61.582031 13.507812 -59.257812 C 12.605469 -60.933594 9.960938 -61.492188 7.292969 -61.027344 C 4.527344 -60.546875 2.082031 -58.796875 1.578125 -55.859375 L -6.890625 -6.84375 C -7.035156 -5.902344 -6.996094 -5.09375 -6.855469 -4.304688 C -6.222656 -0.648438 -3.027344 0.730469 0.132812 0.179688 C 3.589844 -0.421875 7.164062 -3.285156 7.875 -7.988281 C 9.664062 -18.175781 12.050781 -32.535156 13.757812 -42.605469 C 15.566406 -48.011719 18.613281 -50.984375 21.378906 -51.46875 C 23.15625 -51.777344 24.648438 -50.816406 24.976562 -48.9375 C 25.09375 -48.246094 25.050781 -47.320312 24.910156 -46.382812 L 21.242188 -24.769531 C 20.847656 -22.359375 20.730469 -20.101562 21.089844 -18.027344 C 22.675781 -8.933594 31.027344 -5.402344 39.425781 -6.863281 C 49.503906 -8.617188 59.085938 -17.308594 62.550781 -37.765625 C 62.710938 -38.605469 62.769531 -39.429688 62.648438 -40.121094 C 62.097656 -43.285156 58.941406 -44.464844 55.976562 -43.949219 C 53.308594 -43.484375 50.601562 -41.488281 50.183594 -38.054688 Z M 50.183594 -38.054688 "/></g></g></g><g fill="#fe0000" fill-opacity="0.502"><g transform="translate(78.992879, 193.542643)"><g><path d="M 88.382812 -45.519531 C 86.144531 -33.21875 81.703125 -27.152344 77.0625 -26.34375 C 75.085938 -26 73.578125 -27.058594 73.234375 -29.035156 C 73.078125 -29.925781 73.183594 -31.0625 73.375 -32.316406 L 81.714844 -78.5625 C 82.144531 -80.777344 82.242188 -83.132812 81.761719 -85.902344 C 80.144531 -95.191406 72.121094 -100.917969 62.042969 -99.164062 C 56.113281 -98.132812 49.414062 -94.523438 45.613281 -88.875 C 41.742188 -92.984375 38.328125 -95.039062 31.609375 -93.867188 C 25.285156 -92.765625 21.824219 -88.09375 21.515625 -87.527344 C 20.292969 -89.863281 17.183594 -91.355469 13.429688 -90.703125 C 10.5625 -90.203125 6.816406 -88.332031 6.105469 -84.234375 L -6.90625 -8.671875 C -7.128906 -7.617188 -6.972656 -6.726562 -6.820312 -5.835938 C -6.0625 -1.488281 -2.171875 0.378906 1.679688 -0.292969 C 5.039062 -0.878906 8.351562 -3.488281 9.175781 -8.113281 L 18.992188 -64.589844 C 20.210938 -71.625 23.265625 -75.71875 27.710938 -76.492188 C 32.851562 -77.386719 34.921875 -73.675781 33.496094 -65.488281 L 24.476562 -14.949219 C 24.222656 -13.480469 24.152344 -12.144531 24.339844 -11.058594 C 25.082031 -6.808594 28.953125 -5.039062 32.707031 -5.691406 C 36.164062 -6.296875 39.476562 -8.90625 40.285156 -13.628906 L 49.75 -68.621094 C 50.949219 -75.753906 54.109375 -80.988281 58.953125 -81.828125 C 62.804688 -82.5 65.960938 -79.589844 65.023438 -74.4375 L 57.847656 -33.789062 C 57.40625 -31.066406 57.394531 -28.214844 57.789062 -25.941406 C 59.492188 -16.15625 68.277344 -11.886719 77.863281 -13.554688 C 88.730469 -15.445312 97.867188 -24.367188 100.640625 -44.699219 C 100.699219 -45.523438 100.777344 -46.25 100.65625 -46.941406 C 100.054688 -50.402344 96.746094 -51.859375 93.78125 -51.34375 C 91.214844 -50.898438 89 -48.984375 88.382812 -45.519531 Z M 88.382812 -45.519531 "/></g></g></g><g fill="#fe0000" fill-opacity="0.502"><g transform="translate(169.005942, 177.874394)"><g><path d="M 14.902344 -71.71875 C 19.347656 -72.492188 22.367188 -76.785156 21.578125 -81.328125 C 20.800781 -85.777344 16.527344 -88.695312 12.082031 -87.921875 C 7.632812 -87.148438 4.597656 -82.957031 5.371094 -78.507812 C 6.164062 -73.964844 10.453125 -70.945312 14.902344 -71.71875 Z M 10.332031 -19.003906 L 15.800781 -51.921875 C 15.972656 -53.273438 16.226562 -54.746094 16.054688 -55.734375 C 15.296875 -60.078125 11.640625 -61.785156 8.28125 -61.199219 C 5.21875 -60.667969 2.335938 -57.925781 1.566406 -53.007812 C 0.0195312 -43.167969 -2.082031 -30.6875 -3.644531 -20.949219 C -3.894531 -18.867188 -4.222656 -16.0625 -3.929688 -14.382812 C -2.3125 -5.09375 6.324219 -1.101562 15.414062 -2.683594 C 25.097656 -4.367188 34.738281 -12.15625 38.09375 -33.8125 C 38.1875 -34.441406 38.183594 -35.050781 38.082031 -35.640625 C 37.546875 -38.707031 34.257812 -40.066406 31.292969 -39.550781 C 28.625 -39.085938 26.195312 -37.238281 25.542969 -33.96875 C 23.136719 -20.316406 18.605469 -15.351562 14.652344 -14.664062 C 12.378906 -14.269531 10.640625 -15.492188 10.3125 -17.371094 C 10.226562 -17.863281 10.238281 -18.375 10.332031 -19.003906 Z M 10.332031 -19.003906 "/></g></g></g><g fill="#fe0000" fill-opacity="0.502"><g transform="translate(196.276637, 173.127482)"><g><path d="M 50.183594 -38.054688 C 47.898438 -25.441406 43.308594 -19.652344 38.664062 -18.84375 C 36.882812 -18.535156 35.742188 -19.253906 35.449219 -20.933594 C 35.328125 -21.625 35.386719 -22.449219 35.511719 -23.488281 L 39.402344 -46.765625 C 39.75 -48.863281 39.835938 -50.710938 39.542969 -52.390625 C 38.167969 -60.292969 30.414062 -65.054688 22.511719 -63.675781 C 18.65625 -63.007812 15.75 -61.582031 13.507812 -59.257812 C 12.605469 -60.933594 9.960938 -61.492188 7.292969 -61.027344 C 4.527344 -60.546875 2.082031 -58.796875 1.578125 -55.859375 L -6.890625 -6.84375 C -7.035156 -5.902344 -6.996094 -5.09375 -6.855469 -4.304688 C -6.222656 -0.648438 -3.027344 0.730469 0.132812 0.179688 C 3.589844 -0.421875 7.164062 -3.285156 7.875 -7.988281 C 9.664062 -18.175781 12.050781 -32.535156 13.757812 -42.605469 C 15.566406 -48.011719 18.613281 -50.984375 21.378906 -51.46875 C 23.15625 -51.777344 24.648438 -50.816406 24.976562 -48.9375 C 25.09375 -48.246094 25.050781 -47.320312 24.910156 -46.382812 L 21.242188 -24.769531 C 20.847656 -22.359375 20.730469 -20.101562 21.089844 -18.027344 C 22.675781 -8.933594 31.027344 -5.402344 39.425781 -6.863281 C 49.503906 -8.617188 59.085938 -17.308594 62.550781 -37.765625 C 62.710938 -38.605469 62.769531 -39.429688 62.648438 -40.121094 C 62.097656 -43.285156 58.941406 -44.464844 55.976562 -43.949219 C 53.308594 -43.484375 50.601562 -41.488281 50.183594 -38.054688 Z M 50.183594 -38.054688 "/></g></g></g><g fill="#f9e1e1" fill-opacity="1"><g transform="translate(74.306398, 188.314769)"><g><path d="M 88.382812 -45.519531 C 86.144531 -33.21875 81.703125 -27.152344 77.0625 -26.34375 C 75.085938 -26 73.578125 -27.058594 73.234375 -29.035156 C 73.078125 -29.925781 73.183594 -31.0625 73.375 -32.316406 L 81.714844 -78.5625 C 82.144531 -80.777344 82.242188 -83.132812 81.761719 -85.902344 C 80.144531 -95.191406 72.121094 -100.917969 62.042969 -99.164062 C 56.113281 -98.132812 49.414062 -94.523438 45.613281 -88.875 C 41.742188 -92.984375 38.328125 -95.039062 31.609375 -93.867188 C 25.285156 -92.765625 21.824219 -88.09375 21.515625 -87.527344 C 20.292969 -89.863281 17.183594 -91.355469 13.429688 -90.703125 C 10.5625 -90.203125 6.816406 -88.332031 6.105469 -84.234375 L -6.90625 -8.671875 C -7.128906 -7.617188 -6.972656 -6.726562 -6.820312 -5.835938 C -6.0625 -1.488281 -2.171875 0.378906 1.679688 -0.292969 C 5.039062 -0.878906 8.351562 -3.488281 9.175781 -8.113281 L 18.992188 -64.589844 C 20.210938 -71.625 23.265625 -75.71875 27.710938 -76.492188 C 32.851562 -77.386719 34.921875 -73.675781 33.496094 -65.488281 L 24.476562 -14.949219 C 24.222656 -13.480469 24.152344 -12.144531 24.339844 -11.058594 C 25.082031 -6.808594 28.953125 -5.039062 32.707031 -5.691406 C 36.164062 -6.296875 39.476562 -8.90625 40.285156 -13.628906 L 49.75 -68.621094 C 50.949219 -75.753906 54.109375 -80.988281 58.953125 -81.828125 C 62.804688 -82.5 65.960938 -79.589844 65.023438 -74.4375 L 57.847656 -33.789062 C 57.40625 -31.066406 57.394531 -28.214844 57.789062 -25.941406 C 59.492188 -16.15625 68.277344 -11.886719 77.863281 -13.554688 C 88.730469 -15.445312 97.867188 -24.367188 100.640625 -44.699219 C 100.699219 -45.523438 100.777344 -46.25 100.65625 -46.941406 C 100.054688 -50.402344 96.746094 -51.859375 93.78125 -51.34375 C 91.214844 -50.898438 89 -48.984375 88.382812 -45.519531 Z M 88.382812 -45.519531 "/></g></g></g><g fill="#f9e1e1" fill-opacity="1"><g transform="translate(164.319461, 172.64652)"><g><path d="M 14.902344 -71.71875 C 19.347656 -72.492188 22.367188 -76.785156 21.578125 -81.328125 C 20.800781 -85.777344 16.527344 -88.695312 12.082031 -87.921875 C 7.632812 -87.148438 4.597656 -82.957031 5.371094 -78.507812 C 6.164062 -73.964844 10.453125 -70.945312 14.902344 -71.71875 Z M 10.332031 -19.003906 L 15.800781 -51.921875 C 15.972656 -53.273438 16.226562 -54.746094 16.054688 -55.734375 C 15.296875 -60.078125 11.640625 -61.785156 8.28125 -61.199219 C 5.21875 -60.667969 2.335938 -57.925781 1.566406 -53.007812 C 0.0195312 -43.167969 -2.082031 -30.6875 -3.644531 -20.949219 C -3.894531 -18.867188 -4.222656 -16.0625 -3.929688 -14.382812 C -2.3125 -5.09375 6.324219 -1.101562 15.414062 -2.683594 C 25.097656 -4.367188 34.738281 -12.15625 38.09375 -33.8125 C 38.1875 -34.441406 38.183594 -35.050781 38.082031 -35.640625 C 37.546875 -38.707031 34.257812 -40.066406 31.292969 -39.550781 C 28.625 -39.085938 26.195312 -37.238281 25.542969 -33.96875 C 23.136719 -20.316406 18.605469 -15.351562 14.652344 -14.664062 C 12.378906 -14.269531 10.640625 -15.492188 10.3125 -17.371094 C 10.226562 -17.863281 10.238281 -18.375 10.332031 -19.003906 Z M 10.332031 -19.003906 "/></g></g></g><g fill="#f9e1e1" fill-opacity="1"><g transform="translate(191.590155, 167.899608)"><g><path d="M 50.183594 -38.054688 C 47.898438 -25.441406 43.308594 -19.652344 38.664062 -18.84375 C 36.882812 -18.535156 35.742188 -19.253906 35.449219 -20.933594 C 35.328125 -21.625 35.386719 -22.449219 35.511719 -23.488281 L 39.402344 -46.765625 C 39.75 -48.863281 39.835938 -50.710938 39.542969 -52.390625 C 38.167969 -60.292969 30.414062 -65.054688 22.511719 -63.675781 C 18.65625 -63.007812 15.75 -61.582031 13.507812 -59.257812 C 12.605469 -60.933594 9.960938 -61.492188 7.292969 -61.027344 C 4.527344 -60.546875 2.082031 -58.796875 1.578125 -55.859375 L -6.890625 -6.84375 C -7.035156 -5.902344 -6.996094 -5.09375 -6.855469 -4.304688 C -6.222656 -0.648438 -3.027344 0.730469 0.132812 0.179688 C 3.589844 -0.421875 7.164062 -3.285156 7.875 -7.988281 C 9.664062 -18.175781 12.050781 -32.535156 13.757812 -42.605469 C 15.566406 -48.011719 18.613281 -50.984375 21.378906 -51.46875 C 23.15625 -51.777344 24.648438 -50.816406 24.976562 -48.9375 C 25.09375 -48.246094 25.050781 -47.320312 24.910156 -46.382812 L 21.242188 -24.769531 C 20.847656 -22.359375 20.730469 -20.101562 21.089844 -18.027344 C 22.675781 -8.933594 31.027344 -5.402344 39.425781 -6.863281 C 49.503906 -8.617188 59.085938 -17.308594 62.550781 -37.765625 C 62.710938 -38.605469 62.769531 -39.429688 62.648438 -40.121094 C 62.097656 -43.285156 58.941406 -44.464844 55.976562 -43.949219 C 53.308594 -43.484375 50.601562 -41.488281 50.183594 -38.054688 Z M 50.183594 -38.054688 "/></g></g></g><g fill="#fe0000" fill-opacity="0.302"><g transform="translate(152.284629, 278.42057)"><g><path d="M 61.113281 -39.632812 C 58.75 -27.496094 54.085938 -19.671875 48.285156 -18.796875 C 46.054688 -18.460938 44.449219 -19.402344 44.058594 -21.992188 C 43.871094 -23.242188 43.921875 -24.710938 44.277344 -26.589844 L 53.359375 -77.078125 C 53.539062 -78.292969 53.570312 -79.300781 53.421875 -80.28125 C 52.789062 -84.476562 49.171875 -86.671875 45.691406 -86.144531 C 42.746094 -85.699219 39.902344 -83.351562 38.984375 -78.558594 C 37.464844 -70.476562 35.691406 -59.253906 34.261719 -51.1875 L 18.820312 -48.855469 L 23.113281 -72.417969 C 23.359375 -73.824219 23.363281 -75.011719 23.1875 -76.171875 C 22.566406 -80.277344 19.269531 -82.152344 16.058594 -81.667969 C 12.933594 -81.195312 9.773438 -78.527344 9.136719 -73.683594 L 4.003906 -46.617188 L 0.078125 -46.023438 C -5.367188 -45.203125 -7.167969 -42.007812 -6.734375 -39.152344 C -6.316406 -36.386719 -3.757812 -33.941406 -0.367188 -34.453125 L 1.777344 -34.777344 L -2.96875 -8.773438 C -3.175781 -7.738281 -3.207031 -6.726562 -3.085938 -5.925781 C -2.507812 -2.085938 1.25 -0.1875 4.820312 -0.726562 C 7.765625 -1.171875 10.632812 -3.339844 11.277344 -7.546875 C 12.804688 -16.175781 15.066406 -28.386719 16.59375 -37.015625 C 22.214844 -37.863281 26.84375 -38.65625 32.199219 -39.464844 C 31.246094 -34.296875 30.65625 -31.5625 29.75 -26.679688 C 29.371094 -24.339844 29.351562 -22.054688 29.664062 -20 C 31.089844 -10.539062 39.628906 -5.984375 48.914062 -7.386719 C 62.300781 -9.410156 69.425781 -22.082031 72.304688 -38.675781 C 72.402344 -39.238281 72.421875 -40.335938 72.351562 -40.78125 C 71.933594 -43.546875 69.027344 -44.660156 66.261719 -44.242188 C 63.761719 -43.867188 61.4375 -42.328125 61.113281 -39.632812 Z M 61.113281 -39.632812 "/></g></g></g><g fill="#fe0000" fill-opacity="0.302"><g transform="translate(213.604258, 269.158491)"><g><path d="M 47.234375 -33.609375 C 44.835938 -22.292969 40.613281 -17 36.507812 -16.378906 C 34.902344 -16.136719 33.695312 -16.867188 33.507812 -18.117188 C 33.453125 -18.472656 33.460938 -19.023438 33.574219 -19.496094 L 39.691406 -50.910156 C 39.914062 -51.859375 39.882812 -52.675781 39.761719 -53.476562 C 39.222656 -57.046875 35.734375 -58.988281 32.519531 -58.5 C 29.929688 -58.109375 27.484375 -56.1875 26.710938 -52.238281 L 21.03125 -23.351562 C 19.273438 -18.066406 16.070312 -13.292969 12.5 -12.75 C 11.160156 -12.550781 10.3125 -13.335938 10.109375 -14.671875 C 10 -15.386719 10.003906 -16.574219 10.136719 -17.507812 L 15.660156 -46.824219 C 15.867188 -47.859375 15.910156 -48.78125 15.777344 -49.671875 C 15.222656 -53.332031 11.632812 -55.347656 8.332031 -54.847656 C 5.832031 -54.46875 3.382812 -52.546875 2.671875 -48.789062 L -3.171875 -16.773438 C -3.464844 -15.085938 -3.492188 -13.441406 -3.261719 -11.921875 C -2.167969 -4.695312 4.460938 -0.675781 11.960938 -1.804688 C 17.316406 -2.617188 20.941406 -5.8125 23.703125 -9.878906 C 26.871094 -6.433594 32.042969 -4.839844 37.398438 -5.648438 C 45.878906 -6.929688 54.8125 -13.664062 58.34375 -33.1875 C 58.441406 -33.75 58.449219 -34.300781 58.371094 -34.835938 C 57.9375 -37.691406 55.003906 -38.984375 52.238281 -38.566406 C 49.917969 -38.214844 47.695312 -36.601562 47.234375 -33.609375 Z M 47.234375 -33.609375 "/></g></g></g><g fill="#fe0000" fill-opacity="0.302"><g transform="translate(261.713843, 261.891736)"><g><path d="M 14.855469 -64.234375 C 18.871094 -64.839844 21.675781 -68.640625 21.054688 -72.746094 C 20.449219 -76.761719 16.660156 -79.476562 12.644531 -78.871094 C 8.628906 -78.265625 5.8125 -74.550781 6.417969 -70.535156 C 7.039062 -66.429688 10.839844 -63.625 14.855469 -64.234375 Z M 9.683594 -16.890625 L 15.265625 -46.402344 C 15.449219 -47.617188 15.707031 -48.933594 15.570312 -49.824219 C 14.976562 -53.753906 11.722656 -55.359375 8.6875 -54.902344 C 5.921875 -54.484375 3.273438 -52.074219 2.476562 -47.664062 C 0.890625 -38.84375 -1.253906 -27.65625 -2.859375 -18.921875 C -3.125 -17.054688 -3.472656 -14.539062 -3.246094 -13.019531 C -1.976562 -4.632812 5.710938 -0.863281 13.925781 -2.101562 C 22.671875 -3.425781 31.503906 -10.234375 34.960938 -29.65625 C 35.058594 -30.21875 35.066406 -30.765625 34.984375 -31.304688 C 34.566406 -34.070312 31.632812 -35.363281 28.957031 -34.957031 C 26.546875 -34.59375 24.324219 -32.980469 23.671875 -30.050781 C 21.226562 -17.8125 17.050781 -13.4375 13.480469 -12.898438 C 11.425781 -12.589844 9.886719 -13.726562 9.628906 -15.421875 C 9.5625 -15.867188 9.585938 -16.328125 9.683594 -16.890625 Z M 9.683594 -16.890625 "/></g></g></g><g fill="#fe0000" fill-opacity="0.502"><g transform="translate(148.173343, 273.622049)"><g><path d="M 61.113281 -39.632812 C 58.75 -27.496094 54.085938 -19.671875 48.285156 -18.796875 C 46.054688 -18.460938 44.449219 -19.402344 44.058594 -21.992188 C 43.871094 -23.242188 43.921875 -24.710938 44.277344 -26.589844 L 53.359375 -77.078125 C 53.539062 -78.292969 53.570312 -79.300781 53.421875 -80.28125 C 52.789062 -84.476562 49.171875 -86.671875 45.691406 -86.144531 C 42.746094 -85.699219 39.902344 -83.351562 38.984375 -78.558594 C 37.464844 -70.476562 35.691406 -59.253906 34.261719 -51.1875 L 18.820312 -48.855469 L 23.113281 -72.417969 C 23.359375 -73.824219 23.363281 -75.011719 23.1875 -76.171875 C 22.566406 -80.277344 19.269531 -82.152344 16.058594 -81.667969 C 12.933594 -81.195312 9.773438 -78.527344 9.136719 -73.683594 L 4.003906 -46.617188 L 0.078125 -46.023438 C -5.367188 -45.203125 -7.167969 -42.007812 -6.734375 -39.152344 C -6.316406 -36.386719 -3.757812 -33.941406 -0.367188 -34.453125 L 1.777344 -34.777344 L -2.96875 -8.773438 C -3.175781 -7.738281 -3.207031 -6.726562 -3.085938 -5.925781 C -2.507812 -2.085938 1.25 -0.1875 4.820312 -0.726562 C 7.765625 -1.171875 10.632812 -3.339844 11.277344 -7.546875 C 12.804688 -16.175781 15.066406 -28.386719 16.59375 -37.015625 C 22.214844 -37.863281 26.84375 -38.65625 32.199219 -39.464844 C 31.246094 -34.296875 30.65625 -31.5625 29.75 -26.679688 C 29.371094 -24.339844 29.351562 -22.054688 29.664062 -20 C 31.089844 -10.539062 39.628906 -5.984375 48.914062 -7.386719 C 62.300781 -9.410156 69.425781 -22.082031 72.304688 -38.675781 C 72.402344 -39.238281 72.421875 -40.335938 72.351562 -40.78125 C 71.933594 -43.546875 69.027344 -44.660156 66.261719 -44.242188 C 63.761719 -43.867188 61.4375 -42.328125 61.113281 -39.632812 Z M 61.113281 -39.632812 "/></g></g></g><g fill="#fe0000" fill-opacity="0.502"><g transform="translate(209.492972, 264.35997)"><g><path d="M 47.234375 -33.609375 C 44.835938 -22.292969 40.613281 -17 36.507812 -16.378906 C 34.902344 -16.136719 33.695312 -16.867188 33.507812 -18.117188 C 33.453125 -18.472656 33.460938 -19.023438 33.574219 -19.496094 L 39.691406 -50.910156 C 39.914062 -51.859375 39.882812 -52.675781 39.761719 -53.476562 C 39.222656 -57.046875 35.734375 -58.988281 32.519531 -58.5 C 29.929688 -58.109375 27.484375 -56.1875 26.710938 -52.238281 L 21.03125 -23.351562 C 19.273438 -18.066406 16.070312 -13.292969 12.5 -12.75 C 11.160156 -12.550781 10.3125 -13.335938 10.109375 -14.671875 C 10 -15.386719 10.003906 -16.574219 10.136719 -17.507812 L 15.660156 -46.824219 C 15.867188 -47.859375 15.910156 -48.78125 15.777344 -49.671875 C 15.222656 -53.332031 11.632812 -55.347656 8.332031 -54.847656 C 5.832031 -54.46875 3.382812 -52.546875 2.671875 -48.789062 L -3.171875 -16.773438 C -3.464844 -15.085938 -3.492188 -13.441406 -3.261719 -11.921875 C -2.167969 -4.695312 4.460938 -0.675781 11.960938 -1.804688 C 17.316406 -2.617188 20.941406 -5.8125 23.703125 -9.878906 C 26.871094 -6.433594 32.042969 -4.839844 37.398438 -5.648438 C 45.878906 -6.929688 54.8125 -13.664062 58.34375 -33.1875 C 58.441406 -33.75 58.449219 -34.300781 58.371094 -34.835938 C 57.9375 -37.691406 55.003906 -38.984375 52.238281 -38.566406 C 49.917969 -38.214844 47.695312 -36.601562 47.234375 -33.609375 Z M 47.234375 -33.609375 "/></g></g></g><g fill="#fe0000" fill-opacity="0.502"><g transform="translate(257.602556, 257.093214)"><g><path d="M 14.855469 -64.234375 C 18.871094 -64.839844 21.675781 -68.640625 21.054688 -72.746094 C 20.449219 -76.761719 16.660156 -79.476562 12.644531 -78.871094 C 8.628906 -78.265625 5.8125 -74.550781 6.417969 -70.535156 C 7.039062 -66.429688 10.839844 -63.625 14.855469 -64.234375 Z M 9.683594 -16.890625 L 15.265625 -46.402344 C 15.449219 -47.617188 15.707031 -48.933594 15.570312 -49.824219 C 14.976562 -53.753906 11.722656 -55.359375 8.6875 -54.902344 C 5.921875 -54.484375 3.273438 -52.074219 2.476562 -47.664062 C 0.890625 -38.84375 -1.253906 -27.65625 -2.859375 -18.921875 C -3.125 -17.054688 -3.472656 -14.539062 -3.246094 -13.019531 C -1.976562 -4.632812 5.710938 -0.863281 13.925781 -2.101562 C 22.671875 -3.425781 31.503906 -10.234375 34.960938 -29.65625 C 35.058594 -30.21875 35.066406 -30.765625 34.984375 -31.304688 C 34.566406 -34.070312 31.632812 -35.363281 28.957031 -34.957031 C 26.546875 -34.59375 24.324219 -32.980469 23.671875 -30.050781 C 21.226562 -17.8125 17.050781 -13.4375 13.480469 -12.898438 C 11.425781 -12.589844 9.886719 -13.726562 9.628906 -15.421875 C 9.5625 -15.867188 9.585938 -16.328125 9.683594 -16.890625 Z M 9.683594 -16.890625 "/></g></g></g><g fill="#f9e1e1" fill-opacity="1"><g transform="translate(144.062058, 268.823528)"><g><path d="M 61.113281 -39.632812 C 58.75 -27.496094 54.085938 -19.671875 48.285156 -18.796875 C 46.054688 -18.460938 44.449219 -19.402344 44.058594 -21.992188 C 43.871094 -23.242188 43.921875 -24.710938 44.277344 -26.589844 L 53.359375 -77.078125 C 53.539062 -78.292969 53.570312 -79.300781 53.421875 -80.28125 C 52.789062 -84.476562 49.171875 -86.671875 45.691406 -86.144531 C 42.746094 -85.699219 39.902344 -83.351562 38.984375 -78.558594 C 37.464844 -70.476562 35.691406 -59.253906 34.261719 -51.1875 L 18.820312 -48.855469 L 23.113281 -72.417969 C 23.359375 -73.824219 23.363281 -75.011719 23.1875 -76.171875 C 22.566406 -80.277344 19.269531 -82.152344 16.058594 -81.667969 C 12.933594 -81.195312 9.773438 -78.527344 9.136719 -73.683594 L 4.003906 -46.617188 L 0.078125 -46.023438 C -5.367188 -45.203125 -7.167969 -42.007812 -6.734375 -39.152344 C -6.316406 -36.386719 -3.757812 -33.941406 -0.367188 -34.453125 L 1.777344 -34.777344 L -2.96875 -8.773438 C -3.175781 -7.738281 -3.207031 -6.726562 -3.085938 -5.925781 C -2.507812 -2.085938 1.25 -0.1875 4.820312 -0.726562 C 7.765625 -1.171875 10.632812 -3.339844 11.277344 -7.546875 C 12.804688 -16.175781 15.066406 -28.386719 16.59375 -37.015625 C 22.214844 -37.863281 26.84375 -38.65625 32.199219 -39.464844 C 31.246094 -34.296875 30.65625 -31.5625 29.75 -26.679688 C 29.371094 -24.339844 29.351562 -22.054688 29.664062 -20 C 31.089844 -10.539062 39.628906 -5.984375 48.914062 -7.386719 C 62.300781 -9.410156 69.425781 -22.082031 72.304688 -38.675781 C 72.402344 -39.238281 72.421875 -40.335938 72.351562 -40.78125 C 71.933594 -43.546875 69.027344 -44.660156 66.261719 -44.242188 C 63.761719 -43.867188 61.4375 -42.328125 61.113281 -39.632812 Z M 61.113281 -39.632812 "/></g></g></g><g fill="#f9e1e1" fill-opacity="1"><g transform="translate(205.381687, 259.561449)"><g><path d="M 47.234375 -33.609375 C 44.835938 -22.292969 40.613281 -17 36.507812 -16.378906 C 34.902344 -16.136719 33.695312 -16.867188 33.507812 -18.117188 C 33.453125 -18.472656 33.460938 -19.023438 33.574219 -19.496094 L 39.691406 -50.910156 C 39.914062 -51.859375 39.882812 -52.675781 39.761719 -53.476562 C 39.222656 -57.046875 35.734375 -58.988281 32.519531 -58.5 C 29.929688 -58.109375 27.484375 -56.1875 26.710938 -52.238281 L 21.03125 -23.351562 C 19.273438 -18.066406 16.070312 -13.292969 12.5 -12.75 C 11.160156 -12.550781 10.3125 -13.335938 10.109375 -14.671875 C 10 -15.386719 10.003906 -16.574219 10.136719 -17.507812 L 15.660156 -46.824219 C 15.867188 -47.859375 15.910156 -48.78125 15.777344 -49.671875 C 15.222656 -53.332031 11.632812 -55.347656 8.332031 -54.847656 C 5.832031 -54.46875 3.382812 -52.546875 2.671875 -48.789062 L -3.171875 -16.773438 C -3.464844 -15.085938 -3.492188 -13.441406 -3.261719 -11.921875 C -2.167969 -4.695312 4.460938 -0.675781 11.960938 -1.804688 C 17.316406 -2.617188 20.941406 -5.8125 23.703125 -9.878906 C 26.871094 -6.433594 32.042969 -4.839844 37.398438 -5.648438 C 45.878906 -6.929688 54.8125 -13.664062 58.34375 -33.1875 C 58.441406 -33.75 58.449219 -34.300781 58.371094 -34.835938 C 57.9375 -37.691406 55.003906 -38.984375 52.238281 -38.566406 C 49.917969 -38.214844 47.695312 -36.601562 47.234375 -33.609375 Z M 47.234375 -33.609375 "/></g></g></g><g fill="#f9e1e1" fill-opacity="1"><g transform="translate(253.491271, 252.294693)"><g><path d="M 14.855469 -64.234375 C 18.871094 -64.839844 21.675781 -68.640625 21.054688 -72.746094 C 20.449219 -76.761719 16.660156 -79.476562 12.644531 -78.871094 C 8.628906 -78.265625 5.8125 -74.550781 6.417969 -70.535156 C 7.039062 -66.429688 10.839844 -63.625 14.855469 -64.234375 Z M 9.683594 -16.890625 L 15.265625 -46.402344 C 15.449219 -47.617188 15.707031 -48.933594 15.570312 -49.824219 C 14.976562 -53.753906 11.722656 -55.359375 8.6875 -54.902344 C 5.921875 -54.484375 3.273438 -52.074219 2.476562 -47.664062 C 0.890625 -38.84375 -1.253906 -27.65625 -2.859375 -18.921875 C -3.125 -17.054688 -3.472656 -14.539062 -3.246094 -13.019531 C -1.976562 -4.632812 5.710938 -0.863281 13.925781 -2.101562 C 22.671875 -3.425781 31.503906 -10.234375 34.960938 -29.65625 C 35.058594 -30.21875 35.066406 -30.765625 34.984375 -31.304688 C 34.566406 -34.070312 31.632812 -35.363281 28.957031 -34.957031 C 26.546875 -34.59375 24.324219 -32.980469 23.671875 -30.050781 C 21.226562 -17.8125 17.050781 -13.4375 13.480469 -12.898438 C 11.425781 -12.589844 9.886719 -13.726562 9.628906 -15.421875 C 9.5625 -15.867188 9.585938 -16.328125 9.683594 -16.890625 Z M 9.683594 -16.890625 "/></g></g></g></svg>