<svg xmlns="http://www.w3.org/2000/svg" xmlns:xlink="http://www.w3.org/1999/xlink" width="500" zoomAndPan="magnify" viewBox="0 0 375 374.999991" height="500" preserveAspectRatio="xMidYMid meet" version="1.0"><defs><g/></defs><g fill="#32383d" fill-opacity="1"><g transform="translate(148.610985, 242.927914)"><g><path d="M 10.96875 -11.78125 L 12.703125 -11.78125 L 12.703125 0 L 10.984375 0 L 10.984375 -9.03125 L 7.546875 -4.296875 L 6.203125 -4.296875 L 2.734375 -9.03125 L 2.734375 0 L 1 0 L 1 -11.78125 L 2.734375 -11.78125 L 6.859375 -6.109375 Z M 10.96875 -11.78125 "/></g></g></g><g fill="#32383d" fill-opacity="1"><g transform="translate(164.327491, 242.927914)"><g><path d="M 4.125 -10.34375 L 4.125 -1.421875 L 4.984375 -1.421875 L 4.984375 0 L 1.515625 0 L 1.515625 -1.421875 L 2.390625 -1.421875 L 2.390625 -10.34375 L 1.515625 -10.34375 L 1.515625 -11.78125 L 4.984375 -11.78125 L 4.984375 -10.34375 Z M 4.125 -10.34375 "/></g></g></g><g fill="#32383d" fill-opacity="1"><g transform="translate(172.875499, 242.927914)"><g><path d="M 11.078125 -11.78125 L 11.078125 0 L 9.3125 0 L 2.734375 -9.03125 L 2.734375 0 L 0.9375 0 L 0.9375 -11.78125 L 2.75 -11.78125 L 9.328125 -2.6875 L 9.328125 -11.78125 Z M 11.078125 -11.78125 "/></g></g></g><g fill="#32383d" fill-opacity="1"><g transform="translate(186.932634, 242.927914)"><g/></g></g><g fill="#32383d" fill-opacity="1"><g transform="translate(193.290264, 242.927914)"><g><path d="M 9.265625 -11.78125 L 11 -11.78125 L 11 0 L 9.265625 0 L 9.265625 -5.390625 L 2.671875 -5.390625 L 2.671875 0 L 0.9375 0 L 0.9375 -11.78125 L 2.671875 -11.78125 L 2.671875 -7.015625 L 9.265625 -7.015625 Z M 9.265625 -11.78125 "/></g></g></g><g fill="#32383d" fill-opacity="1"><g transform="translate(207.314211, 242.927914)"><g><path d="M 9.578125 -4.171875 C 9.578125 -3.566406 9.460938 -3 9.234375 -2.46875 C 9.015625 -1.945312 8.707031 -1.488281 8.3125 -1.09375 C 7.925781 -0.707031 7.472656 -0.398438 6.953125 -0.171875 C 6.429688 0.0546875 5.875 0.171875 5.28125 0.171875 C 4.6875 0.171875 4.128906 0.0546875 3.609375 -0.171875 C 3.085938 -0.398438 2.628906 -0.707031 2.234375 -1.09375 C 1.847656 -1.488281 1.539062 -1.945312 1.3125 -2.46875 C 1.09375 -3 0.984375 -3.566406 0.984375 -4.171875 L 0.984375 -11.78125 L 2.703125 -11.78125 L 2.703125 -4.171875 C 2.703125 -3.816406 2.769531 -3.476562 2.90625 -3.15625 C 3.039062 -2.832031 3.222656 -2.546875 3.453125 -2.296875 C 3.679688 -2.046875 3.953125 -1.847656 4.265625 -1.703125 C 4.585938 -1.566406 4.925781 -1.5 5.28125 -1.5 C 5.632812 -1.5 5.96875 -1.566406 6.28125 -1.703125 C 6.59375 -1.847656 6.863281 -2.046875 7.09375 -2.296875 C 7.320312 -2.546875 7.503906 -2.832031 7.640625 -3.15625 C 7.773438 -3.476562 7.84375 -3.816406 7.84375 -4.171875 L 7.84375 -11.78125 L 9.578125 -11.78125 Z M 9.578125 -4.171875 "/></g></g></g><g fill="#32383d" fill-opacity="1"><g transform="translate(219.861312, 242.927914)"><g><path d="M 4.125 -10.34375 L 4.125 -1.421875 L 4.984375 -1.421875 L 4.984375 0 L 1.515625 0 L 1.515625 -1.421875 L 2.390625 -1.421875 L 2.390625 -10.34375 L 1.515625 -10.34375 L 1.515625 -11.78125 L 4.984375 -11.78125 L 4.984375 -10.34375 Z M 4.125 -10.34375 "/></g></g></g><g fill="#32383d" fill-opacity="1"><g transform="translate(133.640621, 194.817174)"><g><path d="M 58.800781 13.375 C 56.585938 14.167969 52.945312 14.5625 50.730469 13.375 C 48.433594 12.109375 49.304688 8.625 49.777344 6.570312 C 50.730469 2.296875 52.390625 -1.898438 54.050781 -6.015625 C 55.003906 -8.152344 55.871094 -10.367188 56.824219 -12.582031 C 57.058594 -13.058594 59.117188 -18.203125 59.039062 -18.203125 C 58.878906 -18.203125 58.644531 -17.964844 58.484375 -17.648438 C 61.253906 -23.425781 65.921875 -29.835938 64.65625 -36.722656 C 64.101562 -39.648438 62.046875 -42.578125 58.800781 -42.5 C 56.03125 -42.5 53.5 -40.441406 51.597656 -38.699219 C 48.039062 -35.535156 45.109375 -31.8125 42.339844 -28.015625 C 42.023438 -27.621094 40.757812 -25.71875 39.332031 -23.503906 C 40.042969 -24.691406 40.996094 -25.800781 41.785156 -26.90625 C 38.460938 -22.238281 35.535156 -17.332031 32.683594 -12.425781 C 34.902344 -19.863281 38.542969 -26.75 41.628906 -33.792969 C 42.816406 -36.40625 44.792969 -38.777344 45.902344 -41.46875 C 47.089844 -44.398438 46.375 -48.117188 44.398438 -50.570312 C 40.042969 -55.871094 33.792969 -46.691406 31.179688 -43.921875 C 25.878906 -38.304688 21.445312 -31.65625 17.332031 -25.246094 C 17.886719 -26.988281 18.203125 -28.648438 18.835938 -30.390625 C 19.625 -32.605469 20.496094 -34.742188 21.210938 -36.957031 C 22 -39.253906 22.714844 -41.628906 23.425781 -43.921875 C 24.136719 -46.21875 24.929688 -49.304688 24.375 -51.757812 C 23.980469 -53.5 23.265625 -55.953125 22 -57.296875 C 20.023438 -59.433594 17.253906 -59.277344 14.71875 -58.484375 C 12.425781 -57.773438 10.445312 -56.664062 8.625 -55.160156 C 7.675781 -54.289062 6.804688 -53.417969 5.933594 -52.46875 L 5.144531 -51.363281 C 4.667969 -50.730469 4.75 -50.09375 4.511719 -49.542969 C 3.71875 -47.800781 2.375 -46.457031 1.820312 -44.554688 C 1.265625 -42.417969 1.109375 -39.410156 2.375 -37.511719 C 3.007812 -36.640625 4.035156 -36.007812 4.984375 -36.800781 C 5.539062 -37.355469 5.300781 -37.90625 5.382812 -38.542969 C 5.460938 -39.015625 5.699219 -40.28125 6.015625 -41.074219 C 7.4375 -44.953125 9.574219 -48.828125 12.425781 -51.835938 C 13.613281 -53.183594 15.035156 -54.449219 16.777344 -54.921875 C 19.152344 -55.476562 19.230469 -53.578125 18.914062 -51.679688 L 18.441406 -48.75 L 18.441406 -49.542969 C 16.144531 -40.996094 11.710938 -33.082031 8.707031 -24.851562 C 7.203125 -20.8125 5.460938 -17.015625 3.796875 -13.058594 C 2.136719 -9.101562 0.238281 -4.433594 0 -0.078125 C -0.078125 1.425781 0.238281 2.929688 1.425781 3.878906 C 2.769531 4.984375 4.828125 5.066406 5.855469 3.640625 C 6.648438 2.53125 7.042969 0.554688 7.519531 -0.710938 C 8.308594 -2.769531 9.023438 -4.828125 9.890625 -6.804688 C 10.683594 -8.941406 12.027344 -10.84375 13.214844 -12.820312 C 15.75 -16.9375 18.28125 -21.050781 20.972656 -25.085938 C 23.503906 -28.964844 26.035156 -32.765625 28.808594 -36.40625 C 31.578125 -39.964844 34.347656 -43.605469 37.988281 -46.296875 C 38.542969 -46.691406 40.441406 -48.195312 41.230469 -47.878906 C 41.863281 -47.640625 41.230469 -46.457031 40.996094 -45.820312 C 39.648438 -42.179688 37.90625 -38.460938 35.929688 -35.136719 C 31.339844 -27.382812 26.589844 -18.675781 24.851562 -9.734375 C 24.21875 -6.726562 24.21875 -3.71875 26.589844 -1.425781 C 29.042969 0.871094 29.914062 -1.109375 30.707031 -3.324219 C 31.339844 -5.144531 32.683594 -6.726562 33.632812 -8.390625 C 34.980469 -10.605469 36.246094 -12.898438 37.671875 -15.195312 C 38.542969 -16.460938 39.175781 -18.203125 40.203125 -19.152344 C 41.863281 -20.8125 43.050781 -22.714844 44.398438 -24.613281 C 47.167969 -28.570312 49.9375 -32.367188 53.5 -35.613281 C 54.371094 -36.40625 56.347656 -38.460938 57.691406 -38.144531 C 59.355469 -37.75 57.535156 -35.136719 57.613281 -34.109375 L 58.167969 -35.21875 C 57.691406 -33.792969 57.21875 -32.449219 56.664062 -31.101562 C 56.585938 -31.179688 56.902344 -32.128906 56.902344 -32.128906 C 56.585938 -32.210938 54.921875 -28.410156 54.6875 -28.015625 C 53.5 -25.5625 52.074219 -23.109375 51.203125 -20.496094 C 50.332031 -18.125 49.460938 -15.90625 48.433594 -13.613281 L 46.691406 -9.65625 C 46.375 -8.785156 45.425781 -6.886719 45.664062 -5.933594 C 45.742188 -5.933594 45.820312 -5.933594 45.820312 -6.015625 L 45.425781 -4.589844 C 45.503906 -4.90625 45.585938 -5.617188 45.585938 -5.699219 C 45.269531 -5.460938 45.1875 -3.878906 45.1875 -3.878906 C 43.289062 2.769531 42.5 9.8125 47.089844 15.75 C 49.304688 18.597656 51.914062 19.863281 55.398438 18.914062 C 57.058594 18.519531 58.644531 17.726562 59.988281 16.621094 C 60.78125 15.90625 63.234375 13.769531 62.917969 12.503906 C 62.679688 11.238281 59.59375 13.136719 58.800781 13.375 Z M 48.277344 -10.367188 C 48.988281 -11.792969 49.621094 -13.296875 50.253906 -14.800781 C 50.730469 -15.984375 51.046875 -18.125 51.835938 -19.074219 C 52.074219 -18.992188 52.074219 -18.757812 51.835938 -18.28125 C 51.28125 -15.433594 49.699219 -12.265625 48.433594 -9.574219 C 47.40625 -7.28125 46.375 -4.90625 45.585938 -2.53125 C 46.375 -5.144531 47.007812 -7.753906 48.277344 -10.367188 Z M 13.214844 -34.03125 C 14.324219 -36.640625 15.195312 -39.410156 16.304688 -42.023438 C 16.777344 -43.132812 17.332031 -44.398438 17.726562 -45.664062 C 16.777344 -41.945312 15.589844 -38.226562 13.847656 -34.664062 C 12.1875 -31.261719 10.683594 -27.777344 9.257812 -24.21875 C 10.527344 -27.539062 11.792969 -30.785156 13.214844 -34.03125 Z M 38.542969 -22.316406 C 36.484375 -18.992188 34.269531 -15.589844 34.269531 -15.589844 C 34.503906 -15.511719 37.433594 -20.417969 38.542969 -22.316406 Z M 50.570312 -37.433594 L 47.640625 -34.347656 C 48.59375 -35.453125 49.542969 -36.484375 50.570312 -37.433594 Z M 44.953125 0 C 44.714844 -0.078125 44.714844 -0.238281 44.953125 -0.554688 C 45.109375 -0.476562 45.109375 -0.316406 44.953125 0 Z M 46.851562 -33.398438 L 47.007812 -33.632812 L 47.007812 -33.554688 C 47.167969 -33.871094 47.40625 -34.109375 47.484375 -34.1875 L 47.640625 -34.347656 L 47.484375 -34.109375 L 47.167969 -33.792969 C 47.167969 -33.792969 47.246094 -33.792969 47.246094 -33.871094 L 47.167969 -33.792969 L 47.089844 -33.632812 Z M 38.699219 -22.554688 L 39.015625 -23.03125 L 39.015625 -22.949219 Z M 38.542969 -22.316406 L 38.699219 -22.554688 C 38.699219 -22.476562 38.621094 -22.398438 38.542969 -22.316406 Z M 47.40625 -34.109375 L 47.484375 -34.1875 C 47.484375 -34.1875 47.484375 -34.109375 47.40625 -34.109375 Z M 47.40625 -34.109375 "/></g></g></g><g fill="#32383d" fill-opacity="1"><g transform="translate(199.56156, 194.817174)"><g><path d="M 49.621094 -53.734375 C 48.75 -55.554688 46.773438 -57.296875 44.792969 -57.535156 C 42.816406 -57.851562 43.050781 -56.824219 42.5 -55.554688 L 36.722656 -42.578125 L 33.476562 -34.980469 C 32.765625 -33.316406 31.496094 -28.648438 30.074219 -28.015625 C 29.042969 -27.621094 27.222656 -27.855469 26.117188 -27.777344 L 22.476562 -27.539062 C 20.339844 -27.304688 18.441406 -26.589844 16.304688 -26.589844 C 16.9375 -27.777344 17.410156 -29.042969 17.886719 -30.3125 C 18.597656 -31.972656 18.597656 -33.554688 19.390625 -35.21875 C 20.65625 -37.988281 21.683594 -40.835938 23.109375 -43.527344 C 23.898438 -45.109375 24.613281 -46.773438 25.324219 -48.355469 C 25.957031 -49.621094 26.117188 -51.046875 26.589844 -52.074219 C 27.144531 -53.023438 28.09375 -53.894531 28.492188 -54.84375 C 29.125 -56.664062 27.304688 -58.007812 25.71875 -58.5625 C 24.535156 -59.039062 22.949219 -59.277344 22.160156 -58.167969 C 22.316406 -58.246094 22 -57.140625 22 -57.296875 C 21.761719 -56.742188 21.445312 -56.1875 21.128906 -55.714844 C 17.726562 -49.226562 15.117188 -42.417969 12.347656 -35.613281 C 11.554688 -33.554688 10.683594 -31.496094 9.890625 -29.359375 C 9.496094 -28.410156 9.101562 -27.382812 8.625 -26.433594 C 7.992188 -25.167969 7.519531 -25.5625 6.09375 -25.167969 C 5.460938 -25.007812 4.195312 -24.769531 3.878906 -24.058594 C 3.164062 -22.476562 5.539062 -21.367188 6.648438 -21.050781 C 4.828125 -15.035156 2.613281 -9.179688 0.949219 -3.085938 C 0.554688 -1.582031 -0.238281 0.238281 0.078125 1.898438 C 0.316406 3.640625 2.929688 6.488281 4.90625 6.09375 C 6.804688 5.699219 6.886719 2.058594 7.359375 0.476562 C 8.074219 -2.214844 8.941406 -4.90625 9.8125 -7.597656 C 10.527344 -9.972656 11.554688 -12.347656 12.027344 -14.800781 L 12.582031 -17.015625 C 12.980469 -18.125 13.375 -20.101562 14.085938 -20.972656 C 15.035156 -22.078125 18.042969 -22.316406 19.625 -22.476562 C 21.289062 -22.714844 22.949219 -22.949219 24.613281 -23.109375 C 26.195312 -23.1875 27.382812 -23.820312 28.808594 -24.058594 C 26.828125 -19.625 25.484375 -14.878906 23.582031 -10.445312 C 22.238281 -7.28125 20.972656 -4.117188 19.863281 -0.792969 C 18.992188 1.898438 17.886719 4.75 17.332031 7.519531 C 17.015625 9.179688 17.726562 10.683594 19.230469 11.632812 C 22.714844 13.769531 23.664062 10.605469 24.613281 7.914062 C 26.355469 2.847656 28.410156 -2.136719 30.3125 -7.121094 C 31.179688 -9.574219 31.65625 -11.792969 32.765625 -14.167969 L 35.375 -20.496094 C 36.007812 -21.921875 36.957031 -24.691406 38.304688 -25.402344 C 39.175781 -25.800781 39.648438 -25.957031 40.28125 -26.117188 C 41.46875 -26.433594 42.816406 -26.273438 44.082031 -26.589844 C 44.554688 -26.671875 46.058594 -26.90625 46.296875 -27.699219 C 46.457031 -28.410156 45.980469 -28.492188 45.503906 -28.648438 C 45.269531 -28.726562 45.109375 -28.253906 45.109375 -28.253906 C 44.792969 -28.175781 44.476562 -28.332031 44.160156 -28.253906 C 42.578125 -28.09375 40.679688 -28.410156 39.09375 -28.410156 C 39.648438 -30.707031 40.914062 -32.765625 42.023438 -34.980469 L 45.820312 -42.5 L 47.722656 -46.136719 C 48.195312 -47.167969 48.277344 -48.117188 48.59375 -48.988281 C 49.304688 -50.570312 50.648438 -51.519531 49.621094 -53.734375 Z M 15.117188 -28.886719 C 13.929688 -26.117188 12.820312 -23.347656 11.792969 -20.578125 C 12.980469 -24.136719 14.085938 -27.539062 15.433594 -31.101562 C 16.777344 -34.664062 18.992188 -37.90625 20.578125 -41.3125 Z M 24.535156 3.007812 C 24.296875 3.480469 24.058594 3.878906 23.898438 4.351562 C 24.058594 3.480469 24.058594 2.613281 24.375 1.742188 C 24.613281 0.792969 25.484375 0 25.957031 -0.871094 C 25.5625 0.476562 25.246094 1.742188 24.535156 3.007812 Z M 20.894531 -42.023438 L 20.734375 -41.628906 C 20.734375 -41.785156 20.8125 -41.863281 20.894531 -42.023438 Z M 20.894531 -42.023438 "/></g></g></g></svg>