<svg xmlns="http://www.w3.org/2000/svg" xmlns:xlink="http://www.w3.org/1999/xlink" width="500" zoomAndPan="magnify" viewBox="0 0 375 374.999991" height="500" preserveAspectRatio="xMidYMid meet" version="1.0"><defs><g/></defs><rect x="-37.5" width="450" fill="#ffffff" y="-37.499999" height="449.999989" fill-opacity="1"/><rect x="-37.5" width="450" fill="#ffffff" y="-37.499999" height="449.999989" fill-opacity="1"/><rect x="-37.5" width="450" fill="#ffffff" y="-37.499999" height="449.999989" fill-opacity="1"/><g fill="#32383d" fill-opacity="1"><g transform="translate(97.77539, 223.151829)"><g><path d="M 60.847656 -0.84375 C 61.832031 0.421875 62.960938 1.269531 64.933594 1.269531 C 68.171875 1.269531 69.015625 -1.550781 69.015625 -3.804688 C 69.015625 -4.648438 68.875 -5.210938 68.453125 -5.914062 L 68.59375 -5.914062 L 34.648438 -54.648438 L 66.058594 -93.242188 L 66.058594 -93.101562 C 66.621094 -93.945312 67.042969 -94.933594 67.183594 -96.339844 C 67.328125 -99.441406 64.933594 -100.847656 63.242188 -100.847656 C 61.550781 -100.847656 59.71875 -99.722656 58.875 -98.453125 L 20.421875 -51.128906 L 20.421875 -96.199219 C 20.421875 -98.59375 18.453125 -100.847656 15.773438 -100.847656 C 13.238281 -100.847656 11.128906 -98.59375 11.128906 -96.199219 L 11.128906 -3.519531 C 11.128906 -0.84375 13.238281 1.269531 15.773438 1.269531 C 18.453125 1.269531 20.421875 -0.84375 20.421875 -3.519531 L 20.421875 -37.183594 L 28.734375 -47.464844 Z M 60.847656 -0.84375 "/></g></g></g><g fill="#32383d" fill-opacity="1"><g transform="translate(167.917505, 223.151829)"><g><path d="M 72.820312 -4.648438 C 73.664062 -1.691406 75.917969 1.269531 79.582031 1.269531 C 83.101562 1.269531 85.355469 -1.550781 86.199219 -4.507812 L 107.609375 -94.792969 L 107.609375 -94.933594 C 107.75 -95.355469 107.75 -96.058594 107.75 -96.199219 C 107.75 -99.015625 104.511719 -100.285156 101.976562 -100.285156 C 100.285156 -100.285156 98.875 -98.875 98.171875 -96.90625 L 79.4375 -15.351562 L 61.550781 -93.242188 C 60.566406 -97.75 59.015625 -100.847656 55.214844 -100.847656 C 51.269531 -100.847656 49.859375 -97.890625 48.734375 -93.242188 L 31.128906 -15.492188 L 12.253906 -96.90625 C 11.550781 -98.875 9.71875 -100.285156 8.027344 -100.285156 C 5.492188 -100.285156 2.535156 -98.875 2.535156 -96.339844 L 2.535156 -95.777344 L 24.085938 -4.507812 C 25.070312 -1.269531 27.324219 1.269531 30.847656 1.269531 C 34.789062 1.269531 36.621094 -1.972656 37.464844 -4.507812 C 42.675781 -27.886719 50 -59.15625 55.214844 -82.679688 Z M 72.820312 -4.648438 "/></g></g></g></svg>