<svg xmlns="http://www.w3.org/2000/svg" xmlns:xlink="http://www.w3.org/1999/xlink" width="500" zoomAndPan="magnify" viewBox="0 0 375 374.999991" height="500" preserveAspectRatio="xMidYMid meet" version="1.0"><defs><g/></defs><g fill="#32383d" fill-opacity="1"><g transform="translate(15.872928, 267.700042)"><g><path d="M 45.5 -219.648438 C 45.5 -225.296875 40.792969 -230.003906 35.457031 -230.003906 C 29.496094 -230.003906 25.101562 -225.296875 25.101562 -219.648438 L 25.101562 -7.84375 C 25.101562 -2.195312 29.496094 2.195312 35.457031 2.195312 C 40.792969 2.195312 45.5 -2.195312 45.5 -7.84375 L 45.5 -66.207031 L 59.933594 -81.269531 L 111.707031 -2.511719 C 113.589844 0.628906 116.414062 2.195312 120.179688 2.195312 C 125.511719 2.195312 130.21875 -0.941406 129.90625 -5.960938 C 129.90625 -7.53125 128.964844 -10.667969 128.023438 -11.921875 L 72.484375 -94.449219 L 121.433594 -144.339844 C 123.003906 -145.910156 123.628906 -148.105469 123.628906 -150.929688 C 123.628906 -156.265625 119.550781 -160.34375 114.21875 -160.34375 C 112.019531 -160.34375 109.511719 -159.714844 108.253906 -158.144531 L 45.5 -93.195312 Z M 45.5 -219.648438 "/></g></g></g><g fill="#32383d" fill-opacity="1"><g transform="translate(153.621187, 267.700042)"><g><path d="M 199.566406 -149.675781 L 199.566406 -150.300781 C 199.566406 -156.265625 195.171875 -160.65625 189.839844 -160.65625 C 185.757812 -160.65625 181.367188 -157.519531 180.425781 -153.441406 L 148.417969 -26.984375 C 132.101562 -88.171875 123.628906 -120.179688 116.414062 -150.929688 C 114.84375 -156.265625 110.765625 -160.65625 104.804688 -160.65625 C 98.214844 -160.65625 94.136719 -156.265625 92.566406 -150.929688 C 82.839844 -112.335938 73.113281 -71.542969 60.875 -26.984375 L 28.554688 -153.441406 C 26.984375 -157.519531 22.90625 -160.65625 19.140625 -160.65625 C 13.179688 -160.65625 8.785156 -155.949219 8.785156 -150.929688 L 8.785156 -150.300781 L 46.441406 -10.355469 C 48.636719 -2.824219 53.34375 2.195312 60.558594 2.195312 C 67.148438 2.195312 71.855469 -1.253906 73.425781 -6.902344 C 84.09375 -43.300781 95.703125 -92.253906 104.804688 -128.964844 L 135.867188 -6.902344 C 137.75 -1.253906 143.085938 2.195312 148.417969 2.195312 C 156.578125 2.195312 159.714844 -2.195312 162.226562 -10.355469 Z M 199.566406 -149.675781 "/></g></g></g></svg>