<svg xmlns="http://www.w3.org/2000/svg" xmlns:xlink="http://www.w3.org/1999/xlink" width="500" zoomAndPan="magnify" viewBox="0 0 375 374.999991" height="500" preserveAspectRatio="xMidYMid meet" version="1.0"><defs><g/></defs><g fill="#32383d" fill-opacity="1"><g transform="translate(37.80433, 200.70298)"><g><path d="M 13.140625 0.453125 C 9.753906 0.453125 7.207031 -0.644531 5.5 -2.84375 C 3.789062 -5.039062 2.9375 -7.984375 2.9375 -11.671875 L 2.9375 -29.359375 C 2.9375 -33.117188 3.773438 -36.070312 5.453125 -38.21875 C 7.128906 -40.363281 9.691406 -41.4375 13.140625 -41.4375 C 16.554688 -41.4375 19.097656 -40.363281 20.765625 -38.21875 C 22.441406 -36.070312 23.28125 -33.117188 23.28125 -29.359375 L 23.28125 -11.671875 C 23.28125 -7.953125 22.429688 -5 20.734375 -2.8125 C 19.046875 -0.632812 16.515625 0.453125 13.140625 0.453125 Z M 13.140625 -4 C 16.242188 -4 17.796875 -6.535156 17.796875 -11.609375 L 17.796875 -29.421875 C 17.796875 -31.753906 17.46875 -33.601562 16.8125 -34.96875 C 16.15625 -36.34375 14.929688 -37.03125 13.140625 -37.03125 C 11.347656 -37.03125 10.113281 -36.34375 9.4375 -34.96875 C 8.757812 -33.601562 8.421875 -31.753906 8.421875 -29.421875 L 8.421875 -11.609375 C 8.421875 -6.535156 9.992188 -4 13.140625 -4 Z M 13.140625 -4 "/></g></g></g><g fill="#32383d" fill-opacity="1"><g transform="translate(64.533269, 200.70298)"><g><path d="M 8.671875 -33.984375 C 8.609375 -33.878906 7.585938 -33.640625 5.609375 -33.265625 C 3.628906 -32.898438 2.265625 -32.648438 1.515625 -32.515625 L 1.515625 -36.625 C 5.640625 -37.601562 8.460938 -39.085938 9.984375 -41.078125 L 14.09375 -41.078125 L 14.09375 0 L 8.671875 0 Z M 8.671875 -33.984375 "/></g></g></g><g fill="#32383d" fill-opacity="1"><g transform="translate(104.794174, 176.953702)"><g><path d="M 15.824219 0 L 17.425781 0 L 13.863281 -16.34375 L 8.835938 -3.222656 L 3.808594 -16.34375 L 0.226562 0 L 1.847656 0 L 4.214844 -10.910156 L 8.835938 0.902344 L 13.433594 -10.910156 Z M 15.824219 0 "/></g></g></g><g fill="#32383d" fill-opacity="1"><g transform="translate(122.444482, 176.953702)"><g><path d="M 3.292969 -13.34375 C 3.089844 -13.523438 2.839844 -13.636719 2.570312 -13.636719 C 2.300781 -13.636719 2.050781 -13.523438 1.871094 -13.34375 C 1.667969 -13.140625 1.578125 -12.894531 1.578125 -12.625 C 1.578125 -12.351562 1.667969 -12.105469 1.871094 -11.925781 C 2.050781 -11.722656 2.300781 -11.632812 2.570312 -11.632812 C 2.839844 -11.632812 3.089844 -11.722656 3.292969 -11.925781 C 3.472656 -12.105469 3.585938 -12.351562 3.585938 -12.625 C 3.585938 -12.894531 3.472656 -13.140625 3.292969 -13.34375 Z M 3.382812 0 L 3.382812 -9.917969 L 1.804688 -9.917969 L 1.804688 0 Z M 3.382812 0 "/></g></g></g><g fill="#32383d" fill-opacity="1"><g transform="translate(127.606583, 176.953702)"><g><path d="M 8.542969 0 L 10.121094 0 L 10.121094 -6.199219 C 10.121094 -7.347656 9.804688 -8.273438 9.21875 -8.972656 C 8.902344 -9.332031 8.542969 -9.601562 8.113281 -9.804688 C 7.664062 -10.007812 7.101562 -10.121094 6.402344 -10.121094 C 5.679688 -10.121094 5.070312 -9.917969 4.53125 -9.558594 C 4.011719 -9.21875 3.585938 -8.769531 3.269531 -8.207031 L 3.269531 -9.917969 L 1.691406 -9.917969 L 1.691406 0 L 3.269531 0 L 3.269531 -4.148438 C 3.269531 -5.410156 3.492188 -6.402344 3.96875 -7.144531 C 4.238281 -7.550781 4.574219 -7.890625 5.003906 -8.160156 C 5.410156 -8.40625 5.972656 -8.542969 6.648438 -8.542969 C 7.324219 -8.542969 7.800781 -8.296875 8.09375 -7.84375 C 8.386719 -7.394531 8.542969 -6.832031 8.542969 -6.199219 Z M 8.542969 0 "/></g></g></g><g fill="#32383d" fill-opacity="1"><g transform="translate(139.080412, 176.953702)"><g/></g></g><g fill="#32383d" fill-opacity="1"><g transform="translate(145.166723, 176.953702)"><g><path d="M 3.269531 0 L 3.269531 -6.851562 L 10.234375 -6.851562 L 10.234375 0 L 11.8125 0 L 11.8125 -15.328125 L 10.234375 -15.328125 L 10.234375 -8.429688 L 3.269531 -8.429688 L 3.269531 -15.328125 L 1.691406 -15.328125 L 1.691406 0 Z M 3.269531 0 "/></g></g></g><g fill="#32383d" fill-opacity="1"><g transform="translate(158.669319, 176.953702)"><g><path d="M 8.542969 -1.691406 L 8.542969 0 L 10.121094 0 L 10.121094 -9.917969 L 8.542969 -9.917969 L 8.542969 -5.769531 C 8.542969 -4.375 8.273438 -3.3125 7.753906 -2.523438 C 7.257812 -1.757812 6.378906 -1.375 5.160156 -1.375 C 4.484375 -1.375 3.988281 -1.601562 3.695312 -2.050781 C 3.402344 -2.503906 3.269531 -3.066406 3.269531 -3.71875 L 3.269531 -9.917969 L 1.691406 -9.917969 L 1.691406 -3.71875 C 1.691406 -2.570312 1.984375 -1.621094 2.613281 -0.878906 C 3.246094 -0.15625 4.101562 0.203125 5.230469 0.203125 C 6.695312 0.203125 7.800781 -0.429688 8.542969 -1.691406 Z M 8.542969 -1.691406 "/></g></g></g><g fill="#32383d" fill-opacity="1"><g transform="translate(170.143148, 176.953702)"><g><path d="M 3.292969 -13.34375 C 3.089844 -13.523438 2.839844 -13.636719 2.570312 -13.636719 C 2.300781 -13.636719 2.050781 -13.523438 1.871094 -13.34375 C 1.667969 -13.140625 1.578125 -12.894531 1.578125 -12.625 C 1.578125 -12.351562 1.667969 -12.105469 1.871094 -11.925781 C 2.050781 -11.722656 2.300781 -11.632812 2.570312 -11.632812 C 2.839844 -11.632812 3.089844 -11.722656 3.292969 -11.925781 C 3.472656 -12.105469 3.585938 -12.351562 3.585938 -12.625 C 3.585938 -12.894531 3.472656 -13.140625 3.292969 -13.34375 Z M 3.382812 0 L 3.382812 -9.917969 L 1.804688 -9.917969 L 1.804688 0 Z M 3.382812 0 "/></g></g></g><g fill="#32383d" fill-opacity="1"><g transform="translate(104.794174, 202.715771)"><g><path d="M 15.824219 0 L 17.425781 0 L 13.863281 -16.34375 L 8.835938 -3.222656 L 3.808594 -16.34375 L 0.226562 0 L 1.847656 0 L 4.214844 -10.910156 L 8.835938 0.902344 L 13.433594 -10.910156 Z M 15.824219 0 "/></g></g></g><g fill="#32383d" fill-opacity="1"><g transform="translate(122.444482, 202.715771)"><g><path d="M 9.582031 -4.960938 C 9.582031 -3.988281 9.242188 -3.132812 8.566406 -2.433594 C 7.890625 -1.714844 7.054688 -1.351562 6.085938 -1.351562 C 5.09375 -1.351562 4.261719 -1.714844 3.585938 -2.433594 C 2.90625 -3.132812 2.59375 -3.988281 2.59375 -4.960938 C 2.59375 -5.90625 2.90625 -6.761719 3.585938 -7.484375 C 4.261719 -8.207031 5.09375 -8.566406 6.085938 -8.566406 C 7.054688 -8.566406 7.890625 -8.207031 8.566406 -7.484375 C 9.242188 -6.761719 9.582031 -5.90625 9.582031 -4.960938 Z M 11.15625 0 L 11.15625 -9.917969 L 9.582031 -9.917969 L 9.582031 -8.207031 C 9.488281 -8.339844 9.378906 -8.453125 9.289062 -8.566406 C 8.339844 -9.601562 7.191406 -10.144531 5.839844 -10.144531 C 4.464844 -10.144531 3.3125 -9.601562 2.367188 -8.566406 C 1.464844 -7.527344 1.015625 -6.335938 1.015625 -4.960938 C 1.015625 -3.5625 1.464844 -2.367188 2.367188 -1.351562 C 3.3125 -0.292969 4.464844 0.226562 5.839844 0.226562 C 7.191406 0.226562 8.339844 -0.292969 9.289062 -1.351562 C 9.378906 -1.441406 9.488281 -1.554688 9.582031 -1.691406 L 9.582031 0 Z M 11.15625 0 "/></g></g></g><g fill="#32383d" fill-opacity="1"><g transform="translate(135.293368, 202.715771)"><g><path d="M 6.785156 -7.867188 L 6.785156 -9.917969 C 6.46875 -10.054688 6.132812 -10.121094 5.792969 -10.121094 C 4.667969 -10.121094 3.855469 -9.488281 3.335938 -8.273438 L 3.269531 -7.867188 L 3.269531 -9.917969 L 1.691406 -9.917969 L 1.691406 0 L 3.269531 0 L 3.269531 -4.960938 C 3.269531 -5.769531 3.449219 -6.492188 3.832031 -7.144531 C 4.011719 -7.484375 4.261719 -7.777344 4.554688 -8.003906 C 4.847656 -8.226562 5.207031 -8.363281 5.613281 -8.363281 C 6.019531 -8.363281 6.402344 -8.183594 6.785156 -7.867188 Z M 6.785156 -7.867188 "/></g></g></g><g fill="#32383d" fill-opacity="1"><g transform="translate(142.303901, 202.715771)"><g><path d="M 3.269531 0 L 3.269531 -4.757812 L 7.167969 0 L 9.265625 0 L 4.914062 -5.117188 L 8.996094 -9.941406 L 6.898438 -9.941406 L 3.269531 -5.457031 L 3.269531 -16.90625 L 1.691406 -16.90625 L 1.691406 0 Z M 3.269531 0 "/></g></g></g><g fill="#32383d" fill-opacity="1"><g transform="translate(151.794048, 202.715771)"><g><path d="M 11.382812 -5.183594 C 11.382812 -6.539062 10.84375 -7.710938 9.804688 -8.722656 C 8.792969 -9.691406 7.574219 -10.1875 6.199219 -10.1875 C 4.757812 -10.1875 3.539062 -9.671875 2.523438 -8.65625 C 1.511719 -7.640625 1.015625 -6.425781 1.015625 -5.003906 C 1.015625 -3.5625 1.511719 -2.34375 2.523438 -1.351562 C 3 -0.878906 3.539062 -0.519531 4.171875 -0.246094 C 4.800781 0.0234375 5.546875 0.15625 6.425781 0.15625 C 7.304688 0.15625 8.160156 -0.113281 9.015625 -0.652344 C 9.875 -1.195312 10.503906 -1.960938 10.933594 -2.90625 L 9.128906 -2.90625 C 8.769531 -2.433594 8.339844 -2.074219 7.820312 -1.804688 C 7.304688 -1.53125 6.761719 -1.421875 6.199219 -1.421875 C 5.34375 -1.421875 4.574219 -1.691406 3.898438 -2.253906 C 3.222656 -2.796875 2.796875 -3.492188 2.660156 -4.351562 L 11.382812 -4.351562 Z M 9.714844 -5.703125 L 2.683594 -5.703125 C 2.773438 -6.109375 2.929688 -6.492188 3.15625 -6.851562 C 3.878906 -8.023438 4.890625 -8.609375 6.199219 -8.609375 C 7.03125 -8.609375 7.777344 -8.339844 8.429688 -7.800781 C 9.105469 -7.234375 9.511719 -6.539062 9.714844 -5.703125 Z M 9.714844 -5.703125 "/></g></g></g><g fill="#32383d" fill-opacity="1"><g transform="translate(164.079391, 202.715771)"><g><path d="M 0.449219 -8.453125 L 2.929688 -8.453125 L 2.929688 0 L 4.507812 0 L 4.507812 -8.453125 L 6.964844 -8.453125 L 6.964844 -9.917969 L 4.507812 -9.917969 L 4.507812 -13.773438 L 2.929688 -13.773438 L 2.929688 -9.917969 L 0.449219 -9.917969 Z M 0.449219 -8.453125 "/></g></g></g><g fill="#32383d" fill-opacity="1"><g transform="translate(171.495676, 202.715771)"><g><path d="M 3.292969 -13.34375 C 3.089844 -13.523438 2.839844 -13.636719 2.570312 -13.636719 C 2.300781 -13.636719 2.050781 -13.523438 1.871094 -13.34375 C 1.667969 -13.140625 1.578125 -12.894531 1.578125 -12.625 C 1.578125 -12.351562 1.667969 -12.105469 1.871094 -11.925781 C 2.050781 -11.722656 2.300781 -11.632812 2.570312 -11.632812 C 2.839844 -11.632812 3.089844 -11.722656 3.292969 -11.925781 C 3.472656 -12.105469 3.585938 -12.351562 3.585938 -12.625 C 3.585938 -12.894531 3.472656 -13.140625 3.292969 -13.34375 Z M 3.382812 0 L 3.382812 -9.917969 L 1.804688 -9.917969 L 1.804688 0 Z M 3.382812 0 "/></g></g></g><g fill="#32383d" fill-opacity="1"><g transform="translate(176.657777, 202.715771)"><g><path d="M 8.542969 0 L 10.121094 0 L 10.121094 -6.199219 C 10.121094 -7.347656 9.804688 -8.273438 9.21875 -8.972656 C 8.902344 -9.332031 8.542969 -9.601562 8.113281 -9.804688 C 7.664062 -10.007812 7.101562 -10.121094 6.402344 -10.121094 C 5.679688 -10.121094 5.070312 -9.917969 4.53125 -9.558594 C 4.011719 -9.21875 3.585938 -8.769531 3.269531 -8.207031 L 3.269531 -9.917969 L 1.691406 -9.917969 L 1.691406 0 L 3.269531 0 L 3.269531 -4.148438 C 3.269531 -5.410156 3.492188 -6.402344 3.96875 -7.144531 C 4.238281 -7.550781 4.574219 -7.890625 5.003906 -8.160156 C 5.410156 -8.40625 5.972656 -8.542969 6.648438 -8.542969 C 7.324219 -8.542969 7.800781 -8.296875 8.09375 -7.84375 C 8.386719 -7.394531 8.542969 -6.832031 8.542969 -6.199219 Z M 8.542969 0 "/></g></g></g><g fill="#32383d" fill-opacity="1"><g transform="translate(188.131606, 202.715771)"><g><path d="M 9.714844 -4.960938 C 9.714844 -3.988281 9.378906 -3.132812 8.699219 -2.433594 C 8.023438 -1.714844 7.191406 -1.351562 6.222656 -1.351562 C 5.253906 -1.351562 4.417969 -1.714844 3.742188 -2.433594 C 3.066406 -3.132812 2.726562 -3.96875 2.726562 -4.960938 C 2.726562 -5.929688 3.066406 -6.761719 3.742188 -7.484375 C 4.417969 -8.207031 5.253906 -8.566406 6.222656 -8.566406 C 7.191406 -8.566406 8.023438 -8.207031 8.699219 -7.484375 C 9.378906 -6.761719 9.714844 -5.90625 9.714844 -4.960938 Z M 2.683594 1.351562 L 1.058594 1.351562 C 1.238281 2.410156 1.714844 3.335938 2.523438 4.125 C 3.515625 5.140625 4.734375 5.636719 6.152344 5.636719 C 7.550781 5.636719 8.769531 5.140625 9.78125 4.125 C 10.773438 3.132812 11.292969 1.917969 11.292969 0.496094 L 11.292969 -9.917969 L 9.714844 -9.917969 L 9.714844 -8.25 C 9.625 -8.339844 9.535156 -8.453125 9.445312 -8.566406 C 8.453125 -9.601562 7.304688 -10.144531 5.996094 -10.144531 C 4.597656 -10.144531 3.449219 -9.601562 2.503906 -8.566406 C 1.601562 -7.527344 1.148438 -6.335938 1.148438 -4.960938 C 1.148438 -3.5625 1.601562 -2.367188 2.503906 -1.351562 C 3.449219 -0.292969 4.597656 0.226562 5.996094 0.226562 C 7.347656 0.226562 8.5 -0.292969 9.445312 -1.351562 C 9.535156 -1.441406 9.625 -1.554688 9.714844 -1.644531 L 9.714844 0.496094 C 9.714844 1.488281 9.355469 2.320312 8.65625 3.019531 C 7.957031 3.71875 7.125 4.058594 6.152344 4.058594 C 5.160156 4.058594 4.328125 3.71875 3.628906 3.019531 C 3.132812 2.523438 2.816406 1.984375 2.683594 1.351562 Z M 2.683594 1.351562 "/></g></g></g><g fill="#32383d" fill-opacity="1"><g transform="translate(201.115742, 202.715771)"><g/></g></g><g fill="#32383d" fill-opacity="1"><g transform="translate(207.202054, 202.715771)"><g><path d="M 5.929688 -7.214844 C 7.914062 -6.738281 9.265625 -6.222656 9.984375 -5.636719 C 10.480469 -5.230469 10.730469 -4.710938 10.730469 -4.078125 C 10.730469 -3.449219 10.59375 -2.929688 10.324219 -2.570312 C 9.648438 -1.621094 8.429688 -1.148438 6.71875 -1.148438 C 4.328125 -1.148438 2.976562 -1.960938 2.683594 -3.585938 L 0.835938 -3.585938 C 1.375 -0.992188 3.335938 0.292969 6.71875 0.292969 C 8.226562 0.292969 9.488281 -0.0234375 10.503906 -0.699219 C 11.722656 -1.488281 12.351562 -2.660156 12.351562 -4.191406 C 12.351562 -5.457031 11.855469 -6.425781 10.863281 -7.101562 C 10.167969 -7.597656 9.039062 -8.046875 7.484375 -8.453125 C 5.90625 -8.859375 4.890625 -9.195312 4.417969 -9.445312 C 3.382812 -9.964844 2.863281 -10.683594 2.886719 -11.632812 C 2.886719 -12.128906 2.976562 -12.554688 3.199219 -12.871094 C 3.785156 -13.75 4.824219 -14.203125 6.3125 -14.203125 C 8.40625 -14.203125 9.601562 -13.523438 9.917969 -12.21875 L 11.632812 -12.21875 C 11.066406 -14.425781 9.289062 -15.554688 6.3125 -15.554688 C 4.960938 -15.554688 3.765625 -15.191406 2.773438 -14.472656 C 1.757812 -13.75 1.238281 -12.691406 1.238281 -11.25 C 1.238281 -9.289062 2.816406 -7.933594 5.929688 -7.214844 Z M 5.929688 -7.214844 "/></g></g></g><g fill="#32383d" fill-opacity="1"><g transform="translate(220.141107, 202.715771)"><g><path d="M 0.449219 -8.453125 L 2.929688 -8.453125 L 2.929688 0 L 4.507812 0 L 4.507812 -8.453125 L 6.964844 -8.453125 L 6.964844 -9.917969 L 4.507812 -9.917969 L 4.507812 -13.773438 L 2.929688 -13.773438 L 2.929688 -9.917969 L 0.449219 -9.917969 Z M 0.449219 -8.453125 "/></g></g></g><g fill="#32383d" fill-opacity="1"><g transform="translate(227.557391, 202.715771)"><g><path d="M 8.542969 -1.691406 L 8.542969 0 L 10.121094 0 L 10.121094 -9.917969 L 8.542969 -9.917969 L 8.542969 -5.769531 C 8.542969 -4.375 8.273438 -3.3125 7.753906 -2.523438 C 7.257812 -1.757812 6.378906 -1.375 5.160156 -1.375 C 4.484375 -1.375 3.988281 -1.601562 3.695312 -2.050781 C 3.402344 -2.503906 3.269531 -3.066406 3.269531 -3.71875 L 3.269531 -9.917969 L 1.691406 -9.917969 L 1.691406 -3.71875 C 1.691406 -2.570312 1.984375 -1.621094 2.613281 -0.878906 C 3.246094 -0.15625 4.101562 0.203125 5.230469 0.203125 C 6.695312 0.203125 7.800781 -0.429688 8.542969 -1.691406 Z M 8.542969 -1.691406 "/></g></g></g><g fill="#32383d" fill-opacity="1"><g transform="translate(239.031221, 202.715771)"><g><path d="M 9.582031 -4.960938 C 9.582031 -3.988281 9.242188 -3.132812 8.566406 -2.433594 C 7.890625 -1.714844 7.054688 -1.351562 6.085938 -1.351562 C 5.09375 -1.351562 4.261719 -1.714844 3.585938 -2.433594 C 2.90625 -3.132812 2.59375 -3.988281 2.59375 -4.960938 C 2.59375 -5.90625 2.90625 -6.761719 3.585938 -7.484375 C 4.261719 -8.207031 5.09375 -8.566406 6.085938 -8.566406 C 7.054688 -8.566406 7.890625 -8.207031 8.566406 -7.484375 C 9.242188 -6.761719 9.582031 -5.90625 9.582031 -4.960938 Z M 11.15625 0 L 11.15625 -16.90625 L 9.582031 -16.90625 L 9.582031 -8.207031 C 9.488281 -8.339844 9.378906 -8.453125 9.289062 -8.566406 C 8.339844 -9.601562 7.191406 -10.144531 5.839844 -10.144531 C 4.464844 -10.144531 3.3125 -9.601562 2.367188 -8.566406 C 1.464844 -7.527344 1.015625 -6.335938 1.015625 -4.960938 C 1.015625 -3.5625 1.464844 -2.367188 2.367188 -1.351562 C 3.3125 -0.292969 4.464844 0.226562 5.839844 0.226562 C 7.191406 0.226562 8.339844 -0.292969 9.289062 -1.351562 C 9.378906 -1.441406 9.488281 -1.554688 9.582031 -1.691406 L 9.582031 0 Z M 11.15625 0 "/></g></g></g><g fill="#32383d" fill-opacity="1"><g transform="translate(251.880107, 202.715771)"><g><path d="M 11.382812 -5.183594 C 11.382812 -6.539062 10.84375 -7.710938 9.804688 -8.722656 C 8.792969 -9.691406 7.574219 -10.1875 6.199219 -10.1875 C 4.757812 -10.1875 3.539062 -9.671875 2.523438 -8.65625 C 1.511719 -7.640625 1.015625 -6.425781 1.015625 -5.003906 C 1.015625 -3.5625 1.511719 -2.34375 2.523438 -1.351562 C 3 -0.878906 3.539062 -0.519531 4.171875 -0.246094 C 4.800781 0.0234375 5.546875 0.15625 6.425781 0.15625 C 7.304688 0.15625 8.160156 -0.113281 9.015625 -0.652344 C 9.875 -1.195312 10.503906 -1.960938 10.933594 -2.90625 L 9.128906 -2.90625 C 8.769531 -2.433594 8.339844 -2.074219 7.820312 -1.804688 C 7.304688 -1.53125 6.761719 -1.421875 6.199219 -1.421875 C 5.34375 -1.421875 4.574219 -1.691406 3.898438 -2.253906 C 3.222656 -2.796875 2.796875 -3.492188 2.660156 -4.351562 L 11.382812 -4.351562 Z M 9.714844 -5.703125 L 2.683594 -5.703125 C 2.773438 -6.109375 2.929688 -6.492188 3.15625 -6.851562 C 3.878906 -8.023438 4.890625 -8.609375 6.199219 -8.609375 C 7.03125 -8.609375 7.777344 -8.339844 8.429688 -7.800781 C 9.105469 -7.234375 9.511719 -6.539062 9.714844 -5.703125 Z M 9.714844 -5.703125 "/></g></g></g><g fill="#32383d" fill-opacity="1"><g transform="translate(264.16545, 202.715771)"><g><path d="M 8.542969 0 L 10.121094 0 L 10.121094 -6.199219 C 10.121094 -7.347656 9.804688 -8.273438 9.21875 -8.972656 C 8.902344 -9.332031 8.542969 -9.601562 8.113281 -9.804688 C 7.664062 -10.007812 7.101562 -10.121094 6.402344 -10.121094 C 5.679688 -10.121094 5.070312 -9.917969 4.53125 -9.558594 C 4.011719 -9.21875 3.585938 -8.769531 3.269531 -8.207031 L 3.269531 -9.917969 L 1.691406 -9.917969 L 1.691406 0 L 3.269531 0 L 3.269531 -4.148438 C 3.269531 -5.410156 3.492188 -6.402344 3.96875 -7.144531 C 4.238281 -7.550781 4.574219 -7.890625 5.003906 -8.160156 C 5.410156 -8.40625 5.972656 -8.542969 6.648438 -8.542969 C 7.324219 -8.542969 7.800781 -8.296875 8.09375 -7.84375 C 8.386719 -7.394531 8.542969 -6.832031 8.542969 -6.199219 Z M 8.542969 0 "/></g></g></g><g fill="#32383d" fill-opacity="1"><g transform="translate(275.639279, 202.715771)"><g><path d="M 0.449219 -8.453125 L 2.929688 -8.453125 L 2.929688 0 L 4.507812 0 L 4.507812 -8.453125 L 6.964844 -8.453125 L 6.964844 -9.917969 L 4.507812 -9.917969 L 4.507812 -13.773438 L 2.929688 -13.773438 L 2.929688 -9.917969 L 0.449219 -9.917969 Z M 0.449219 -8.453125 "/></g></g></g></svg>