<svg xmlns="http://www.w3.org/2000/svg" xmlns:xlink="http://www.w3.org/1999/xlink" width="500" zoomAndPan="magnify" viewBox="0 0 375 374.999991" height="500" preserveAspectRatio="xMidYMid meet" version="1.0"><defs><g/></defs><g fill="#32383d" fill-opacity="1"><g transform="translate(118.151523, 186.467263)"><g><path d="M 1.578125 -0.296875 C 0.679688 -0.296875 0.15625 -0.53125 0 -1 C 0 -1.507812 1.679688 -3.773438 5.046875 -7.796875 C 8.410156 -11.828125 12.101562 -16.195312 16.125 -20.90625 C 20.15625 -25.613281 23.847656 -30.398438 27.203125 -35.265625 C 30.566406 -40.140625 32.25 -43.570312 32.25 -45.5625 C 32.25 -46.8125 31.601562 -47.4375 30.3125 -47.4375 C 28.207031 -47.4375 25.976562 -46.878906 23.625 -45.765625 C 21.28125 -44.648438 19.082031 -43.203125 17.03125 -41.421875 C 14.976562 -39.648438 12.992188 -37.664062 11.078125 -35.46875 C 9.160156 -33.28125 7.539062 -31.113281 6.21875 -28.96875 C 3.207031 -24.28125 1.703125 -20.859375 1.703125 -18.703125 C 1.703125 -17.566406 2.171875 -17 3.109375 -17 C 4.398438 -17 6.488281 -18.09375 9.375 -20.28125 C 12.269531 -22.476562 14.832031 -24.671875 17.0625 -26.859375 L 20.40625 -30.078125 C 20.488281 -30.160156 20.613281 -30.203125 20.78125 -30.203125 C 20.957031 -30.203125 21.046875 -30.144531 21.046875 -30.03125 L 20.9375 -29.796875 C 20.582031 -29.441406 20.101562 -28.953125 19.5 -28.328125 C 18.894531 -27.703125 17.75 -26.613281 16.0625 -25.0625 C 14.382812 -23.519531 12.8125 -22.148438 11.34375 -20.953125 C 9.875 -19.765625 8.300781 -18.679688 6.625 -17.703125 C 4.945312 -16.734375 3.617188 -16.25 2.640625 -16.25 C 1.234375 -16.25 0.53125 -17.097656 0.53125 -18.796875 C 0.53125 -20.492188 1.023438 -22.5625 2.015625 -25 C 3.015625 -27.445312 4.460938 -30 6.359375 -32.65625 C 8.253906 -35.320312 10.382812 -37.828125 12.75 -40.171875 C 15.113281 -42.515625 17.835938 -44.445312 20.921875 -45.96875 C 24.015625 -47.5 27.085938 -48.265625 30.140625 -48.265625 C 30.921875 -48.265625 31.679688 -47.976562 32.421875 -47.40625 C 33.171875 -46.84375 33.546875 -45.984375 33.546875 -44.828125 C 33.546875 -43.671875 33.125 -42.15625 32.28125 -40.28125 C 31.4375 -38.40625 30.175781 -36.21875 28.5 -33.71875 C 26.820312 -31.21875 25.269531 -28.957031 23.84375 -26.9375 C 22.414062 -24.925781 20.515625 -22.472656 18.140625 -19.578125 C 15.773438 -16.691406 14.125 -14.691406 13.1875 -13.578125 C 12.25 -12.460938 10.863281 -10.8125 9.03125 -8.625 C 9.070312 -8.582031 9.25 -8.675781 9.5625 -8.90625 C 26.21875 -24 35.617188 -32.503906 37.765625 -34.421875 C 39.910156 -36.335938 41.070312 -37.390625 41.25 -37.578125 C 41.425781 -37.773438 41.554688 -37.914062 41.640625 -38 C 41.953125 -38.3125 42.347656 -38.46875 42.828125 -38.46875 C 43.316406 -38.46875 43.5625 -38.234375 43.5625 -37.765625 C 43.5625 -36.585938 41.851562 -33.613281 38.4375 -28.84375 C 35.019531 -24.082031 31.609375 -19.53125 28.203125 -15.1875 C 24.804688 -10.84375 23.109375 -8.59375 23.109375 -8.4375 L 23.15625 -8.390625 C 25.539062 -10.460938 30.4375 -14.945312 37.84375 -21.84375 C 45.257812 -28.738281 51.734375 -34.6875 57.265625 -39.6875 C 62.796875 -44.695312 65.875 -47.203125 66.5 -47.203125 C 66.925781 -47.203125 67.140625 -46.929688 67.140625 -46.390625 C 67.140625 -45.328125 66.25 -43.445312 64.46875 -40.75 C 62.695312 -38.050781 59.523438 -33.8125 54.953125 -28.03125 C 54.753906 -27.789062 51.585938 -24 45.453125 -16.65625 C 31.921875 -0.507812 25.15625 8.8125 25.15625 11.3125 C 25.15625 11.46875 25.28125 11.546875 25.53125 11.546875 C 25.789062 11.546875 26.769531 11.101562 28.46875 10.21875 C 30.164062 9.34375 31.347656 8.613281 32.015625 8.03125 C 32.679688 7.445312 33.070312 7.15625 33.1875 7.15625 C 33.300781 7.15625 33.359375 7.242188 33.359375 7.421875 C 33.359375 7.597656 33.320312 7.722656 33.25 7.796875 C 32.820312 8.347656 31.503906 9.25 29.296875 10.5 C 27.085938 11.75 25.6875 12.375 25.09375 12.375 C 24.507812 12.375 24.21875 12.117188 24.21875 11.609375 C 24.21875 9.148438 26.3125 4.8125 30.5 -1.40625 C 37.0625 -11.21875 45.015625 -21.285156 54.359375 -31.609375 C 55.535156 -32.929688 57.707031 -35.546875 60.875 -39.453125 C 64.039062 -43.367188 65.625 -45.484375 65.625 -45.796875 C 65.625 -45.878906 65.601562 -45.921875 65.5625 -45.921875 C 65.320312 -45.921875 58.097656 -39.390625 43.890625 -26.328125 C 29.679688 -13.273438 20.484375 -4.753906 16.296875 -0.765625 C 15.828125 -0.296875 15.378906 -0.0625 14.953125 -0.0625 C 13.816406 -0.0625 13.25 -0.195312 13.25 -0.46875 C 13.25 -0.738281 13.519531 -1.21875 14.0625 -1.90625 C 14.613281 -2.59375 17.550781 -6.179688 22.875 -12.671875 C 35.382812 -27.953125 41.640625 -35.960938 41.640625 -36.703125 L 41.578125 -36.765625 C 41.222656 -36.609375 36.101562 -32.035156 26.21875 -23.046875 C 11.75 -9.984375 3.535156 -2.398438 1.578125 -0.296875 Z M 1.578125 -0.296875 "/></g></g></g><g fill="#32383d" fill-opacity="1"><g transform="translate(159.725228, 186.467263)"><g><path d="M 14.65625 -19.53125 C 13.988281 -19.53125 13.65625 -19.832031 13.65625 -20.4375 C 13.65625 -21.039062 13.945312 -21.613281 14.53125 -22.15625 C 15.125 -22.707031 15.625 -22.984375 16.03125 -22.984375 C 16.445312 -22.984375 16.757812 -22.863281 16.96875 -22.625 C 17.1875 -22.394531 17.296875 -22.125 17.296875 -21.8125 C 17.296875 -21.5 17.019531 -21.039062 16.46875 -20.4375 C 15.925781 -19.832031 15.320312 -19.53125 14.65625 -19.53125 Z M -0.171875 -1 C 0.253906 -1.976562 1.984375 -4.207031 5.015625 -7.6875 C 8.046875 -11.164062 10.34375 -13.6875 11.90625 -15.25 C 12.132812 -15.5625 12.25 -15.785156 12.25 -15.921875 C 12.25 -16.054688 12.09375 -16.144531 11.78125 -16.1875 L 10.4375 -16.296875 C 10.125 -16.296875 9.832031 -16.140625 9.5625 -15.828125 C 6.90625 -13.128906 4.390625 -10.1875 2.015625 -7 C -0.347656 -3.820312 -1.53125 -1.847656 -1.53125 -1.078125 C -1.53125 -0.316406 -1.296875 0.0625 -0.828125 0.0625 C -0.191406 0.0625 1.078125 -0.453125 2.984375 -1.484375 C 4.898438 -2.523438 6.660156 -3.570312 8.265625 -4.625 L 10.671875 -6.21875 L 10.609375 -6.984375 C 4.316406 -2.835938 0.820312 -0.765625 0.125 -0.765625 C -0.0703125 -0.765625 -0.171875 -0.84375 -0.171875 -1 Z M -0.171875 -1 "/></g></g></g><g fill="#32383d" fill-opacity="1"><g transform="translate(168.403523, 186.467263)"><g><path d="M 1.296875 -5.75 L 1.109375 -6.453125 L 3.046875 -7.6875 C 5.984375 -9.632812 7.820312 -11.007812 8.5625 -11.8125 C 9.300781 -12.613281 9.75 -13.113281 9.90625 -13.3125 C 10.925781 -14.601562 11.492188 -15.328125 11.609375 -15.484375 C 12.078125 -15.328125 12.3125 -14.859375 12.3125 -14.078125 C 11.53125 -12.941406 10.472656 -11.582031 9.140625 -10 C 7.816406 -8.414062 6.722656 -7.101562 5.859375 -6.0625 C 5.003906 -5.03125 4.578125 -4.4375 4.578125 -4.28125 C 4.578125 -4.125 4.601562 -4.046875 4.65625 -4.046875 C 4.71875 -4.046875 5.007812 -4.25 5.53125 -4.65625 C 6.0625 -5.070312 7.503906 -6.097656 9.859375 -7.734375 C 14.585938 -11.023438 17.59375 -13.109375 18.875 -13.984375 C 20.164062 -14.867188 21 -15.3125 21.375 -15.3125 C 21.75 -15.3125 21.9375 -14.925781 21.9375 -14.15625 C 21.9375 -13.394531 21.347656 -12.25 20.171875 -10.71875 C 18.992188 -9.195312 17.703125 -7.796875 16.296875 -6.515625 C 12.546875 -3.066406 10.671875 -1.171875 10.671875 -0.828125 C 10.671875 -0.785156 10.75 -0.765625 10.90625 -0.765625 C 11.375 -0.765625 14.015625 -2.304688 18.828125 -5.390625 L 21.234375 -6.984375 L 21.28125 -6.21875 C 14.988281 -2.03125 11.160156 0.0625 9.796875 0.0625 C 9.554688 0.0625 9.4375 -0.0546875 9.4375 -0.296875 C 9.4375 -1.742188 10.34375 -3.453125 12.15625 -5.421875 C 13.976562 -7.398438 15.789062 -9.179688 17.59375 -10.765625 C 19.394531 -12.347656 20.296875 -13.390625 20.296875 -13.890625 C 20.296875 -13.972656 20.253906 -14.015625 20.171875 -14.015625 C 19.035156 -13.460938 16.40625 -11.726562 12.28125 -8.8125 C 8.15625 -5.90625 5.742188 -4.195312 5.046875 -3.6875 C 3.203125 -2.320312 2.234375 -1.609375 2.140625 -1.546875 C 2.046875 -1.492188 1.84375 -1.289062 1.53125 -0.9375 C 0.820312 -0.195312 0.175781 0.171875 -0.40625 0.171875 C -1.34375 0.0976562 -1.832031 0.0390625 -1.875 0 C -1.914062 -0.0390625 -1.9375 -0.0820312 -1.9375 -0.125 C -1.9375 -0.15625 -1.601562 -0.523438 -0.9375 -1.234375 C -0.3125 -1.898438 0.3125 -2.5625 0.9375 -3.21875 C 3.007812 -5.53125 4.4375 -7.175781 5.21875 -8.15625 Z M 1.296875 -5.75 "/></g></g></g><g fill="#32383d" fill-opacity="1"><g transform="translate(187.636492, 186.467263)"><g/></g></g><g fill="#32383d" fill-opacity="1"><g transform="translate(200.536658, 186.467263)"><g><path d="M 14.078125 5.515625 C 15.210938 5.515625 16.414062 4.253906 17.6875 1.734375 C 18.957031 -0.785156 20.0625 -3.863281 21 -7.5 C 16.1875 -0.851562 13.78125 3.304688 13.78125 4.984375 C 13.78125 5.253906 13.878906 5.429688 14.078125 5.515625 Z M 20.53125 -20.234375 C 20.53125 -16.242188 20.921875 -12.957031 21.703125 -10.375 C 22.597656 -14.40625 23.046875 -17.679688 23.046875 -20.203125 C 23.046875 -22.722656 22.597656 -23.984375 21.703125 -23.984375 C 20.921875 -23.984375 20.53125 -22.734375 20.53125 -20.234375 Z M 3.578125 -0.640625 L 4.390625 -1.109375 C 4.515625 -1.109375 4.578125 -1.050781 4.578125 -0.9375 C 4.578125 -0.625 4.085938 -0.117188 3.109375 0.578125 C 2.128906 1.285156 1.363281 1.640625 0.8125 1.640625 C 0.269531 1.640625 0 1.367188 0 0.828125 C 0 -1.242188 2.84375 -6.113281 8.53125 -13.78125 C 14.21875 -21.445312 19.015625 -27.390625 22.921875 -31.609375 L 23.046875 -31.84375 C 23.046875 -31.914062 22.988281 -31.953125 22.875 -31.953125 C 21.34375 -30.941406 18.15625 -29.367188 13.3125 -27.234375 C 8.46875 -25.109375 4.988281 -24.046875 2.875 -24.046875 C 1.695312 -24.046875 1.109375 -24.4375 1.109375 -25.21875 C 1.109375 -25.445312 1.273438 -25.765625 1.609375 -26.171875 C 1.941406 -26.585938 2.175781 -26.796875 2.3125 -26.796875 C 2.445312 -26.796875 2.648438 -26.664062 2.921875 -26.40625 C 3.203125 -26.15625 4.054688 -26.03125 5.484375 -26.03125 C 6.910156 -26.03125 9.320312 -26.664062 12.71875 -27.9375 C 16.125 -29.207031 19.664062 -30.898438 23.34375 -33.015625 C 24.59375 -33.753906 25.625 -34.492188 26.4375 -35.234375 C 27.257812 -35.984375 28.207031 -36.925781 29.28125 -38.0625 C 30.363281 -39.195312 31.070312 -39.925781 31.40625 -40.25 C 31.738281 -40.582031 32.363281 -41.25 33.28125 -42.25 C 34.195312 -43.25 34.929688 -44.019531 35.484375 -44.5625 C 37.003906 -46.007812 38.253906 -46.734375 39.234375 -46.734375 C 39.546875 -46.734375 39.703125 -46.597656 39.703125 -46.328125 C 39.703125 -44.765625 37.179688 -42.144531 32.140625 -38.46875 C 30.222656 -37.019531 29.109375 -36.117188 28.796875 -35.765625 C 24.378906 -30.921875 19.0625 -24.382812 12.84375 -16.15625 C 6.625 -7.925781 3.492188 -2.816406 3.453125 -0.828125 C 3.453125 -0.703125 3.492188 -0.640625 3.578125 -0.640625 Z M 33.484375 -8.796875 L 29.265625 -6.21875 C 27.773438 -5.28125 26.453125 -4.8125 25.296875 -4.8125 C 24.148438 -4.8125 23.125 -5.222656 22.21875 -6.046875 C 21.125 -2.566406 19.804688 0.34375 18.265625 2.6875 C 16.722656 5.039062 15.207031 6.21875 13.71875 6.21875 C 13.207031 6.21875 12.953125 5.984375 12.953125 5.515625 C 12.953125 3.046875 15.492188 -1.703125 20.578125 -8.734375 C 19.566406 -11.203125 19.0625 -14.679688 19.0625 -19.171875 C 19.0625 -20.703125 19.296875 -21.972656 19.765625 -22.984375 C 20.234375 -24.003906 20.878906 -24.515625 21.703125 -24.515625 C 23.578125 -24.515625 24.515625 -22.554688 24.515625 -18.640625 C 24.515625 -17.003906 24.335938 -15.25 23.984375 -13.375 C 29.421875 -20.445312 35.617188 -27.8125 42.578125 -35.46875 C 49.535156 -43.132812 54.1875 -47.828125 56.53125 -49.546875 C 57.070312 -49.898438 57.734375 -50.078125 58.515625 -50.078125 C 59.304688 -50.078125 59.703125 -49.941406 59.703125 -49.671875 C 59.703125 -49.472656 59.625 -49.296875 59.46875 -49.140625 C 59.269531 -48.941406 58.953125 -48.644531 58.515625 -48.25 C 58.085938 -47.863281 57.71875 -47.515625 57.40625 -47.203125 C 43.726562 -33.523438 32.664062 -21.660156 24.21875 -11.609375 L 23.515625 -10.734375 C 23.472656 -10.617188 23.375 -10.195312 23.21875 -9.46875 C 23.0625 -8.75 22.925781 -8.210938 22.8125 -7.859375 C 23.632812 -6.453125 24.691406 -5.75 25.984375 -5.75 C 26.722656 -5.75 27.441406 -5.941406 28.140625 -6.328125 C 29.316406 -6.992188 30.707031 -7.851562 32.3125 -8.90625 C 32.582031 -9.0625 32.875 -9.140625 33.1875 -9.140625 C 33.5 -9.140625 33.65625 -9.097656 33.65625 -9.015625 C 33.65625 -8.941406 33.597656 -8.867188 33.484375 -8.796875 Z M 33.484375 -8.796875 "/></g></g></g><g fill="#32383d" fill-opacity="1"><g transform="translate(227.744272, 186.467263)"><g><path d="M 9.734375 -12.671875 C 10.085938 -13.097656 10.5 -13.644531 10.96875 -14.3125 C 11.4375 -14.976562 11.828125 -15.3125 12.140625 -15.3125 C 12.453125 -15.3125 12.785156 -15.015625 13.140625 -14.421875 C 13.140625 -13.722656 11.367188 -11.414062 7.828125 -7.5 C 4.285156 -3.59375 2.515625 -1.460938 2.515625 -1.109375 C 2.515625 -1.035156 2.628906 -1 2.859375 -1 C 3.097656 -1 4.472656 -1.800781 6.984375 -3.40625 C 12.222656 -6.757812 16.738281 -10.453125 20.53125 -14.484375 C 21.46875 -15.347656 22.285156 -15.78125 22.984375 -15.78125 C 23.023438 -15.78125 23.066406 -15.78125 23.109375 -15.78125 C 23.847656 -15.738281 24.21875 -15.640625 24.21875 -15.484375 L 24.15625 -15.359375 C 22.476562 -13.796875 19.976562 -11.15625 16.65625 -7.4375 C 13.332031 -3.726562 11.671875 -1.539062 11.671875 -0.875 C 11.671875 -0.71875 11.796875 -0.640625 12.046875 -0.640625 C 12.304688 -0.640625 14.976562 -2.242188 20.0625 -5.453125 L 22.453125 -6.984375 L 22.515625 -6.28125 C 22.046875 -5.96875 21.441406 -5.578125 20.703125 -5.109375 C 14.878906 -1.429688 11.476562 0.40625 10.5 0.40625 C 10.144531 0.40625 9.96875 0.210938 9.96875 -0.171875 C 9.96875 -0.566406 10.445312 -1.679688 11.40625 -3.515625 C 12.363281 -5.359375 13.054688 -6.53125 13.484375 -7.03125 L 12.546875 -6.515625 C 6.640625 -2.285156 3.101562 -0.171875 1.9375 -0.171875 C 1.46875 -0.171875 1.234375 -0.4375 1.234375 -0.96875 C 1.234375 -1.5 1.445312 -2.179688 1.875 -3.015625 C 2.300781 -3.859375 2.703125 -4.535156 3.078125 -5.046875 C 3.453125 -5.554688 4.007812 -6.25 4.75 -7.125 C 5.488281 -8 5.878906 -8.457031 5.921875 -8.5 L 1.34375 -5.8125 L 1.171875 -6.453125 L 3.171875 -7.6875 C 6.566406 -9.875 8.753906 -11.535156 9.734375 -12.671875 Z M 9.734375 -12.671875 "/></g></g></g><g fill="#32383d" fill-opacity="1"><g transform="translate(248.149987, 186.467263)"><g><path d="M 14.65625 -19.53125 C 13.988281 -19.53125 13.65625 -19.832031 13.65625 -20.4375 C 13.65625 -21.039062 13.945312 -21.613281 14.53125 -22.15625 C 15.125 -22.707031 15.625 -22.984375 16.03125 -22.984375 C 16.445312 -22.984375 16.757812 -22.863281 16.96875 -22.625 C 17.1875 -22.394531 17.296875 -22.125 17.296875 -21.8125 C 17.296875 -21.5 17.019531 -21.039062 16.46875 -20.4375 C 15.925781 -19.832031 15.320312 -19.53125 14.65625 -19.53125 Z M -0.171875 -1 C 0.253906 -1.976562 1.984375 -4.207031 5.015625 -7.6875 C 8.046875 -11.164062 10.34375 -13.6875 11.90625 -15.25 C 12.132812 -15.5625 12.25 -15.785156 12.25 -15.921875 C 12.25 -16.054688 12.09375 -16.144531 11.78125 -16.1875 L 10.4375 -16.296875 C 10.125 -16.296875 9.832031 -16.140625 9.5625 -15.828125 C 6.90625 -13.128906 4.390625 -10.1875 2.015625 -7 C -0.347656 -3.820312 -1.53125 -1.847656 -1.53125 -1.078125 C -1.53125 -0.316406 -1.296875 0.0625 -0.828125 0.0625 C -0.191406 0.0625 1.078125 -0.453125 2.984375 -1.484375 C 4.898438 -2.523438 6.660156 -3.570312 8.265625 -4.625 L 10.671875 -6.21875 L 10.609375 -6.984375 C 4.316406 -2.835938 0.820312 -0.765625 0.125 -0.765625 C -0.0703125 -0.765625 -0.171875 -0.84375 -0.171875 -1 Z M -0.171875 -1 "/></g></g></g><g fill="#32383d" fill-opacity="1"><g transform="translate(179.523279, 217.536671)"><g><path d="M 3.8125 0.046875 C 3.726562 0.046875 3.664062 0.015625 3.625 -0.046875 L 1.625 -4.578125 L 1.59375 -4.578125 L 1.609375 -1.046875 C 1.617188 -0.878906 1.628906 -0.753906 1.640625 -0.671875 C 1.660156 -0.585938 1.710938 -0.515625 1.796875 -0.453125 C 1.878906 -0.390625 2.003906 -0.359375 2.171875 -0.359375 L 2.234375 -0.359375 C 2.285156 -0.359375 2.328125 -0.347656 2.359375 -0.328125 C 2.390625 -0.304688 2.40625 -0.253906 2.40625 -0.171875 C 2.40625 -0.117188 2.390625 -0.0703125 2.359375 -0.03125 C 2.335938 0.0078125 2.300781 0.03125 2.25 0.03125 L 2.03125 0.015625 C 1.75 0.00390625 1.550781 0 1.4375 0 C 1.238281 0 0.941406 0.0078125 0.546875 0.03125 C 0.492188 0.03125 0.453125 0.0078125 0.421875 -0.03125 C 0.398438 -0.0703125 0.390625 -0.117188 0.390625 -0.171875 C 0.398438 -0.253906 0.414062 -0.304688 0.4375 -0.328125 C 0.46875 -0.347656 0.523438 -0.359375 0.609375 -0.359375 C 0.785156 -0.359375 0.910156 -0.390625 0.984375 -0.453125 C 1.066406 -0.515625 1.117188 -0.585938 1.140625 -0.671875 C 1.160156 -0.753906 1.171875 -0.878906 1.171875 -1.046875 L 1.203125 -4.578125 C 1.203125 -4.765625 1.179688 -4.90625 1.140625 -5 C 1.097656 -5.09375 1.035156 -5.15625 0.953125 -5.1875 C 0.867188 -5.226562 0.75 -5.265625 0.59375 -5.296875 C 0.570312 -5.304688 0.535156 -5.3125 0.484375 -5.3125 C 0.441406 -5.320312 0.410156 -5.34375 0.390625 -5.375 C 0.378906 -5.40625 0.375 -5.445312 0.375 -5.5 C 0.375 -5.570312 0.390625 -5.617188 0.421875 -5.640625 C 0.460938 -5.671875 0.523438 -5.6875 0.609375 -5.6875 C 0.960938 -5.6875 1.25 -5.660156 1.46875 -5.609375 C 1.695312 -5.566406 1.894531 -5.476562 2.0625 -5.34375 C 2.238281 -5.207031 2.382812 -5.003906 2.5 -4.734375 L 4.03125 -1.296875 L 4.0625 -1.296875 L 5.8125 -5.625 L 6.328125 -5.625 C 6.648438 -5.625 7.003906 -5.632812 7.390625 -5.65625 C 7.441406 -5.65625 7.476562 -5.632812 7.5 -5.59375 C 7.53125 -5.5625 7.546875 -5.515625 7.546875 -5.453125 C 7.535156 -5.367188 7.515625 -5.316406 7.484375 -5.296875 C 7.453125 -5.273438 7.398438 -5.265625 7.328125 -5.265625 C 7.148438 -5.265625 7.019531 -5.234375 6.9375 -5.171875 C 6.851562 -5.109375 6.800781 -5.03125 6.78125 -4.9375 C 6.757812 -4.851562 6.75 -4.734375 6.75 -4.578125 L 6.75 -1.046875 C 6.75 -0.898438 6.757812 -0.78125 6.78125 -0.6875 C 6.800781 -0.59375 6.851562 -0.515625 6.9375 -0.453125 C 7.019531 -0.390625 7.148438 -0.359375 7.328125 -0.359375 L 7.375 -0.359375 C 7.425781 -0.359375 7.460938 -0.347656 7.484375 -0.328125 C 7.515625 -0.304688 7.535156 -0.253906 7.546875 -0.171875 C 7.546875 -0.117188 7.53125 -0.0703125 7.5 -0.03125 C 7.476562 0.0078125 7.441406 0.03125 7.390625 0.03125 C 7.003906 0.0078125 6.644531 0 6.3125 0 C 5.96875 0 5.601562 0.0078125 5.21875 0.03125 C 5.164062 0.03125 5.125 0.0078125 5.09375 -0.03125 C 5.070312 -0.0703125 5.0625 -0.117188 5.0625 -0.171875 C 5.0625 -0.253906 5.078125 -0.304688 5.109375 -0.328125 C 5.140625 -0.347656 5.195312 -0.359375 5.28125 -0.359375 C 5.457031 -0.359375 5.585938 -0.390625 5.671875 -0.453125 C 5.753906 -0.515625 5.804688 -0.59375 5.828125 -0.6875 C 5.847656 -0.78125 5.859375 -0.898438 5.859375 -1.046875 L 5.859375 -4.578125 L 5.828125 -4.578125 L 4 -0.046875 C 3.976562 0.015625 3.914062 0.046875 3.8125 0.046875 Z M 3.8125 0.046875 "/></g></g></g><g fill="#32383d" fill-opacity="1"><g transform="translate(188.524251, 217.536671)"><g><path d="M 0.546875 0.03125 C 0.492188 0.03125 0.453125 0.0078125 0.421875 -0.03125 C 0.398438 -0.0703125 0.390625 -0.117188 0.390625 -0.171875 C 0.390625 -0.253906 0.40625 -0.304688 0.4375 -0.328125 C 0.46875 -0.347656 0.523438 -0.359375 0.609375 -0.359375 C 0.773438 -0.359375 0.898438 -0.390625 0.984375 -0.453125 C 1.066406 -0.515625 1.117188 -0.59375 1.140625 -0.6875 C 1.160156 -0.78125 1.175781 -0.898438 1.1875 -1.046875 L 1.1875 -4.578125 C 1.175781 -4.734375 1.160156 -4.851562 1.140625 -4.9375 C 1.117188 -5.03125 1.066406 -5.109375 0.984375 -5.171875 C 0.898438 -5.234375 0.773438 -5.265625 0.609375 -5.265625 L 0.546875 -5.265625 C 0.492188 -5.265625 0.453125 -5.273438 0.421875 -5.296875 C 0.398438 -5.316406 0.390625 -5.367188 0.390625 -5.453125 C 0.390625 -5.515625 0.398438 -5.5625 0.421875 -5.59375 C 0.453125 -5.632812 0.492188 -5.65625 0.546875 -5.65625 C 0.929688 -5.632812 1.28125 -5.625 1.59375 -5.625 C 1.945312 -5.625 2.320312 -5.632812 2.71875 -5.65625 C 2.769531 -5.65625 2.804688 -5.632812 2.828125 -5.59375 C 2.859375 -5.5625 2.875 -5.515625 2.875 -5.453125 C 2.863281 -5.367188 2.84375 -5.316406 2.8125 -5.296875 C 2.789062 -5.273438 2.738281 -5.265625 2.65625 -5.265625 C 2.476562 -5.265625 2.347656 -5.234375 2.265625 -5.171875 C 2.179688 -5.109375 2.128906 -5.03125 2.109375 -4.9375 C 2.085938 -4.851562 2.070312 -4.734375 2.0625 -4.578125 L 2.0625 -3 L 4.875 -3 L 4.875 -4.578125 C 4.863281 -4.734375 4.847656 -4.851562 4.828125 -4.9375 C 4.804688 -5.03125 4.753906 -5.109375 4.671875 -5.171875 C 4.585938 -5.234375 4.460938 -5.265625 4.296875 -5.265625 L 4.234375 -5.265625 C 4.179688 -5.265625 4.140625 -5.273438 4.109375 -5.296875 C 4.078125 -5.316406 4.0625 -5.367188 4.0625 -5.453125 C 4.0625 -5.515625 4.078125 -5.5625 4.109375 -5.59375 C 4.140625 -5.632812 4.175781 -5.65625 4.21875 -5.65625 C 4.601562 -5.632812 4.972656 -5.625 5.328125 -5.625 C 5.660156 -5.625 6.015625 -5.632812 6.390625 -5.65625 C 6.453125 -5.65625 6.492188 -5.632812 6.515625 -5.59375 C 6.546875 -5.5625 6.5625 -5.515625 6.5625 -5.453125 C 6.550781 -5.367188 6.53125 -5.316406 6.5 -5.296875 C 6.46875 -5.273438 6.410156 -5.265625 6.328125 -5.265625 C 6.160156 -5.265625 6.03125 -5.234375 5.9375 -5.171875 C 5.851562 -5.109375 5.800781 -5.03125 5.78125 -4.9375 C 5.757812 -4.851562 5.75 -4.734375 5.75 -4.578125 L 5.75 -1.046875 C 5.75 -0.898438 5.757812 -0.78125 5.78125 -0.6875 C 5.800781 -0.59375 5.851562 -0.515625 5.9375 -0.453125 C 6.03125 -0.390625 6.160156 -0.359375 6.328125 -0.359375 L 6.390625 -0.359375 C 6.441406 -0.359375 6.476562 -0.347656 6.5 -0.328125 C 6.53125 -0.304688 6.550781 -0.253906 6.5625 -0.171875 C 6.5625 -0.117188 6.546875 -0.0703125 6.515625 -0.03125 C 6.492188 0.0078125 6.453125 0.03125 6.390625 0.03125 C 6.015625 0.0078125 5.660156 0 5.328125 0 C 4.972656 0 4.601562 0.0078125 4.21875 0.03125 C 4.175781 0.03125 4.140625 0.0078125 4.109375 -0.03125 C 4.078125 -0.0703125 4.0625 -0.117188 4.0625 -0.171875 C 4.0625 -0.253906 4.078125 -0.304688 4.109375 -0.328125 C 4.148438 -0.347656 4.210938 -0.359375 4.296875 -0.359375 C 4.460938 -0.359375 4.585938 -0.390625 4.671875 -0.453125 C 4.753906 -0.515625 4.804688 -0.59375 4.828125 -0.6875 C 4.847656 -0.78125 4.863281 -0.898438 4.875 -1.046875 L 4.875 -2.625 L 2.0625 -2.625 L 2.0625 -1.046875 C 2.070312 -0.898438 2.085938 -0.78125 2.109375 -0.6875 C 2.128906 -0.59375 2.179688 -0.515625 2.265625 -0.453125 C 2.347656 -0.390625 2.476562 -0.359375 2.65625 -0.359375 L 2.703125 -0.359375 C 2.765625 -0.359375 2.804688 -0.347656 2.828125 -0.328125 C 2.847656 -0.304688 2.863281 -0.253906 2.875 -0.171875 C 2.875 -0.117188 2.859375 -0.0703125 2.828125 -0.03125 C 2.804688 0.0078125 2.769531 0.03125 2.71875 0.03125 C 2.332031 0.0078125 1.960938 0 1.609375 0 C 1.285156 0 0.929688 0.0078125 0.546875 0.03125 Z M 0.546875 0.03125 "/></g></g></g></svg>