<svg xmlns="http://www.w3.org/2000/svg" xmlns:xlink="http://www.w3.org/1999/xlink" width="500" zoomAndPan="magnify" viewBox="0 0 375 374.999991" height="500" preserveAspectRatio="xMidYMid meet" version="1.0"><defs><g/></defs><g fill="#32383d" fill-opacity="1"><g transform="translate(8.953129, 268.620733)"><g><path d="M 55.542969 -211.183594 C 55.542969 -219.96875 48.011719 -226.871094 38.597656 -226.871094 C 24.476562 -226.871094 21.652344 -215.574219 21.652344 -203.335938 L 21.652344 -13.492188 C 21.652344 -4.394531 28.867188 2.195312 38.597656 2.195312 C 51.777344 2.195312 55.542969 -8.785156 55.542969 -20.398438 L 55.542969 -63.386719 C 58.050781 -65.582031 60.25 -68.40625 62.757812 -70.601562 L 104.179688 -10.984375 C 110.769531 -1.253906 112.652344 2.195312 122.378906 2.195312 C 131.164062 2.195312 138.070312 -2.824219 138.695312 -11.296875 C 138.695312 -14.121094 137.753906 -18.199219 135.871094 -20.710938 C 119.554688 -43.929688 102.925781 -67.152344 86.292969 -90.371094 L 128.65625 -134.304688 C 131.480469 -137.128906 133.046875 -140.894531 133.046875 -144.972656 C 133.046875 -153.445312 125.832031 -159.71875 116.730469 -159.71875 C 109.828125 -159.71875 104.808594 -155.328125 100.726562 -150.933594 L 55.542969 -102.925781 Z M 55.542969 -211.183594 "/></g></g></g><g fill="#32383d" fill-opacity="1"><g transform="translate(154.238769, 268.620733)"><g><path d="M 205.21875 -141.835938 C 205.21875 -142.460938 205.535156 -144.03125 205.535156 -144.34375 C 205.535156 -153.445312 197.6875 -160.035156 188.902344 -160.035156 C 182 -160.035156 174.46875 -155.011719 172.898438 -148.738281 L 157.835938 -89.746094 C 153.757812 -73.742188 151.5625 -57.425781 148.425781 -41.105469 C 144.03125 -59.933594 140.894531 -78.761719 136.5 -97.277344 L 124.261719 -146.542969 C 122.378906 -154.386719 116.101562 -160.035156 106.375 -160.035156 C 96.335938 -160.035156 89.429688 -154.386719 87.546875 -146.542969 L 75.308594 -97.277344 C 70.601562 -78.761719 67.777344 -59.933594 63.699219 -41.105469 C 60.5625 -57.425781 58.367188 -73.742188 54.285156 -89.746094 L 38.910156 -148.738281 C 37.027344 -155.953125 30.125 -160.035156 23.21875 -160.035156 C 13.492188 -160.035156 6.277344 -152.816406 6.277344 -144.972656 C 6.277344 -144.03125 6.277344 -143.089844 6.589844 -141.835938 L 42.988281 -14.121094 C 45.8125 -3.765625 52.089844 2.195312 63.386719 2.195312 C 73.742188 2.195312 80.015625 -1.253906 82.527344 -10.667969 C 91.3125 -43.617188 98.53125 -76.566406 106.0625 -110.140625 L 129.597656 -10.667969 C 131.480469 -2.195312 140.265625 2.195312 148.738281 2.195312 C 160.660156 2.195312 165.683594 -3.136719 168.820312 -13.808594 Z M 205.21875 -141.835938 "/></g></g></g></svg>