<svg xmlns="http://www.w3.org/2000/svg" xmlns:xlink="http://www.w3.org/1999/xlink" width="500" zoomAndPan="magnify" viewBox="0 0 375 374.999991" height="500" preserveAspectRatio="xMidYMid meet" version="1.0"><defs><g/></defs><g fill="#32383d" fill-opacity="1"><g transform="translate(37.500002, 211.933866)"><g><path d="M 23.671875 0 L 22.4375 -15.609375 L 22.265625 -15.609375 L 16.875 -0.15625 L 13.3125 -0.15625 L 7.90625 -15.609375 L 7.75 -15.609375 L 6.515625 0 L 0.515625 0 L 2.875 -26.328125 L 9.25 -26.328125 L 15.09375 -11.140625 L 20.9375 -26.328125 L 27.3125 -26.328125 L 29.671875 0 Z M 23.671875 0 "/></g></g></g><g fill="#32383d" fill-opacity="1"><g transform="translate(70.87414, 211.933866)"><g><path d="M 7.90625 -26.328125 L 7.90625 0 L 1.921875 0 L 1.921875 -26.328125 Z M 7.90625 -26.328125 "/></g></g></g><g fill="#32383d" fill-opacity="1"><g transform="translate(83.891968, 211.933866)"><g><path d="M 7.90625 -16.34375 L 7.90625 0 L 1.921875 0 L 1.921875 -26.328125 L 7.90625 -26.328125 L 18.375 -9.984375 L 18.4375 -9.984375 L 18.4375 -26.328125 L 24.4375 -26.328125 L 24.4375 0 L 18.4375 0 L 7.984375 -16.34375 Z M 7.90625 -16.34375 "/></g></g></g><g fill="#32383d" fill-opacity="1"><g transform="translate(113.437334, 211.933866)"><g/></g></g><g fill="#32383d" fill-opacity="1"><g transform="translate(125.338432, 211.933866)"><g><path d="M 7.90625 -10.5625 L 7.90625 0 L 1.921875 0 L 1.921875 -26.328125 L 7.90625 -26.328125 L 7.90625 -15.828125 L 16.40625 -15.828125 L 16.40625 -26.328125 L 22.390625 -26.328125 L 22.390625 0 L 16.40625 0 L 16.40625 -10.5625 Z M 7.90625 -10.5625 "/></g></g></g><g fill="#32383d" fill-opacity="1"><g transform="translate(152.841786, 211.933866)"><g><path d="M 22.140625 -26.328125 L 22.140625 -9.34375 C 22.140625 -6.113281 21.265625 -3.664062 19.515625 -2 C 17.773438 -0.34375 15.222656 0.484375 11.859375 0.484375 C 8.503906 0.484375 5.953125 -0.34375 4.203125 -2 C 2.460938 -3.664062 1.59375 -6.113281 1.59375 -9.34375 L 1.59375 -26.328125 L 7.59375 -26.328125 L 7.59375 -11.109375 C 7.59375 -8.972656 7.925781 -7.488281 8.59375 -6.65625 C 9.269531 -5.832031 10.363281 -5.421875 11.875 -5.421875 C 13.382812 -5.421875 14.472656 -5.832031 15.140625 -6.65625 C 15.804688 -7.488281 16.140625 -8.972656 16.140625 -11.109375 L 16.140625 -26.328125 Z M 22.140625 -26.328125 "/></g></g></g><g fill="#32383d" fill-opacity="1"><g transform="translate(179.770818, 211.933866)"><g><path d="M 7.90625 -26.328125 L 7.90625 0 L 1.921875 0 L 1.921875 -26.328125 Z M 7.90625 -26.328125 "/></g></g></g><g fill="#32383d" fill-opacity="1"><g transform="translate(37.500002, 168.82155)"><g><path d="M 10.984375 -4.1875 C 10.890625 -2.832031 10.390625 -1.765625 9.484375 -0.984375 C 8.585938 -0.210938 7.398438 0.171875 5.921875 0.171875 C 4.316406 0.171875 3.050781 -0.367188 2.125 -1.453125 C 1.195312 -2.535156 0.734375 -4.023438 0.734375 -5.921875 L 0.734375 -6.6875 C 0.734375 -7.894531 0.945312 -8.957031 1.375 -9.875 C 1.800781 -10.800781 2.410156 -11.507812 3.203125 -12 C 3.992188 -12.488281 4.914062 -12.734375 5.96875 -12.734375 C 7.414062 -12.734375 8.582031 -12.34375 9.46875 -11.5625 C 10.351562 -10.789062 10.863281 -9.703125 11 -8.296875 L 8.40625 -8.296875 C 8.34375 -9.109375 8.117188 -9.695312 7.734375 -10.0625 C 7.347656 -10.425781 6.757812 -10.609375 5.96875 -10.609375 C 5.101562 -10.609375 4.453125 -10.300781 4.015625 -9.6875 C 3.585938 -9.070312 3.367188 -8.113281 3.359375 -6.8125 L 3.359375 -5.859375 C 3.359375 -4.503906 3.5625 -3.507812 3.96875 -2.875 C 4.382812 -2.25 5.035156 -1.9375 5.921875 -1.9375 C 6.722656 -1.9375 7.320312 -2.117188 7.71875 -2.484375 C 8.113281 -2.847656 8.335938 -3.414062 8.390625 -4.1875 Z M 10.984375 -4.1875 "/></g></g></g><g fill="#32383d" fill-opacity="1"><g transform="translate(50.829368, 168.82155)"><g><path d="M 11.34375 0 L 8.765625 0 L 8.765625 -5.390625 L 3.703125 -5.390625 L 3.703125 0 L 1.125 0 L 1.125 -12.5625 L 3.703125 -12.5625 L 3.703125 -7.46875 L 8.765625 -7.46875 L 8.765625 -12.5625 L 11.34375 -12.5625 Z M 11.34375 0 "/></g></g></g><g fill="#32383d" fill-opacity="1"><g transform="translate(65.081988, 168.82155)"><g><path d="M 3.875 0 L 1.28125 0 L 1.28125 -12.5625 L 3.875 -12.5625 Z M 3.875 0 "/></g></g></g><g fill="#32383d" fill-opacity="1"><g transform="translate(72.000351, 168.82155)"><g><path d="M 11.34375 0 L 8.75 0 L 3.703125 -8.265625 L 3.703125 0 L 1.125 0 L 1.125 -12.5625 L 3.703125 -12.5625 L 8.765625 -4.28125 L 8.765625 -12.5625 L 11.34375 -12.5625 Z M 11.34375 0 "/></g></g></g></svg>